<svg width="113" height="112" viewBox="0 0 113 112" fill="none" xmlns="http://www.w3.org/2000/svg">
<path d="M106.954 68.992C105.242 72.4383 103.206 75.646 100.913 78.5876C96.0923 84.7818 90.1342 89.7868 83.6398 93.3299C71.8826 99.7383 57.9658 101.964 45.2009 99.1819C42.3102 98.5494 39.4519 97.6161 36.6791 96.4029C26.9788 92.1514 18.2948 84.4503 12.7346 74.2014C6.69108 63.0642 0.367561 45.6571 6.05156 32.7606C6.50544 31.7375 7.02988 30.7418 7.63972 29.7808C14.6232 18.7441 28.5521 26.1618 37.7663 26.67C40.4742 26.8187 42.3776 26.1655 43.8894 24.9072C45.7102 23.3932 46.9657 20.9978 48.3772 18.0561C48.4156 17.9732 48.4567 17.8937 48.4979 17.8142C51.1618 12.3909 55.5964 8.06684 60.868 6.722C67.8694 4.93504 75.9578 8.12536 79.9475 15.2805C81.5712 18.1911 82.4904 21.5542 83.7487 24.703C88.5872 36.801 101.343 35.1694 108.067 44.6992C113.203 51.979 110.593 61.6782 106.954 68.992Z" fill="#EFF2F4"/>
<path d="M59.1877 6.36554V6.8799C63.6369 6.8799 67.7202 8.65902 70.6848 11.8891C72.1215 13.4546 73.3271 15.3561 74.4931 17.1948C75.064 18.0956 75.6545 19.0269 76.2691 19.915C80.3792 25.8561 86.0963 26.8632 91.6251 27.8373C95.9467 28.5987 100.415 29.386 104.086 32.5668C106.929 35.0308 108.602 38.6229 109.057 43.2429C109.424 46.9594 109.011 51.2403 107.83 55.9675C104.995 67.3103 98.778 77.9573 90.3226 85.9474C80.2205 95.4935 67.1635 101.473 54.4994 102.353C53.5264 102.421 52.536 102.455 51.5555 102.455C49.6305 102.455 47.6786 102.324 45.7542 102.064C35.1895 100.639 25.4208 95.4414 18.2475 87.4281C12.9538 81.5145 8.60264 74.8519 5.99472 68.6675C2.50396 60.3893 1.92716 52.8399 4.28028 46.2297C5.72424 42.1736 8.4184 39.4526 12.5168 37.9115C16.1806 36.5336 20.4335 36.2429 24.5461 35.9615C27.4368 35.7639 30.1674 35.5771 32.5415 35.0235C38.6058 33.609 40.0114 29.4541 41.4637 23.277C42.9665 16.8854 46.4528 11.7046 51.0282 9.06306C53.5026 7.63478 56.3239 6.87962 59.1872 6.87962L59.1877 6.36554ZM59.1872 6.36554C56.2729 6.36554 53.3542 7.12658 50.7709 8.61786C45.8538 11.4562 42.404 17.0302 40.9628 23.1594C39.5622 29.1161 38.291 33.1543 32.4245 34.5229C23.3696 36.6349 8.31424 33.3645 3.79532 46.0575C-1.55912 61.1002 9.06072 77.9372 17.8639 87.7713C25.3721 96.1587 35.3883 101.185 45.685 102.574C47.6369 102.837 49.5983 102.97 51.5549 102.97C52.55 102.97 53.544 102.936 54.5347 102.867C67.5076 101.965 80.5705 95.8706 90.6757 86.3215C98.9102 78.54 105.354 67.9955 108.328 56.0924C110.361 47.9595 110.907 37.7975 104.422 32.1782C95.9321 24.8206 83.8767 30.0082 76.6916 19.6227C74.8207 16.9185 73.239 13.9118 71.0634 11.5416C67.8655 8.05646 63.5314 6.36526 59.1872 6.36554Z" fill="#EFF2F4"/>
<path d="M87.7124 15.6374C88.1224 19.311 90.1028 22.5014 92.8412 24.3205C97.8266 27.6326 105.775 26.3155 108.129 19.4748C110.828 11.6332 103.706 4.10593 97.5514 3.27825C91.6274 2.48249 86.9626 8.91801 87.7124 15.6374Z" fill="#EFF2F4"/>
<path d="M65.3906 97.1645C65.8005 100.838 67.7809 104.028 70.5193 105.848C75.5047 109.16 83.4534 107.843 85.8073 101.002C88.5057 93.1602 81.3844 85.633 75.2295 84.8053C69.3055 84.0095 64.641 90.4448 65.3906 97.1645Z" fill="#EFF2F4"/>
<path d="M28.7363 18.2159C29.0384 21.2509 32.1014 22.9801 34.4769 22.1023C38.6727 20.552 38.7301 13.0183 33.916 12.6921C31.2871 12.514 28.4028 14.8632 28.7363 18.2159Z" fill="#EFF2F4"/>
<g clip-path="url(#clip0_197_859)">
<path d="M37.4175 12.7645L44.5152 19.862C45.3024 20.6493 45.3024 21.9256 44.5152 22.7129L39.9058 27.3222C39.1185 28.1095 37.8422 28.1095 37.0549 27.3222L29.9574 20.2247C28.1785 24.8631 29.1553 30.3162 32.8949 34.0557C36.6046 37.7654 42.0002 38.7561 46.6144 37.0354L73.4495 66.3802C76.2048 69.3934 80.9171 69.4985 83.8043 66.6114C86.7051 63.7106 86.5831 58.9713 83.5368 56.2236L54.1248 29.6952C55.9894 25.0223 55.0317 19.485 51.2485 15.7019C47.509 11.9623 42.0561 10.9856 37.4175 12.7645ZM80.7314 61.4949C80.7314 62.6805 79.7703 63.6416 78.5847 63.6416C77.399 63.6416 76.438 62.6804 76.438 61.4949C76.438 60.3094 77.3991 59.3482 78.5847 59.3482C79.7703 59.3482 80.7314 60.3092 80.7314 61.4949Z" fill="#605F6D"/>
<path d="M51.6814 26.9912L54.2658 29.3223C55.9357 24.7303 54.9317 19.385 51.2485 15.702C50.9721 15.4256 50.6853 15.1661 50.3911 14.9198C52.8204 18.5157 53.2503 23.0593 51.6814 26.9912Z" fill="#53515E"/>
<path d="M70.986 63.6864L73.4494 66.3801C76.2047 69.3933 80.917 69.4984 83.8042 66.6113C86.705 63.7105 86.583 58.9711 83.5366 56.2235L82.5369 55.3218C84.071 58.0422 83.6972 61.5708 81.3607 63.9072C78.4736 66.7943 73.7414 66.6996 70.986 63.6864Z" fill="#53515E"/>
<path d="M46.6143 37.0352L44.1707 34.3311C39.9009 35.9236 34.963 35.1922 31.3101 32.1349C31.7677 32.8121 32.2954 33.4562 32.8948 34.0557C36.6045 37.7654 42.0002 38.7561 46.6143 37.0352Z" fill="#53515E"/>
<path d="M63.0674 37.761L60.7861 40.0423L59.258 38.5142C58.3111 37.5673 56.7759 37.5673 55.829 38.5142L53.7409 40.6022C54.2668 41.9564 54.2646 43.4684 53.7341 44.821L58.7826 50.3416C59.8864 49.8271 61.1189 49.6792 62.2967 49.8985C62.9975 50.029 63.7174 49.807 64.2214 49.3031L65.4196 48.1049C66.3665 47.158 66.3665 45.6227 65.4196 44.6759C64.5756 43.8319 64.5756 42.4636 65.4196 41.6196L66.3328 40.7064L63.0674 37.761Z" fill="#53515E"/>
<path d="M85.5987 19.0173L81.6749 15.0935C81.2975 14.7161 80.6625 14.812 80.4133 15.284L78.301 19.2861L58.9985 38.5884L62.1038 41.6936L81.4062 22.3913L85.4083 20.2789C85.8803 20.0298 85.9761 19.3947 85.5987 19.0173Z" fill="#E9EBF2"/>
<path d="M85.5987 19.0173L84.6081 18.0267C84.6775 18.3574 84.5319 18.7184 84.2028 18.8921L80.2007 21.0044L60.8984 40.3068L59.0892 38.4976L58.9984 38.5884L62.1037 41.6936L81.4062 22.3913L85.4083 20.2789C85.8803 20.0298 85.9761 19.3947 85.5987 19.0173Z" fill="#C7CAD3"/>
<path d="M55.545 49.8446C57.2202 48.1694 59.6657 47.7361 61.741 48.5418L63.829 46.4538C64.7759 45.5069 64.7759 43.9716 63.829 43.0248L57.6675 36.8633C56.7207 35.9164 55.1854 35.9164 54.2385 36.8633L52.1505 38.9513C52.9562 41.0265 52.5229 43.472 50.8477 45.1473C49.1726 46.8224 46.7271 47.2557 44.6518 46.45L33.5826 57.5192C30.9343 60.1675 30.9343 64.4614 33.5826 67.1097C36.2311 69.7581 40.5248 69.7581 43.1733 67.1097L54.2424 56.0405C53.4365 53.9652 53.8698 51.5197 55.545 49.8446Z" fill="#FFDC64"/>
<path d="M63.8289 43.0248L62.372 41.5679C62.5761 42.3697 62.3672 43.2549 61.7396 43.8824L59.6515 45.9704C57.5764 45.1647 55.1309 45.598 53.4557 47.2731C51.7806 48.9483 51.3473 51.3938 52.153 53.469L41.0837 64.5382C38.6675 66.9545 34.8823 67.165 32.2259 65.1724C32.5516 65.8738 33.0038 66.5311 33.5825 67.1097C36.2308 69.758 40.5247 69.758 43.1731 67.1097L54.2423 56.0404C53.4366 53.9652 53.8699 51.5197 55.545 49.8445C57.2202 48.1693 59.6657 47.736 61.741 48.5417L63.829 46.4537C64.7758 45.5069 64.7758 43.9717 63.8289 43.0248Z" fill="#FFC850"/>
<path d="M37.5022 61.007C37.271 61.007 37.0394 60.9187 36.8629 60.7423C36.5098 60.3891 36.5098 59.8169 36.8629 59.4637L45.4269 50.8997C45.7801 50.5467 46.3523 50.5467 46.7055 50.8997C47.0586 51.2529 47.0586 51.8251 46.7055 52.1783L38.1415 60.7423C37.965 60.9187 37.7335 61.007 37.5022 61.007Z" fill="#FF6B5C"/>
<path d="M40.6665 64.1714C40.4352 64.1714 40.2037 64.0831 40.0271 63.9067C39.6741 63.5535 39.6741 62.9812 40.0271 62.628L48.5911 54.064C48.9443 53.7111 49.5166 53.7111 49.8698 54.064C50.2228 54.4172 50.2228 54.9895 49.8698 55.3427L41.3058 63.9067C41.1292 64.083 40.8978 64.1714 40.6665 64.1714Z" fill="#FF6B5C"/>
<path d="M81.6355 61.4949C81.6355 59.8127 80.267 58.4441 78.5848 58.4441C76.9026 58.4441 75.534 59.8126 75.534 61.4949C75.534 63.1771 76.9025 64.5456 78.5848 64.5456C80.267 64.5456 81.6355 63.1771 81.6355 61.4949ZM77.342 61.4949C77.342 60.8097 77.8995 60.2522 78.5847 60.2522C79.2698 60.2522 79.8274 60.8097 79.8274 61.4949C79.8274 62.1801 79.2698 62.7376 78.5847 62.7376C77.8995 62.7376 77.342 62.1801 77.342 61.4949Z" fill="black"/>
<path d="M86.8044 61.3367C86.7468 59.1031 85.8014 57.0487 84.1423 55.5521L65.9408 39.1353L82.0342 23.0419C82.14 23.0103 82.2445 22.971 82.3453 22.9178L85.8304 21.0784C86.3118 20.8242 86.6347 20.3695 86.7159 19.8312C86.7973 19.2928 86.6232 18.7632 86.2382 18.3779L82.3142 14.454C81.9291 14.069 81.3998 13.8949 80.861 13.9763C80.3227 14.0575 79.8681 14.3804 79.6138 14.862L77.7743 18.3468C77.7206 18.4485 77.6794 18.5537 77.6477 18.6605L70.0514 26.2568C69.6984 26.61 69.6984 27.1822 70.0514 27.5354C70.4046 27.8883 70.9769 27.8883 71.3301 27.5354L78.3008 20.5646L80.1277 22.3914L62.3009 40.2181L60.4741 38.3913L68.2553 30.6102C68.6084 30.257 68.6084 29.6848 68.2553 29.3316C67.9021 28.9787 67.3298 28.9787 66.9766 29.3316L61.3308 34.9774L55.1863 29.4353C56.9284 24.4208 55.6668 18.8417 51.8877 15.0627C48.0169 11.1919 42.21 9.95827 37.0938 11.9204C36.8079 12.0301 36.5969 12.2769 36.5333 12.5764C36.4697 12.8759 36.5618 13.1873 36.7783 13.4038L43.8758 20.5014C44.0858 20.7114 44.2016 20.9906 44.2016 21.2875C44.2016 21.5845 44.0859 21.8637 43.8758 22.0738L39.2666 26.683C39.0566 26.8931 38.7774 27.0088 38.4804 27.0088C38.1835 27.0088 37.9043 26.8932 37.6942 26.683L30.5966 19.5854C30.3799 19.3689 30.0688 19.2768 29.7692 19.3404C29.4697 19.4041 29.2229 19.615 29.1132 19.9009C27.1511 25.0169 28.3847 30.8238 32.2556 34.6948C35.9421 38.3812 41.413 39.6791 46.3487 38.0843L51.0994 43.2794C50.8711 43.7255 50.5743 44.1415 50.2082 44.5076C48.8388 45.8771 46.7863 46.3085 44.9789 45.6069C44.6448 45.477 44.2658 45.5569 44.0123 45.8103L32.943 56.8796C29.9464 59.8763 29.9464 64.7521 32.943 67.7485C34.3948 69.2006 36.3249 70 38.3778 70C40.4306 70 42.3607 69.2006 43.8123 67.749L54.8816 56.6798C55.1349 56.4264 55.2148 56.0473 55.085 55.7132C54.3834 53.9059 54.8148 51.8532 56.1841 50.4838C57.5538 49.1143 59.6064 48.6829 61.4137 49.3844C61.748 49.5144 62.1268 49.4342 62.3803 49.1811L64.4683 47.093C65.0971 46.4643 65.4432 45.6283 65.4432 44.7392C65.4432 43.8502 65.0971 43.0142 64.4683 42.3855L63.5795 41.4967L64.6608 40.4154L82.9314 56.8947C84.2188 58.0559 84.9525 59.6501 84.9971 61.3832C85.0417 63.1163 84.3911 64.7461 83.1651 65.972C81.945 67.1923 80.3194 67.8418 78.5977 67.8045C76.8725 67.7661 75.2811 67.0435 74.1167 65.7701L60.5318 50.9146C60.1945 50.546 59.623 50.5207 59.2546 50.8576C58.8862 51.1947 58.8606 51.7665 59.1975 52.1349L72.7823 66.9903C74.2831 68.6313 76.334 69.5624 78.5572 69.6121C78.6195 69.6135 78.6816 69.6142 78.7437 69.6142C80.8972 69.6142 82.9151 68.7789 84.4436 67.2505C86.0235 65.6705 86.8618 63.5703 86.8044 61.3367ZM47.2815 36.4252C47.0326 36.1532 46.6438 36.0594 46.2983 36.1883C41.8776 37.8373 36.8669 36.7492 33.534 33.4166C30.5077 30.3902 29.3351 26.0028 30.3684 21.9145L36.4156 27.9617C36.9672 28.5132 37.7004 28.8168 38.4803 28.8168C39.2602 28.8168 39.9935 28.5132 40.545 27.9617L45.1542 23.3524C45.7058 22.8008 46.0094 22.0676 46.0094 21.2877C46.0094 20.5077 45.7058 19.7745 45.1542 19.223L39.1072 13.1756C43.1951 12.1418 47.583 13.3148 50.6092 16.3412C54.0269 19.7587 55.0772 24.8689 53.2852 29.3602C53.1449 29.7115 53.2383 30.1131 53.5193 30.3665L60.0507 36.2575L59.1954 37.1128L58.3066 36.224C57.6779 35.5953 56.8419 35.2491 55.9529 35.2491C55.0638 35.2491 54.2278 35.5953 53.5991 36.224L51.511 38.312C51.2578 38.5654 51.1779 38.9446 51.3076 39.2786C51.5481 39.898 51.6524 40.5459 51.6346 41.1855L47.2815 36.4252ZM63.1896 45.8145L61.4977 47.5065C59.1709 46.8357 56.639 47.472 54.9057 49.2051H54.9056C53.1725 50.9384 52.536 53.47 53.2071 55.7972L42.5338 66.4702C41.4237 67.5804 39.9477 68.1918 38.3779 68.1918C36.8081 68.1918 35.3319 67.5804 34.222 66.4702C31.9303 64.1787 31.9303 60.4499 34.222 58.1583L44.8951 47.4852C47.2221 48.1563 49.7537 47.5195 51.4871 45.7864C53.2202 44.0531 53.8567 41.5215 53.1857 39.1944L54.8777 37.5025C55.4705 36.9095 56.4353 36.9095 57.0281 37.5025L58.5562 39.0306L61.6615 42.1359L63.1896 43.664C63.7826 44.257 63.7826 45.2217 63.1896 45.8145ZM81.1424 15.8394L84.8528 19.5498L81.574 21.2805L79.4117 19.1182L81.1424 15.8394Z" fill="black"/>
<path d="M46.7055 50.8998C46.3523 50.5468 45.7801 50.5468 45.4269 50.8998L36.8629 59.4638C36.5098 59.817 36.5098 60.3892 36.8629 60.7424C37.0394 60.9188 37.271 61.0071 37.5022 61.0071C37.7335 61.0071 37.965 60.9188 38.1415 60.7424L46.7055 52.1784C47.0585 51.8252 47.0585 51.2529 46.7055 50.8998Z" fill="black"/>
<path d="M48.5911 54.064L40.0271 62.6279C39.6741 62.9811 39.6741 63.5534 40.0271 63.9066C40.2037 64.083 40.4351 64.1712 40.6665 64.1712C40.8977 64.1712 41.1292 64.083 41.3058 63.9066L49.8698 55.3427C50.2228 54.9895 50.2228 54.4172 49.8698 54.064C49.5167 53.7111 48.9443 53.7111 48.5911 54.064Z" fill="black"/>
</g>
<defs>
<clipPath id="clip0_197_859">
<rect width="59" height="59" fill="white" transform="translate(28 11)"/>
</clipPath>
</defs>
</svg>
