<svg width="112" height="115" viewBox="0 0 112 115" fill="none" xmlns="http://www.w3.org/2000/svg">
<path d="M106.454 71.992C104.742 75.4383 102.706 78.646 100.413 81.5876C95.5924 87.7818 89.6343 92.7868 83.14 96.3299C71.3828 102.738 57.4659 104.964 44.701 102.182C41.8103 101.549 38.9521 100.616 36.1792 99.4029C26.4789 95.1514 17.795 87.4503 12.2347 77.2014C6.19122 66.0642 -0.132302 48.6571 5.5517 35.7606C6.00558 34.7375 6.53002 33.7418 7.13986 32.7808C14.1233 21.7441 28.0522 29.1618 37.2665 29.67C39.9743 29.8187 41.8778 29.1655 43.3895 27.9072C45.2103 26.3932 46.4659 23.9978 47.8773 21.0561C47.9157 20.9732 47.9569 20.8937 47.998 20.8142C50.6619 15.3909 55.0966 11.0668 60.3681 9.722C67.3695 7.93504 75.4579 11.1254 79.4476 18.2805C81.0713 21.1911 81.9906 24.5542 83.2489 27.703C88.0873 39.801 100.843 38.1694 107.567 47.6992C112.703 54.979 110.093 64.6782 106.454 71.992Z" fill="#EFF2F4"/>
<path d="M58.6878 9.36554V9.8799C63.137 9.8799 67.2203 11.659 70.1849 14.8891C71.6216 16.4546 72.8273 18.3561 73.9932 20.1948C74.5641 21.0956 75.1546 22.0269 75.7692 22.915C79.8793 28.8561 85.5964 29.8632 91.1253 30.8373C95.4468 31.5987 99.9156 32.386 103.586 35.5668C106.429 38.0308 108.102 41.6229 108.558 46.2429C108.924 49.9594 108.511 54.2403 107.33 58.9675C104.496 70.3103 98.2782 80.9573 89.8227 88.9474C79.7206 98.4935 66.6636 104.473 53.9995 105.353C53.0265 105.421 52.0362 105.455 51.0556 105.455C49.1306 105.455 47.1787 105.324 45.2543 105.064C34.6896 103.639 24.921 98.4414 17.7476 90.4281C12.454 84.5145 8.10276 77.8519 5.49484 71.6675C2.00408 63.3893 1.42728 55.8399 3.7804 49.2297C5.22436 45.1736 7.91852 42.4526 12.0169 40.9115C15.6807 39.5336 19.9336 39.2429 24.0462 38.9615C26.937 38.7639 29.6675 38.5771 32.0416 38.0235C38.1059 36.609 39.5115 32.4541 40.9638 26.277C42.4666 19.8854 45.9529 14.7046 50.5284 12.0631C53.0027 10.6348 55.824 9.87962 58.6873 9.87962L58.6878 9.36554ZM58.6873 9.36554C55.773 9.36554 52.8543 10.1266 50.271 11.6179C45.354 14.4562 41.9041 20.0302 40.4629 26.1594C39.0624 32.1161 37.7912 36.1543 31.9246 37.5229C22.8697 39.6349 7.81436 36.3645 3.29544 49.0575C-2.059 64.1002 8.56084 80.9372 17.364 90.7713C24.8722 99.1587 34.8884 104.185 45.1851 105.574C47.137 105.837 49.0984 105.97 51.055 105.97C52.0502 105.97 53.0442 105.936 54.0348 105.867C67.0078 104.965 80.0706 98.8706 90.1758 89.3215C98.4103 81.54 104.854 70.9955 107.828 59.0924C109.861 50.9595 110.407 40.7975 103.922 35.1782C95.4322 27.8206 83.3768 33.0082 76.1917 22.6227C74.3208 19.9185 72.7391 16.9118 70.5635 14.5416C67.3656 11.0565 63.0315 9.36526 58.6873 9.36554Z" fill="#EFF2F4"/>
<path d="M87.2126 18.6374C87.6225 22.311 89.603 25.5014 92.3414 27.3205C97.3268 30.6326 105.275 29.3155 107.629 22.4748C110.328 14.6332 103.207 7.10593 97.0515 6.27825C91.1276 5.48249 86.4628 11.918 87.2126 18.6374Z" fill="#EFF2F4"/>
<path d="M64.8908 100.164C65.3007 103.838 67.2812 107.028 70.0196 108.848C75.005 112.16 82.9536 110.843 85.3076 104.002C88.0059 96.1602 80.8847 88.633 74.7297 87.8053C68.8057 87.0095 64.1412 93.4448 64.8908 100.164Z" fill="#EFF2F4"/>
<path d="M28.2364 21.2159C28.5385 24.2509 31.6014 25.9801 33.9769 25.1023C38.1727 23.552 38.2301 16.0183 33.4161 15.6921C30.7872 15.514 27.9029 17.8632 28.2364 21.2159Z" fill="#EFF2F4"/>
<path d="M87.25 64.5938H72.625L76.2325 19.5L76.915 10.9688L77.5 3.65625H83.5938L84.0325 10.9688L84.5444 19.5L87.25 64.5938Z" fill="#D3E1E9"/>
<path d="M84.5443 19.5H76.2324L76.9149 10.9688H84.0324L84.5443 19.5Z" fill="#EEBE33"/>
<path d="M22.6562 8.53125H71.4062V13.4062H22.6562V8.53125Z" fill="#379EC3"/>
<path d="M23.875 13.4062H70.1875V39H23.875V13.4062Z" fill="#8ACCE7"/>
<path d="M29.9688 17.0625H37.2812V29.25H29.9688V17.0625Z" fill="#379EC3"/>
<path d="M43.375 17.0625H50.6875V29.25H43.375V17.0625Z" fill="#379EC3"/>
<path d="M56.7812 17.0625H64.0938V29.25H56.7812V17.0625Z" fill="#379EC3"/>
<path d="M88.4688 74.3438H22.6562V37.7812L44.5938 23.1562V37.7812L66.5312 23.1562V37.7812L88.4688 23.1562V74.3438Z" fill="#EEDC9A"/>
<path d="M22.6562 49.9688H88.4688V54.8438H22.6562V49.9688Z" fill="#8ACCE7"/>
<path d="M45.8125 62.1562H65.3125V74.3438H45.8125V62.1562Z" fill="#8ACCE7"/>
<path d="M22.6562 41.4375H88.4688V46.3125H22.6562V41.4375Z" fill="#8ACCE7"/>
<path d="M93.3438 64.5938V59.7188H90.599C90.371 58.8358 90.0194 57.9895 89.5547 57.2049L91.4977 55.2619L88.0505 51.8148L86.1076 53.7578C85.323 53.2931 84.4767 52.9415 83.5938 52.7134V49.9688H78.7188V52.7134C77.8358 52.9415 76.9895 53.2931 76.2049 53.7578L74.2619 51.8148L70.8148 55.262L72.7578 57.2049C72.2931 57.9895 71.9415 58.8358 71.7135 59.7188H68.9688V64.5938H71.7135C71.9415 65.4767 72.2931 66.323 72.7578 67.1076L70.8148 69.0506L74.262 72.4977L76.2049 70.5547C76.9895 71.0194 77.8358 71.371 78.7188 71.5991V74.3438H83.5938V71.5991C84.4767 71.371 85.323 71.0194 86.1076 70.5547L88.0506 72.4977L91.4977 69.0505L89.5547 67.1076C90.0194 66.323 90.371 65.4767 90.599 64.5938H93.3438Z" fill="#D3E1E9"/>
<path d="M93.3438 58.5H91.4999C91.3706 58.1352 91.222 57.7776 91.0546 57.4287L92.3595 56.1237C92.4727 56.0106 92.5624 55.8762 92.6237 55.7283C92.6849 55.5805 92.7165 55.422 92.7165 55.262C92.7165 55.1019 92.6849 54.9434 92.6237 54.7956C92.5624 54.6477 92.4727 54.5133 92.3595 54.4002L89.6875 51.7282V23.1562C89.6875 22.9357 89.6276 22.7192 89.5143 22.53C89.4009 22.3407 89.2383 22.1858 89.0438 22.0817C88.8493 21.9777 88.6302 21.9283 88.4099 21.939C88.1896 21.9496 87.9763 22.0199 87.7927 22.1422L85.9958 23.3402L84.8103 3.58328C84.7917 3.27323 84.6554 2.982 84.4293 2.76905C84.2032 2.5561 83.9044 2.43751 83.5938 2.4375H77.5C77.1936 2.4375 76.8984 2.55291 76.6733 2.76075C76.4482 2.96859 76.3096 3.2536 76.2851 3.55903L74.0664 31.2931L71.4062 33.0665V14.625C71.5663 14.625 71.7248 14.5935 71.8727 14.5322C72.0205 14.471 72.1549 14.3812 72.268 14.268C72.3812 14.1549 72.471 14.0205 72.5322 13.8727C72.5935 13.7248 72.625 13.5663 72.625 13.4062V8.53125C72.625 8.3712 72.5935 8.21272 72.5322 8.06485C72.471 7.91698 72.3812 7.78263 72.268 7.66945C72.1549 7.55628 72.0205 7.46651 71.8727 7.40526C71.7248 7.34402 71.5663 7.3125 71.4062 7.3125H22.6562C22.4962 7.3125 22.3377 7.34402 22.1898 7.40526C22.042 7.46651 21.9076 7.55628 21.7945 7.66945C21.6813 7.78263 21.5915 7.91698 21.5303 8.06485C21.469 8.21272 21.4375 8.3712 21.4375 8.53125V13.4062C21.4375 13.5663 21.469 13.7248 21.5303 13.8727C21.5915 14.0205 21.6813 14.1549 21.7945 14.268C21.9076 14.3812 22.042 14.471 22.1898 14.5322C22.3377 14.5935 22.4962 14.625 22.6562 14.625V36.3165L21.9802 36.7672C21.8133 36.8785 21.6764 37.0293 21.5817 37.2062C21.487 37.3831 21.4375 37.5806 21.4375 37.7812V74.3438C21.4375 74.5038 21.469 74.6623 21.5303 74.8102C21.5915 74.958 21.6813 75.0924 21.7945 75.2055C21.9076 75.3187 22.042 75.4085 22.1898 75.4697C22.3377 75.531 22.4962 75.5625 22.6562 75.5625H83.5938C83.7538 75.5625 83.9123 75.531 84.0602 75.4697C84.208 75.4085 84.3424 75.3187 84.4555 75.2055C84.5687 75.0924 84.6585 74.958 84.7197 74.8102C84.781 74.6623 84.8125 74.5038 84.8125 74.3438V72.5C85.1772 72.3706 85.5349 72.2219 85.8838 72.0546L87.1888 73.3595C87.4173 73.588 87.7273 73.7164 88.0506 73.7164C88.3738 73.7164 88.6838 73.588 88.9123 73.3595L92.3595 69.9123C92.4726 69.7992 92.5624 69.6648 92.6237 69.5169C92.6849 69.3691 92.7165 69.2106 92.7165 69.0506C92.7165 68.8905 92.6849 68.732 92.6237 68.5842C92.5624 68.4363 92.4726 68.3019 92.3595 68.1888L91.0546 66.8838C91.222 66.5349 91.3706 66.1773 91.4999 65.8125H93.3438C93.5038 65.8125 93.6623 65.781 93.8102 65.7197C93.958 65.6585 94.0924 65.5687 94.2055 65.4555C94.3187 65.3424 94.4085 65.208 94.4697 65.0602C94.531 64.9123 94.5625 64.7538 94.5625 64.5938V59.7188C94.5625 59.5587 94.531 59.4002 94.4697 59.2523C94.4085 59.1045 94.3187 58.9701 94.2055 58.857C94.0924 58.7438 93.958 58.654 93.8102 58.5928C93.6623 58.5315 93.5038 58.5 93.3438 58.5ZM83.5938 48.75H23.875V47.5312H87.25V50.8977C87.2294 50.9157 87.2085 50.9334 87.1888 50.953L85.8838 52.258C85.5349 52.0906 85.1773 51.9419 84.8125 51.8126V49.9688C84.8125 49.8087 84.781 49.6502 84.7197 49.5023C84.6585 49.3545 84.5687 49.2201 84.4555 49.107C84.3424 48.9938 84.208 48.904 84.0602 48.8428C83.9123 48.7815 83.7538 48.75 83.5938 48.75ZM70.7282 53.625H64.0938V51.1875H73.1657L70.7282 53.625ZM23.875 53.625V51.1875H29.9688V53.625H23.875ZM32.4062 51.1875H47.0312V53.625H32.4062V51.1875ZM49.4688 51.1875H61.6562V53.625H49.4688V51.1875ZM77.5 51.1875V51.8126C77.1352 51.9419 76.7776 52.0906 76.4287 52.258L75.3582 51.1875H77.5ZM87.25 45.0938H81.1562V42.6562H87.25V45.0938ZM78.7188 45.0938H64.0938V42.6562H78.7188V45.0938ZM61.6562 45.0938H49.4688V42.6562H61.6562V45.0938ZM47.0312 45.0938H32.4062V42.6562H47.0312V45.0938ZM29.9688 45.0938H23.875V42.6562H29.9688V45.0938ZM87.25 40.2188H23.875V38.4335L43.375 25.4335V37.7812C43.375 38.0018 43.4349 38.2183 43.5482 38.4075C43.6616 38.5968 43.8242 38.7517 44.0187 38.8558C44.2132 38.9598 44.4323 39.0092 44.6526 38.9985C44.8729 38.9879 45.0862 38.9176 45.2698 38.7953L65.3125 25.4335V37.7812C65.3125 38.0018 65.3724 38.2183 65.4857 38.4075C65.5991 38.5968 65.7617 38.7517 65.9562 38.8558C66.1507 38.9599 66.3698 39.0092 66.5901 38.9986C66.8104 38.9879 67.0237 38.9176 67.2073 38.7953L87.25 25.4335V40.2188ZM36.0625 27.379L35.0842 28.0312H31.1875V18.2812H36.0625V27.379ZM45.1688 22.0817C44.9918 21.9878 44.7942 21.9391 44.5938 21.94V18.2812H49.4688V28.0312H45.8125V23.1562C45.8125 22.9357 45.7526 22.7192 45.6393 22.53C45.5259 22.3407 45.3633 22.1858 45.1688 22.0817ZM62.875 24.129L58 27.379V18.2812H62.875V24.129ZM83.2503 18.2812H77.5527L78.0402 12.1875H82.8847L83.2503 18.2812ZM82.446 4.875L82.7385 9.75H78.2352L78.6252 4.875H82.446ZM77.3577 20.7188H83.3965L83.6477 24.9055L76.6495 29.571L77.3577 20.7188ZM23.875 9.75H70.1875V12.1875H23.875V9.75ZM25.0938 14.625H68.9688V34.6915L67.75 35.504V23.1562C67.75 22.9357 67.6901 22.7192 67.5768 22.53C67.4634 22.3407 67.3008 22.1858 67.1063 22.0817C66.9118 21.9777 66.6927 21.9283 66.4724 21.939C66.2521 21.9496 66.0388 22.0199 65.8552 22.1422L65.3125 22.504V17.0625C65.3125 16.9025 65.281 16.744 65.2197 16.5961C65.1585 16.4482 65.0687 16.3139 64.9555 16.2007C64.8424 16.0875 64.708 15.9978 64.5602 15.9365C64.4123 15.8753 64.2538 15.8437 64.0938 15.8438H56.7812C56.6212 15.8437 56.4627 15.8753 56.3148 15.9365C56.167 15.9978 56.0326 16.0875 55.9195 16.2007C55.8063 16.3139 55.7165 16.4482 55.6553 16.5961C55.594 16.744 55.5625 16.9025 55.5625 17.0625V29.004L45.8125 35.504V30.4688H50.6875C50.8475 30.4688 51.006 30.4372 51.1539 30.376C51.3018 30.3147 51.4361 30.225 51.5493 30.1118C51.6625 29.9986 51.7522 29.8643 51.8135 29.7164C51.8747 29.5685 51.9063 29.41 51.9062 29.25V17.0625C51.9063 16.9025 51.8747 16.744 51.8135 16.5961C51.7522 16.4482 51.6625 16.3139 51.5493 16.2007C51.4361 16.0875 51.3018 15.9978 51.1539 15.9365C51.006 15.8753 50.8475 15.8437 50.6875 15.8438H43.375C43.215 15.8437 43.0565 15.8753 42.9086 15.9365C42.7607 15.9978 42.6264 16.0875 42.5132 16.2007C42.4 16.3139 42.3103 16.4482 42.249 16.5961C42.1878 16.744 42.1562 16.9025 42.1562 17.0625V23.3165L38.5 25.754V17.0625C38.5 16.9025 38.4685 16.744 38.4072 16.5961C38.346 16.4482 38.2562 16.3139 38.143 16.2007C38.0299 16.0875 37.8955 15.9978 37.7477 15.9365C37.5998 15.8753 37.4413 15.8437 37.2812 15.8438H29.9688C29.8087 15.8437 29.6502 15.8753 29.5023 15.9365C29.3545 15.9978 29.2201 16.0875 29.107 16.2007C28.9938 16.3139 28.904 16.4482 28.8428 16.5961C28.7815 16.744 28.75 16.9025 28.75 17.0625V29.25C28.75 29.41 28.7815 29.5685 28.8428 29.7164C28.904 29.8643 28.9938 29.9986 29.107 30.1118C29.2201 30.225 29.3545 30.3147 29.5023 30.376C29.6502 30.4372 29.8087 30.4688 29.9688 30.4688H31.4279L25.0938 34.6915V14.625ZM23.875 56.0625H69.8977C69.9157 56.0831 69.9334 56.104 69.953 56.1237L71.2579 57.4287C71.0905 57.7776 70.9419 58.1352 70.8126 58.5H68.9688C68.8087 58.5 68.6502 58.5315 68.5023 58.5928C68.3545 58.654 68.2201 58.7438 68.107 58.857C67.9938 58.9701 67.904 59.1045 67.8428 59.2523C67.7815 59.4002 67.75 59.5587 67.75 59.7188V64.5938C67.75 64.7538 67.7815 64.9123 67.8428 65.0602C67.904 65.208 67.9938 65.3424 68.107 65.4555C68.2201 65.5687 68.3545 65.6585 68.5023 65.7197C68.6502 65.781 68.8087 65.8125 68.9688 65.8125H70.8126C70.9419 66.1773 71.0905 66.5349 71.2579 66.8838L69.953 68.1888C69.8398 68.3019 69.7501 68.4363 69.6888 68.5842C69.6276 68.732 69.596 68.8905 69.596 69.0506C69.596 69.2106 69.6276 69.3691 69.6888 69.5169C69.7501 69.6648 69.8398 69.7992 69.953 69.9123L73.1657 73.125H66.5312V62.1562C66.5313 61.9962 66.4997 61.8377 66.4385 61.6898C66.3772 61.542 66.2875 61.4076 66.1743 61.2945C66.0611 61.1813 65.9268 61.0915 65.7789 61.0303C65.631 60.969 65.4725 60.9375 65.3125 60.9375H45.8125C45.6525 60.9375 45.494 60.969 45.3461 61.0303C45.1982 61.0915 45.0639 61.1813 44.9507 61.2945C44.8375 61.4076 44.7478 61.542 44.6865 61.6898C44.6253 61.8377 44.5937 61.9962 44.5938 62.1562V73.125H23.875V56.0625ZM77.5 73.125H75.3582L76.4287 72.0546C76.7777 72.2219 77.1353 72.3706 77.5 72.5V73.125ZM53.125 63.375H58V73.125H53.125V63.375ZM50.6875 73.125H47.0312V63.375H50.6875V73.125ZM60.4375 63.375H64.0938V73.125H60.4375V63.375ZM92.125 63.375H90.599C90.3287 63.375 90.066 63.4649 89.8523 63.6306C89.6386 63.7962 89.4861 64.0282 89.4187 64.29C89.2193 65.0619 88.9118 65.8017 88.5054 66.4876C88.3679 66.7204 88.3117 66.9923 88.3456 67.2606C88.3796 67.5288 88.5018 67.7782 88.693 67.9693L89.7742 69.0506L88.0506 70.7742L86.9693 69.693C86.7782 69.5018 86.5288 69.3796 86.2606 69.3456C85.9923 69.3117 85.7204 69.3679 85.4876 69.5054C84.8017 69.9118 84.0618 70.2192 83.29 70.4188C83.0281 70.4862 82.7962 70.6387 82.6305 70.8524C82.4649 71.0661 82.375 71.3288 82.375 71.5991V73.125H79.9375V71.5991C79.9375 71.3288 79.8476 71.0661 79.682 70.8524C79.5163 70.6387 79.2844 70.4862 79.0225 70.4188C78.2507 70.2192 77.5108 69.9118 76.8249 69.5054C76.5921 69.368 76.3202 69.3118 76.0519 69.3457C75.7837 69.3797 75.5344 69.5018 75.3432 69.693L74.262 70.7742L72.5383 69.0506L73.6195 67.9693C73.8107 67.7782 73.9329 67.5288 73.9669 67.2606C74.0008 66.9923 73.9446 66.7204 73.8071 66.4876C73.4007 65.8017 73.0932 65.0619 72.8938 64.29C72.8264 64.0282 72.6739 63.7962 72.4602 63.6306C72.2465 63.4649 71.9838 63.375 71.7135 63.375H70.1875V60.9375H71.7135C71.9838 60.9375 72.2465 60.8476 72.4602 60.6819C72.6739 60.5163 72.8264 60.2843 72.8938 60.0225C73.0933 59.2506 73.4007 58.5108 73.8071 57.8249C73.9446 57.5921 74.0008 57.3202 73.9669 57.0519C73.9329 56.7837 73.8107 56.5343 73.6195 56.3432L72.5383 55.262L74.262 53.5383L75.3432 54.6195C75.5343 54.8108 75.7837 54.933 76.0519 54.9669C76.3202 55.0009 76.5921 54.9446 76.8249 54.8071C77.5108 54.4008 78.2507 54.0933 79.0225 53.8938C79.2844 53.8264 79.5163 53.6738 79.682 53.4602C79.8476 53.2465 79.9375 52.9838 79.9375 52.7135V51.1875H82.375V52.7135C82.375 52.9838 82.4649 53.2465 82.6305 53.4602C82.7962 53.6738 83.0281 53.8264 83.29 53.8938C84.0618 54.0933 84.8017 54.4008 85.4876 54.8071C85.7204 54.9447 85.9923 55.0009 86.2606 54.967C86.5288 54.933 86.7782 54.8108 86.9693 54.6195L88.0506 53.5383L89.7742 55.262L88.693 56.3432C88.5018 56.5343 88.3796 56.7837 88.3456 57.0519C88.3117 57.3202 88.3679 57.5921 88.5054 57.8249C88.9118 58.5108 89.2192 59.2506 89.4187 60.0225C89.4861 60.2843 89.6386 60.5163 89.8523 60.6819C90.066 60.8476 90.3287 60.9375 90.599 60.9375H92.125V63.375Z" fill="black"/>
<path d="M80.3587 58.5887L80.0662 59.1737L82.2463 60.2638L83.4651 57.8263C83.5497 57.657 83.5938 57.4704 83.5938 57.2812C83.5938 57.092 83.5497 56.9054 83.4651 56.7362L82.2463 54.2987L80.0662 55.3888L80.4257 56.1078C79.4254 56.2286 78.4706 56.5956 77.6469 57.1759C76.8231 57.7562 76.1561 58.5317 75.7056 59.433C75.2551 60.3342 75.035 61.3332 75.0652 62.3403C75.0954 63.3475 75.3749 64.3314 75.8786 65.2041L77.9884 63.9834C77.702 63.4864 77.5366 62.929 77.5054 62.3563C77.4742 61.7836 77.5782 61.2116 77.8089 60.6865C78.0397 60.1613 78.3907 59.6978 78.8336 59.3334C79.2765 58.969 79.799 58.7139 80.3587 58.5887Z" fill="black"/>
<path d="M84.3242 60.3291C84.6105 60.8261 84.776 61.3834 84.8071 61.9562C84.8383 62.5289 84.7343 63.1009 84.5036 63.626C84.2728 64.1511 83.9218 64.6146 83.4789 64.9791C83.036 65.3435 82.5135 65.5986 81.9538 65.7238L82.2463 65.1388L80.0662 64.0487L78.8475 66.4862C78.7628 66.6554 78.7188 66.842 78.7188 67.0312C78.7188 67.2205 78.7628 67.4071 78.8475 67.5763L80.0662 70.0138L82.2463 68.9237L81.8868 68.2047C82.8872 68.0838 83.8419 67.7169 84.6657 67.1366C85.4894 66.5563 86.1564 65.7808 86.6069 64.8795C87.0575 63.9783 87.2775 62.9793 87.2473 61.9722C87.2171 60.965 86.9376 59.9811 86.4339 59.1084L84.3242 60.3291Z" fill="black"/>
</svg>
