<svg width="113" height="117" viewBox="0 0 113 117" fill="none" xmlns="http://www.w3.org/2000/svg">
<path d="M106.954 73.992C105.242 77.4383 103.206 80.646 100.913 83.5876C96.0924 89.7818 90.1343 94.7868 83.64 98.3299C71.8828 104.738 57.9659 106.964 45.201 104.182C42.3103 103.549 39.4521 102.616 36.6792 101.403C26.9789 97.1514 18.295 89.4503 12.7347 79.2014C6.69122 68.0642 0.367698 50.6571 6.0517 37.7606C6.50558 36.7375 7.03002 35.7418 7.63986 34.7808C14.6233 23.7441 28.5522 31.1618 37.7665 31.67C40.4743 31.8187 42.3778 31.1655 43.8895 29.9072C45.7103 28.3932 46.9659 25.9978 48.3773 23.0561C48.4157 22.9732 48.4569 22.8937 48.498 22.8142C51.1619 17.3909 55.5966 13.0668 60.8681 11.722C67.8695 9.93504 75.9579 13.1254 79.9476 20.2805C81.5713 23.1911 82.4906 26.5542 83.7489 29.703C88.5873 41.801 101.343 40.1694 108.067 49.6992C113.203 56.979 110.593 66.6782 106.954 73.992Z" fill="#EFF2F4"/>
<path d="M59.1878 11.3655V11.8799C63.637 11.8799 67.7203 13.659 70.6849 16.8891C72.1216 18.4546 73.3273 20.3561 74.4932 22.1948C75.0641 23.0956 75.6546 24.0269 76.2692 24.915C80.3793 30.8561 86.0964 31.8632 91.6253 32.8373C95.9468 33.5987 100.416 34.386 104.086 37.5668C106.929 40.0308 108.602 43.6229 109.058 48.2429C109.424 51.9594 109.011 56.2403 107.83 60.9675C104.996 72.3103 98.7782 82.9573 90.3227 90.9474C80.2206 100.493 67.1636 106.473 54.4995 107.353C53.5265 107.421 52.5362 107.455 51.5556 107.455C49.6306 107.455 47.6787 107.324 45.7543 107.064C35.1896 105.639 25.421 100.441 18.2476 92.4281C12.954 86.5145 8.60276 79.8519 5.99484 73.6675C2.50408 65.3893 1.92728 57.8399 4.2804 51.2297C5.72436 47.1736 8.41852 44.4526 12.5169 42.9115C16.1807 41.5336 20.4336 41.2429 24.5462 40.9615C27.437 40.7639 30.1675 40.5771 32.5416 40.0235C38.6059 38.609 40.0115 34.4541 41.4638 28.277C42.9666 21.8854 46.4529 16.7046 51.0284 14.0631C53.5027 12.6348 56.324 11.8796 59.1873 11.8796L59.1878 11.3655ZM59.1873 11.3655C56.273 11.3655 53.3543 12.1266 50.771 13.6179C45.854 16.4562 42.4041 22.0302 40.9629 28.1594C39.5624 34.1161 38.2912 38.1543 32.4246 39.5229C23.3697 41.6349 8.31436 38.3645 3.79544 51.0575C-1.559 66.1002 9.06084 82.9372 17.864 92.7713C25.3722 101.159 35.3884 106.185 45.6851 107.574C47.637 107.837 49.5984 107.97 51.555 107.97C52.5502 107.97 53.5442 107.936 54.5348 107.867C67.5078 106.965 80.5706 100.871 90.6758 91.3215C98.9103 83.54 105.354 72.9955 108.328 61.0924C110.361 52.9595 110.907 42.7975 104.422 37.1782C95.9322 29.8206 83.8768 35.0082 76.6917 24.6227C74.8208 21.9185 73.2391 18.9118 71.0635 16.5416C67.8656 13.0565 63.5315 11.3653 59.1873 11.3655Z" fill="#EFF2F4"/>
<path d="M87.7126 20.6374C88.1225 24.311 90.103 27.5014 92.8414 29.3205C97.8268 32.6326 105.775 31.3155 108.129 24.4748C110.828 16.6332 103.707 9.10593 97.5515 8.27825C91.6276 7.48249 86.9628 13.918 87.7126 20.6374Z" fill="#EFF2F4"/>
<path d="M65.3908 102.164C65.8007 105.838 67.7812 109.028 70.5196 110.848C75.505 114.16 83.4536 112.843 85.8076 106.002C88.5059 98.1602 81.3847 90.633 75.2297 89.8053C69.3057 89.0095 64.6412 95.4448 65.3908 102.164Z" fill="#EFF2F4"/>
<path d="M28.7364 23.2159C29.0385 26.2509 32.1014 27.9801 34.4769 27.1023C38.6727 25.552 38.7301 18.0183 33.9161 17.6921C31.2872 17.514 28.4029 19.8632 28.7364 23.2159Z" fill="#EFF2F4"/>
<path d="M97.9807 79.9026C97.6216 79.1316 97.0563 77.6388 96.6593 76.5625L96.0808 76.4316L91.752 77.7327C92.0754 77.9555 92.6713 78.3677 92.6765 78.3835C92.6838 78.4052 93.1361 78.4668 93.1361 78.4668L94.9363 83.4428L96.1225 84.0303C97.8606 83.5059 98.7524 81.559 97.9807 79.9026Z" fill="#5291D9"/>
<path d="M91.15 85.3948L96.0476 84.0531C96.1028 84.0379 96.1572 84.0213 96.2108 84.0034C95.278 83.6037 94.9222 82.7473 94.9222 82.7473L93.1763 78.4558C92.8081 78.3306 92.4797 77.9729 92.2195 77.5922L87.3096 79.068L86.8853 79.8381C87.3772 81.2696 87.9964 83.0511 88.3452 83.9702C88.773 85.0973 89.9872 85.7135 91.15 85.3948Z" fill="#0972D0"/>
<path d="M78.7898 29.2353V32.1629L86.3274 62.2789L91.548 77.5922C91.548 77.5922 92.6695 78.3618 92.6768 78.3835C92.6841 78.4052 93.1363 78.4668 93.1363 78.4668L94.5151 78.089C96.7896 77.4659 97.9708 74.946 96.9749 72.8081C95.1153 68.8163 92.6033 61.6867 91.5047 50.7736C89.6545 32.3938 82.3764 17.2211 82.3764 17.2211L79.8281 18.7346L77.332 28.2914L78.7898 29.2353Z" fill="#8BCAFF"/>
<path d="M93.176 78.4558C92.2704 78.1478 91.6046 76.4316 91.6046 76.4316C91.6046 76.4316 88.606 68.5368 85.4771 54.7173C82.3482 40.8981 77.8842 26.1752 77.8842 26.1752L76.3316 32.1195L75.3237 47.3482L77.3184 51.1465C79.1181 62.4168 82.9114 73.2345 84.7145 77.9836C85.259 79.4176 86.8038 80.2016 88.2832 79.7962L93.176 78.4558Z" fill="#60B9FE"/>
<path d="M26.2556 78.7819L26.6947 79.1709L26.2122 79.412L24.8687 82.8669V84.6594L25.3197 85.1781L26.111 85.3949C27.2737 85.7135 28.4879 85.0973 28.9157 83.9702C29.2646 83.0511 29.8838 81.2696 30.3757 79.8381V79.2563L26.083 77.9733L26.2556 78.7819Z" fill="#5291D9"/>
<path d="M20.6017 76.5625C20.2047 77.6388 19.6394 79.1317 19.2802 79.9026C18.4975 81.5828 19.4257 83.5633 21.2135 84.0531L25.3201 85.1781C24.9719 83.9062 25.3905 82.5589 25.3905 82.5589L26.695 79.1708C26.5198 78.8395 26.4371 78.4607 26.4138 78.072L21.3634 76.5625H20.6017Z" fill="#0972D0"/>
<path d="M74.3088 80.3572H48.7559V85.2896L49.9509 86.7889L51.4234 87.3924C53.209 87.3924 55.2454 87.3924 57.3265 87.3924L58.1427 86.8758H59.2508L59.934 87.3924C65.7779 87.3924 71.2793 87.3924 71.8178 87.3924C73.7543 87.3924 75.324 85.8226 75.324 83.8863V80.9852L74.3088 80.3572Z" fill="#5291D9"/>
<path d="M48.9892 83.8862V80.9852L49.574 80.3572H42.5218L41.937 80.9852V83.8862C41.937 85.8227 43.5067 87.3923 45.4431 87.3923C45.828 87.3923 48.7382 87.3923 52.4953 87.3923C50.5589 87.3925 48.9892 85.8227 48.9892 83.8862Z" fill="#0972D0"/>
<path d="M38.4854 26.5859L38.1669 27.7174L34.8845 32.3183L31.4161 48.562L29.501 63.4465L25.7817 76.5624L26.2556 78.7819L26.6947 79.1709L28.9772 79.7964C30.4567 80.2017 32.0014 79.4176 32.546 77.9837C34.3489 73.2346 38.1422 62.4169 39.9419 51.1467L40.9287 46.7213V38.0298L38.946 26.1754L38.4854 26.5859Z" fill="#8BCAFF"/>
<path d="M32.0246 55.9341C33.1545 44.4614 38.1669 27.7172 38.1669 27.7172L39.072 26.9267L38.0217 20.6467L34.8846 17.2211C34.8846 17.2211 27.6067 32.3938 25.7563 50.7736C24.6577 61.6867 22.1457 68.8163 20.2861 72.8081C19.2902 74.9458 20.4712 77.4659 22.7459 78.089L26.6948 79.1709C25.9063 77.6804 26.9836 75.2294 26.9836 75.2294C26.9836 75.2294 30.8947 67.4069 32.0246 55.9341Z" fill="#60B9FE"/>
<path d="M82.3764 17.2211L74.6674 13.5722L73.715 13.2011H51.2386L50.9071 14.7148L51.5792 15.8863L50.1032 16.2358L38.4856 26.586L38.1672 27.7174L38.167 27.7176C40.352 38.0433 39.9423 47.6898 39.9423 47.6898V77.57C39.9423 79.7378 41.6997 81.4951 43.8676 81.4951C45.165 81.4951 72.0989 81.4951 73.3937 81.4951C75.5615 81.4951 77.3188 79.7376 77.3188 77.57V47.6898C77.3188 47.6898 76.5788 30.2967 82.3764 17.2211Z" fill="#60B9FE"/>
<path d="M44.009 13.2011L42.5937 13.5722L34.8848 17.2211C36.3647 20.5589 37.418 24.178 38.167 27.7175L38.1672 27.7171L51.6524 15.9382C51.3423 14.7873 51.5033 13.8943 51.9018 13.2011H44.009Z" fill="#1CA8FF"/>
<path d="M58.6302 1C56.158 1 54.0093 1.26022 52.1631 1.65863V2.48154L57.3263 7.08798L63.0705 12.1323L68.3547 9.60849L72.5265 6.62438L73.2514 5.19743C71.5428 3.87894 66.8703 1 58.6302 1Z" fill="#60B9FE"/>
<path d="M59.7477 7.6378C58.7292 6.68956 57.5507 5.79939 56.1884 5.02811C54.358 3.99193 53.0666 2.83301 52.1634 1.65863C47.8559 2.58809 45.2052 4.27457 44.0093 5.1976L44.4538 6.16095L47.4088 8.91317L55.5788 12.1799L56.9115 17.2209L58.6307 19.2563L59.9342 18.0101L62.5321 12.3897L63.1186 12.1097C62.2758 10.4594 61.1477 8.94133 59.7477 7.6378Z" fill="#1CA8FF"/>
<path d="M54.8693 11.1475L53.6953 11.1298L51.4065 12.4335L50.9067 14.715L51.5788 15.8864C56.4007 19.3084 58.6301 19.2566 58.6301 19.2566C58.6303 16.0978 57.2367 13.1192 54.8693 11.1475Z" fill="#8BCAFF"/>
<path d="M54.8691 11.1474C54.3 10.6734 53.6752 10.2569 52.9994 9.9108C52.217 9.51013 51.347 9.17238 50.386 8.93875C47.8289 8.3168 46.472 7.03777 45.7539 5.80863C45.1936 4.84979 43.7966 4.87622 43.2527 5.84444L41.614 8.21963C39.8599 10.762 41.6759 14.2534 44.7646 14.2348C47.2389 14.2198 49.7776 14.6083 51.5787 15.8865C51.6035 15.904 51.6272 15.9202 51.6519 15.9378C50.8192 12.8452 53.3689 11.6021 54.8691 11.1474Z" fill="#60B9FE"/>
<path d="M64.261 9.91079C65.0434 9.51012 65.9133 9.17237 66.8742 8.93857C69.4315 8.31661 70.7883 7.03759 71.5065 5.80845C72.0668 4.84961 73.4638 4.87603 74.0077 5.84426L75.6464 8.21944C77.4005 10.7619 75.5845 14.2532 72.4958 14.2346C70.0215 14.2196 67.4827 14.6081 65.6817 15.8863C60.8599 19.3083 58.6304 19.2565 58.6304 19.2565C58.6304 15.3384 60.7737 11.6964 64.261 9.91079Z" fill="#8BCAFF"/>
<path d="M52.9994 9.91079C52.217 9.51012 51.3471 9.17237 50.3862 8.93857C47.8289 8.31661 46.4721 7.03759 45.7539 5.80845C45.1936 4.84961 43.7966 4.87603 43.2527 5.84426L41.614 8.21944C39.8599 10.7619 41.6759 14.2532 44.7646 14.2346C47.2389 14.2196 49.7776 14.6081 51.5787 15.8863C56.4005 19.3083 58.63 19.2565 58.63 19.2565C58.63 15.3384 56.4867 11.6964 52.9994 9.91079Z" stroke="black" stroke-width="2" stroke-miterlimit="10" stroke-linecap="round" stroke-linejoin="round"/>
<path d="M34.8846 17.2211C34.8846 17.2211 27.6067 32.3938 25.7563 50.7736C24.6577 61.6867 22.1457 68.8163 20.2861 72.8081C19.2902 74.9458 20.4712 77.4659 22.7459 78.089L28.9776 79.7962C30.457 80.2016 32.0018 79.4174 32.5463 77.9833C34.3492 73.2343 38.1425 62.4166 39.9422 51.1463V47.6896C39.9422 47.6896 40.6824 30.2967 34.8846 17.2211Z" stroke="black" stroke-width="2" stroke-miterlimit="10" stroke-linecap="round" stroke-linejoin="round"/>
<path d="M28.9771 79.7962L22.7455 78.0891C21.8298 77.8382 21.0917 77.2795 20.6012 76.5625C20.2042 77.6388 19.6389 79.1317 19.2797 79.9026C18.497 81.5828 19.4252 83.5633 21.2131 84.0531L26.1107 85.3949C27.2734 85.7135 28.4876 85.0973 28.9154 83.9702C29.2643 83.0512 29.8834 81.2696 30.3754 79.8381C29.9257 79.9327 29.4482 79.9254 28.9771 79.7962Z" stroke="black" stroke-width="2" stroke-miterlimit="10" stroke-linecap="round" stroke-linejoin="round"/>
<path d="M64.2608 9.91079C65.0432 9.51012 65.9131 9.17237 66.8742 8.93857C69.4314 8.31661 70.7883 7.03759 71.5065 5.80845C72.0668 4.84961 73.4638 4.87603 74.0077 5.84426L75.6464 8.21944C77.4005 10.7619 75.5845 14.2532 72.4958 14.2346C70.0215 14.2196 67.4827 14.6081 65.6817 15.8863C60.8599 19.3083 58.6304 19.2565 58.6304 19.2565C58.6302 15.3384 60.7735 11.6964 64.2608 9.91079Z" stroke="black" stroke-width="2" stroke-miterlimit="10" stroke-linecap="round" stroke-linejoin="round"/>
<path d="M82.3758 17.2211C82.3758 17.2211 89.6537 32.3938 91.5041 50.7736C92.6027 61.6867 95.1147 68.8163 96.9743 72.8081C97.9702 74.9458 96.7892 77.4659 94.5145 78.089L88.2829 79.7962C86.8034 80.2016 85.2586 79.4174 84.7141 77.9833C82.9112 73.2343 79.1179 62.4166 77.3182 51.1463V47.6896C77.3182 47.6896 76.5781 30.2967 82.3758 17.2211Z" stroke="black" stroke-width="2" stroke-miterlimit="10" stroke-linecap="round" stroke-linejoin="round"/>
<path d="M88.283 79.7962L94.5146 78.0891C95.4303 77.8382 96.1684 77.2795 96.6589 76.5625C97.056 77.6388 97.6213 79.1317 97.9804 79.9026C98.7631 81.5828 97.8349 83.5633 96.0471 84.0531L91.1495 85.3949C89.9867 85.7135 88.7725 85.0973 88.3447 83.9702C87.9959 83.0512 87.3767 81.2696 86.8848 79.8381C87.3346 79.9327 87.812 79.9254 88.283 79.7962Z" stroke="black" stroke-width="2" stroke-miterlimit="10" stroke-linecap="round" stroke-linejoin="round"/>
<path d="M52.9561 17.2211V32.5788" stroke="black" stroke-width="2" stroke-miterlimit="10" stroke-linecap="round" stroke-linejoin="round"/>
<path d="M58.6299 17.2207V86.9425" stroke="black" stroke-width="2" stroke-miterlimit="10" stroke-linecap="round" stroke-linejoin="round"/>
<path d="M64.3047 17.2211V32.5788" stroke="black" stroke-width="2" stroke-miterlimit="10" stroke-linecap="round" stroke-linejoin="round"/>
<path d="M64.261 9.91085C65.0434 9.51017 65.9132 9.17242 66.8743 8.93862C69.4315 8.31666 70.7884 7.03762 71.5067 5.80847C71.8823 5.16565 72.6333 4.96783 73.2518 5.19763C71.543 3.87896 66.8703 1 58.6303 1C50.3902 1 45.7175 3.87896 44.0088 5.19763C44.6273 4.96783 45.3784 5.16565 45.7539 5.80847C46.4721 7.03762 47.8289 8.31648 50.3862 8.93862C51.3472 9.17242 52.217 9.51017 52.9994 9.91085C56.4868 11.6964 58.6301 15.3385 58.6301 19.2566C58.6303 15.3385 60.7736 11.6964 64.261 9.91085Z" stroke="black" stroke-width="2" stroke-miterlimit="10" stroke-linecap="round" stroke-linejoin="round"/>
<path d="M67.3208 59.7672L71.4927 67.1259" stroke="black" stroke-width="2" stroke-miterlimit="10" stroke-linecap="round" stroke-linejoin="round"/>
<path d="M49.9395 59.7672L45.7676 67.1259" stroke="black" stroke-width="2" stroke-miterlimit="10" stroke-linecap="round" stroke-linejoin="round"/>
<path d="M53.9377 87.3925C61.3781 87.3925 71.0929 87.3925 71.8178 87.3925C73.7542 87.3925 75.3239 85.8227 75.3239 83.8864V80.9854C74.7536 81.3085 74.0958 81.4952 73.3935 81.4952C72.0987 81.4952 45.1649 81.4952 43.8674 81.4952C43.1651 81.4952 42.5073 81.3085 41.937 80.9854V83.8864C41.937 85.8229 43.5067 87.3925 45.4432 87.3925C45.6431 87.3925 46.5254 87.3925 47.8538 87.3925" stroke="black" stroke-width="2" stroke-miterlimit="10" stroke-linecap="round" stroke-linejoin="round"/>
<path d="M77.3183 69.5641V47.6897C77.3183 47.6897 76.5781 30.2967 82.3759 17.2211L74.6669 13.5722C74.0647 13.9889 73.327 14.2397 72.4956 14.2347C70.0213 14.2197 67.4825 14.6082 65.6815 15.8864C60.8596 19.3084 58.6301 19.2566 58.6301 19.2566C58.6301 19.2566 56.4005 19.3084 51.5787 15.8864C49.7776 14.6082 47.2389 14.2197 44.7646 14.2347C43.9333 14.2397 43.1954 13.9889 42.5933 13.5722L34.8843 17.2211C40.682 30.2967 39.9418 47.6897 39.9418 47.6897V77.57C39.9418 79.7378 41.6993 81.495 43.8671 81.495C45.1646 81.495 72.0984 81.495 73.3932 81.495C75.5611 81.495 77.3185 79.7376 77.3185 77.57V75.6481" stroke="black" stroke-width="2" stroke-miterlimit="10" stroke-linecap="round" stroke-linejoin="round"/>
</svg>
