<svg width="112" height="112" viewBox="0 0 112 112" fill="none" xmlns="http://www.w3.org/2000/svg">
<path d="M106.454 68.992C104.742 72.4383 102.706 75.646 100.413 78.5876C95.5924 84.7818 89.6343 89.7868 83.14 93.3299C71.3828 99.7383 57.4659 101.964 44.701 99.1819C41.8103 98.5494 38.9521 97.6161 36.1792 96.4029C26.4789 92.1514 17.795 84.4503 12.2347 74.2014C6.19122 63.0642 -0.132302 45.6571 5.5517 32.7606C6.00558 31.7375 6.53002 30.7418 7.13986 29.7808C14.1233 18.7441 28.0522 26.1618 37.2665 26.67C39.9743 26.8187 41.8778 26.1655 43.3895 24.9072C45.2103 23.3932 46.4659 20.9978 47.8773 18.0561C47.9157 17.9732 47.9569 17.8937 47.998 17.8142C50.6619 12.3909 55.0966 8.06684 60.3681 6.722C67.3695 4.93504 75.4579 8.12536 79.4476 15.2805C81.0713 18.1911 81.9906 21.5542 83.2489 24.703C88.0873 36.801 100.843 35.1694 107.567 44.6992C112.703 51.979 110.093 61.6782 106.454 68.992Z" fill="#EFF2F4"/>
<path d="M58.6878 6.36554V6.8799C63.137 6.8799 67.2203 8.65902 70.1849 11.8891C71.6216 13.4546 72.8273 15.3561 73.9932 17.1948C74.5641 18.0956 75.1546 19.0269 75.7692 19.915C79.8793 25.8561 85.5964 26.8632 91.1253 27.8373C95.4468 28.5987 99.9156 29.386 103.586 32.5668C106.429 35.0308 108.102 38.6229 108.558 43.2429C108.924 46.9594 108.511 51.2403 107.33 55.9675C104.496 67.3103 98.2782 77.9573 89.8227 85.9474C79.7206 95.4935 66.6636 101.473 53.9995 102.353C53.0265 102.421 52.0362 102.455 51.0556 102.455C49.1306 102.455 47.1787 102.324 45.2543 102.064C34.6896 100.639 24.921 95.4414 17.7476 87.4281C12.454 81.5145 8.10276 74.8519 5.49484 68.6675C2.00408 60.3893 1.42728 52.8399 3.7804 46.2297C5.22436 42.1736 7.91852 39.4526 12.0169 37.9115C15.6807 36.5336 19.9336 36.2429 24.0462 35.9615C26.937 35.7639 29.6675 35.5771 32.0416 35.0235C38.1059 33.609 39.5115 29.4541 40.9638 23.277C42.4666 16.8854 45.9529 11.7046 50.5284 9.06306C53.0027 7.63478 55.824 6.87962 58.6873 6.87962L58.6878 6.36554ZM58.6873 6.36554C55.773 6.36554 52.8543 7.12658 50.271 8.61786C45.354 11.4562 41.9041 17.0302 40.4629 23.1594C39.0624 29.1161 37.7912 33.1543 31.9246 34.5229C22.8697 36.6349 7.81436 33.3645 3.29544 46.0575C-2.059 61.1002 8.56084 77.9372 17.364 87.7713C24.8722 96.1587 34.8884 101.185 45.1851 102.574C47.137 102.837 49.0984 102.97 51.055 102.97C52.0502 102.97 53.0442 102.936 54.0348 102.867C67.0078 101.965 80.0706 95.8706 90.1758 86.3215C98.4103 78.54 104.854 67.9955 107.828 56.0924C109.861 47.9595 110.407 37.7975 103.922 32.1782C95.4322 24.8206 83.3768 30.0082 76.1917 19.6227C74.3208 16.9185 72.7391 13.9118 70.5635 11.5416C67.3656 8.05646 63.0315 6.36526 58.6873 6.36554Z" fill="#EFF2F4"/>
<path d="M87.2126 15.6374C87.6225 19.311 89.603 22.5014 92.3414 24.3205C97.3268 27.6326 105.275 26.3155 107.629 19.4748C110.328 11.6332 103.207 4.10593 97.0515 3.27825C91.1276 2.48249 86.4628 8.91801 87.2126 15.6374Z" fill="#EFF2F4"/>
<path d="M64.8908 97.1645C65.3007 100.838 67.2812 104.028 70.0196 105.848C75.005 109.16 82.9536 107.843 85.3076 101.002C88.0059 93.1602 80.8847 85.633 74.7297 84.8053C68.8057 84.0095 64.1412 90.4448 64.8908 97.1645Z" fill="#EFF2F4"/>
<path d="M28.2364 18.2159C28.5385 21.2509 31.6014 22.9801 33.9769 22.1023C38.1727 20.552 38.2301 13.0183 33.4161 12.6921C30.7872 12.514 27.9029 14.8632 28.2364 18.2159Z" fill="#EFF2F4"/>
<mask id="mask0_26_493" style="mask-type:luminance" maskUnits="userSpaceOnUse" x="20" y="2" width="83" height="83">
<path d="M20 2.00001H103V85H20V2.00001Z" fill="white"/>
</mask>
<g mask="url(#mask0_26_493)">
<path d="M45.2351 58.6935C45.2351 60.7777 43.5375 62.4732 41.451 62.4732C39.3645 62.4732 37.6669 60.7777 37.6669 58.6935V53.4862C38.8177 53.7371 40.0115 53.8735 41.2365 53.8804C42.6117 53.8884 43.9504 53.735 45.2351 53.4395V58.6935ZM56.1524 23.9473C54.7488 23.9473 53.6108 25.0838 53.6108 26.4859V36.5453C53.6108 43.3448 48.0394 48.869 41.2169 48.803C34.4605 48.7375 29.0652 43.1378 29.0652 36.3888V26.4859C29.0652 25.0838 27.9274 23.9473 26.5236 23.9473C25.1199 23.9473 23.9819 25.0838 23.9819 26.4859V36.3545C23.9819 42.7636 27.4287 48.4268 32.5838 51.4833V58.6935C32.5838 63.5772 36.5616 67.5505 41.451 67.5505C46.3404 67.5505 50.3182 63.5772 50.3182 58.6935V51.3746C55.3352 48.3323 58.6939 42.8233 58.6939 36.5453V26.4859C58.6939 25.0838 57.5561 23.9473 56.1524 23.9473Z" fill="#0A3971"/>
<path d="M56.1525 23.9473C55.0059 23.9473 54.0375 24.7059 53.7209 25.7477C53.7919 25.9814 53.8308 26.2291 53.8308 26.4859V36.5451C53.8308 42.058 51.241 46.9777 47.2129 50.155C46.1126 51.0229 45.4551 52.3344 45.4551 53.7357V58.6935C45.4551 62.735 42.7301 66.1503 39.0195 67.2091C39.7928 67.4297 40.6079 67.5505 41.4512 67.5505C46.3406 67.5505 50.3184 63.5772 50.3184 58.6935V51.3744C55.3352 48.3322 58.6941 42.8233 58.6941 36.5451V26.4859C58.6941 25.0838 57.5563 23.9473 56.1525 23.9473Z" fill="#2364B3"/>
<path d="M36.9837 7.4931H34.6639C33.4828 7.4931 32.5254 6.53552 32.5254 5.35439C32.5254 4.17327 33.4828 3.21585 34.6639 3.21585H36.9837C38.1649 3.21585 39.1223 4.17327 39.1223 5.35439C39.1223 6.53552 38.1649 7.4931 36.9837 7.4931Z" fill="#CFF5FF"/>
<path d="M48.0125 7.4931H45.6927C44.5116 7.4931 43.5542 6.53552 43.5542 5.35439C43.5542 4.17327 44.5116 3.21585 45.6927 3.21585H48.0125C49.1937 3.21585 50.1511 4.17327 50.1511 5.35439C50.1511 6.53552 49.1937 7.4931 48.0125 7.4931Z" fill="#CFF5FF"/>
<path d="M99.0181 37.488C99.0181 41.7886 95.5276 45.275 91.2219 45.275C86.9163 45.275 83.4258 41.7886 83.4258 37.488C83.4258 33.1874 86.9163 29.7011 91.2219 29.7011C95.5276 29.7011 99.0181 33.1874 99.0181 37.488Z" fill="#CFF5FF"/>
<path d="M91.2222 29.7011C90.3727 29.7011 89.5558 29.8385 88.7905 30.0895C91.905 31.1101 94.1551 34.0359 94.1551 37.488C94.1551 40.9403 91.905 43.8658 88.7905 44.8867C89.5558 45.1374 90.3727 45.2749 91.2222 45.2749C95.5278 45.2749 99.0183 41.7886 99.0183 37.488C99.0183 33.1874 95.5278 29.7011 91.2222 29.7011Z" fill="#B8F0FF"/>
<path d="M91.2219 39.4937C90.1145 39.4937 89.2139 38.5939 89.2139 37.488C89.2139 36.3821 90.1145 35.4824 91.2219 35.4824C92.3291 35.4824 93.2298 36.3821 93.2298 37.488C93.2298 38.5939 92.3291 39.4937 91.2219 39.4937Z" fill="#0A3971"/>
<path d="M38.8828 58.6935V54.933C40.5853 55.1608 42.3194 55.1499 44.0194 54.903V58.6935C44.0194 60.1072 42.8673 61.2574 41.4511 61.2574C40.0349 61.2574 38.8828 60.1072 38.8828 58.6935ZM46.4511 58.6935V53.4395C46.3358 52.5662 45.8396 52.1712 44.9626 52.2546C42.663 52.7834 40.2316 52.8011 37.926 52.2983C37.0554 52.2235 36.5637 52.6195 36.4512 53.4862V58.6935C36.4512 61.448 38.6941 63.689 41.4511 63.689C44.2081 63.689 46.4511 61.448 46.4511 58.6935Z" fill="#060606"/>
<path d="M34.6641 4.43165H36.9838C37.4927 4.43165 37.9066 4.84567 37.9066 5.35437C37.9066 5.8634 37.4927 6.27727 36.9838 6.27727H34.6641C34.1552 6.27727 33.7413 5.8634 33.7413 5.35437C33.7413 4.84567 34.1552 4.43165 34.6641 4.43165ZM48.0123 6.27727H45.6925C45.1838 6.27727 44.7698 5.8634 44.7698 5.35437C44.7698 4.84567 45.1838 4.43165 45.6925 4.43165H48.0123C48.5212 4.43165 48.9352 4.84567 48.9352 5.35437C48.9352 5.8634 48.5212 6.27727 48.0123 6.27727ZM99.9838 35.3834C99.6171 33.8547 97.2525 34.422 97.6192 35.9507C97.7406 36.4567 97.8022 36.974 97.8022 37.488C97.8022 41.1113 94.8504 44.0591 91.2219 44.0591C87.5936 44.0591 84.6416 41.1113 84.6416 37.488C84.6416 33.8647 87.5936 30.9169 91.2219 30.9169C92.3719 30.9169 93.5054 31.2192 94.4998 31.7912C95.8623 32.5753 97.0749 30.4672 95.7122 29.6836C94.3495 28.8996 92.7968 28.4853 91.2219 28.4853C86.6629 28.4853 82.8862 31.8855 82.2934 36.2803H80.7292C76.0128 36.2803 72.1757 40.1174 72.1757 44.8338V67.8504C72.1757 75.966 65.5569 82.5684 57.4213 82.5684C49.5673 82.5684 43.1276 76.4148 42.6914 68.6874C47.6678 68.0743 51.5343 63.8279 51.5343 58.6935V52.044C53.9573 50.4478 55.9905 48.2944 57.4407 45.7809C59.0562 42.9811 59.91 39.7875 59.91 36.5452V26.486C59.91 24.8409 58.8453 23.4404 57.3684 22.9343V11.2543C57.3684 7.64595 54.6576 4.66006 51.164 4.21718C50.6967 2.92646 49.4624 2.00001 48.0123 2.00001H45.6925C43.843 2.00001 42.3381 3.50487 42.3381 5.35437C42.3381 7.2042 43.843 8.70891 45.6925 8.70891H48.0123C49.3967 8.70891 50.5877 7.86577 51.0993 6.666C53.2784 7.05976 54.9368 8.96666 54.9368 11.2543V22.9343C53.46 23.4406 52.3951 24.8409 52.3951 26.486V36.5452C52.3951 39.5071 51.2318 42.2905 49.1193 44.3824C47.0035 46.4778 44.1995 47.6109 41.229 47.5873C35.1924 47.5287 30.2813 42.5051 30.2813 36.3889V26.486C30.2813 24.8407 29.2164 23.4404 27.7396 22.9343V11.2543C27.7396 8.96666 29.3981 7.05976 31.5772 6.666C32.0888 7.86577 33.2796 8.70891 34.6641 8.70891H36.9838C38.8335 8.70891 40.3382 7.2042 40.3382 5.35437C40.3382 3.50487 38.8335 2.00001 36.9838 2.00001H34.6641C33.2141 2.00001 31.9797 2.92646 31.5123 4.21718C28.0187 4.66006 25.3079 7.64595 25.3079 11.2543V22.9343C23.8313 23.4406 22.7664 24.8409 22.7664 26.486V28.8067C22.7664 30.3787 25.198 30.3787 25.198 28.8067V26.486C25.198 24.7756 27.8496 24.7756 27.8496 26.486V36.3889C27.8496 43.8331 33.841 49.9474 41.2053 50.0187C44.8382 50.057 48.25 48.6658 50.8306 46.1101C53.4076 43.5579 54.8267 40.161 54.8267 36.5452V26.486C54.8267 24.7756 57.4784 24.7756 57.4784 26.486V36.5452C57.4784 42.2218 54.5661 47.3768 49.688 50.3349C49.3246 50.5552 49.1026 50.9494 49.1026 51.3745V58.6935C49.1026 62.9068 45.6701 66.3346 41.4511 66.3346C37.232 66.3346 33.7997 62.9068 33.7997 58.6935V51.4834C33.7997 51.054 33.5732 50.6565 33.2039 50.4375C27.5836 47.105 25.1108 41.1301 25.198 34.8103C25.198 33.2382 22.7664 33.2382 22.7664 34.8103C22.6759 41.7517 25.3731 48.2916 31.368 52.1605V58.6935C31.368 63.8436 35.2579 68.1004 40.2562 68.6931C40.6979 77.7594 48.2281 85 57.4213 85C66.8977 85 74.6073 77.3068 74.6073 67.8504V44.8338C74.6073 41.4582 77.3536 38.7119 80.7292 38.7119H82.2955C82.8953 43.0989 86.6684 46.4908 91.2219 46.4908C96.1912 46.4908 100.234 42.4521 100.234 37.488C100.234 36.783 100.15 36.0749 99.9838 35.3834Z" fill="#060606"/>
<path d="M92.014 37.488C92.014 37.9236 91.6586 38.2778 91.2219 38.2778C90.785 38.2778 90.4297 37.9236 90.4297 37.488C90.4297 37.0526 90.785 36.6982 91.2219 36.6982C91.6586 36.6982 92.014 37.0526 92.014 37.488ZM87.998 37.488C87.998 39.2644 89.4442 40.7095 91.2219 40.7095C92.9994 40.7095 94.4456 39.2644 94.4456 37.488C94.4456 35.7118 92.9994 34.2666 91.2219 34.2666C89.4442 34.2666 87.998 35.7118 87.998 37.488Z" fill="#060606"/>
</g>
</svg>
