<svg width="266" height="353" viewBox="0 0 266 353" fill="none" xmlns="http://www.w3.org/2000/svg">
<path d="M0.5 187.185C0.5 114.007 59.8223 54.6852 133 54.6852C206.178 54.6852 265.5 114.007 265.5 187.185V319.685H0.5V187.185Z" stroke="#035873"/>
<rect width="265.179" height="78" transform="translate(0 274.21)" fill="#0A3971"/>
<path d="M96.5415 307.49C98.0775 306.162 99.2855 305.074 100.166 304.226C101.062 303.362 101.806 302.466 102.398 301.538C102.99 300.61 103.286 299.682 103.286 298.754C103.286 297.794 103.054 297.042 102.59 296.498C102.142 295.954 101.43 295.682 100.454 295.682C99.5095 295.682 98.7735 295.986 98.2455 296.594C97.7335 297.186 97.4615 297.986 97.4295 298.994H94.7895C94.8375 297.17 95.3815 295.778 96.4215 294.818C97.4775 293.842 98.8135 293.354 100.43 293.354C102.174 293.354 103.534 293.834 104.51 294.794C105.502 295.754 105.998 297.034 105.998 298.634C105.998 299.786 105.702 300.898 105.11 301.97C104.534 303.026 103.838 303.978 103.022 304.826C102.222 305.658 101.198 306.626 99.9495 307.73L98.8695 308.69H106.478V310.97H94.8135V308.978L96.5415 307.49ZM108.881 302.234C108.881 299.466 109.345 297.306 110.273 295.754C111.217 294.186 112.833 293.402 115.121 293.402C117.409 293.402 119.017 294.186 119.945 295.754C120.889 297.306 121.361 299.466 121.361 302.234C121.361 305.034 120.889 307.226 119.945 308.81C119.017 310.378 117.409 311.162 115.121 311.162C112.833 311.162 111.217 310.378 110.273 308.81C109.345 307.226 108.881 305.034 108.881 302.234ZM118.673 302.234C118.673 300.938 118.585 299.842 118.409 298.946C118.249 298.05 117.913 297.322 117.401 296.762C116.889 296.186 116.129 295.898 115.121 295.898C114.113 295.898 113.353 296.186 112.841 296.762C112.329 297.322 111.985 298.05 111.809 298.946C111.649 299.842 111.569 300.938 111.569 302.234C111.569 303.578 111.649 304.706 111.809 305.618C111.969 306.53 112.305 307.266 112.817 307.826C113.345 308.386 114.113 308.666 115.121 308.666C116.129 308.666 116.889 308.386 117.401 307.826C117.929 307.266 118.273 306.53 118.433 305.618C118.593 304.706 118.673 303.578 118.673 302.234ZM148.418 294.53V311.21H145.682V299.786L140.594 311.21H138.698L133.586 299.786V311.21H130.85V294.53H133.802L139.658 307.61L145.49 294.53H148.418ZM169.583 294.53V311.21H166.847V299.786L161.759 311.21H159.863L154.751 299.786V311.21H152.015V294.53H154.967L160.823 307.61L166.655 294.53H169.583Z" fill="white"/>
<path d="M83.9095 324.48V334.21H82.3135V329.954H77.7355V334.21H76.1395V324.48H77.7355V328.652H82.3135V324.48H83.9095ZM90.4486 334.308C89.5433 334.308 88.7079 334.098 87.9426 333.678C87.1866 333.249 86.5846 332.656 86.1366 331.9C85.6979 331.135 85.4786 330.276 85.4786 329.324C85.4786 328.372 85.6979 327.518 86.1366 326.762C86.5846 326.006 87.1866 325.418 87.9426 324.998C88.7079 324.569 89.5433 324.354 90.4486 324.354C91.3633 324.354 92.1986 324.569 92.9546 324.998C93.7199 325.418 94.3219 326.006 94.7606 326.762C95.1993 327.518 95.4186 328.372 95.4186 329.324C95.4186 330.276 95.1993 331.135 94.7606 331.9C94.3219 332.656 93.7199 333.249 92.9546 333.678C92.1986 334.098 91.3633 334.308 90.4486 334.308ZM90.4486 332.922C91.0926 332.922 91.6666 332.777 92.1706 332.488C92.6746 332.189 93.0666 331.769 93.3466 331.228C93.6359 330.677 93.7806 330.043 93.7806 329.324C93.7806 328.605 93.6359 327.975 93.3466 327.434C93.0666 326.893 92.6746 326.477 92.1706 326.188C91.6666 325.899 91.0926 325.754 90.4486 325.754C89.8046 325.754 89.2306 325.899 88.7266 326.188C88.2226 326.477 87.8259 326.893 87.5366 327.434C87.2566 327.975 87.1166 328.605 87.1166 329.324C87.1166 330.043 87.2566 330.677 87.5366 331.228C87.8259 331.769 88.2226 332.189 88.7266 332.488C89.2306 332.777 89.8046 332.922 90.4486 332.922ZM101.427 334.308C100.522 334.308 99.6865 334.098 98.9211 333.678C98.1651 333.249 97.5631 332.656 97.1151 331.9C96.6765 331.135 96.4571 330.276 96.4571 329.324C96.4571 328.372 96.6765 327.518 97.1151 326.762C97.5631 326.006 98.1651 325.418 98.9211 324.998C99.6865 324.569 100.522 324.354 101.427 324.354C102.342 324.354 103.177 324.569 103.933 324.998C104.698 325.418 105.3 326.006 105.739 326.762C106.178 327.518 106.397 328.372 106.397 329.324C106.397 330.276 106.178 331.135 105.739 331.9C105.3 332.656 104.698 333.249 103.933 333.678C103.177 334.098 102.342 334.308 101.427 334.308ZM101.427 332.922C102.071 332.922 102.645 332.777 103.149 332.488C103.653 332.189 104.045 331.769 104.325 331.228C104.614 330.677 104.759 330.043 104.759 329.324C104.759 328.605 104.614 327.975 104.325 327.434C104.045 326.893 103.653 326.477 103.149 326.188C102.645 325.899 102.071 325.754 101.427 325.754C100.783 325.754 100.209 325.899 99.7051 326.188C99.2011 326.477 98.8045 326.893 98.5151 327.434C98.2351 327.975 98.0951 328.605 98.0951 329.324C98.0951 330.043 98.2351 330.677 98.5151 331.228C98.8045 331.769 99.2011 332.189 99.7051 332.488C100.209 332.777 100.783 332.922 101.427 332.922ZM113.33 334.21L109.564 329.856V334.21H107.968V324.48H109.564V328.918L113.344 324.48H115.346L111.118 329.352L115.416 334.21H113.33ZM126.33 332.222H122.256L121.556 334.21H119.89L123.376 324.466H125.224L128.71 334.21H127.03L126.33 332.222ZM125.882 330.92L124.3 326.398L122.704 330.92H125.882ZM138.219 334.21H136.623L131.821 326.944V334.21H130.225V324.466H131.821L136.623 331.718V324.466H138.219V334.21ZM143.493 324.48C144.529 324.48 145.435 324.681 146.209 325.082C146.993 325.474 147.595 326.043 148.015 326.79C148.445 327.527 148.659 328.391 148.659 329.38C148.659 330.369 148.445 331.228 148.015 331.956C147.595 332.684 146.993 333.244 146.209 333.636C145.435 334.019 144.529 334.21 143.493 334.21H140.315V324.48H143.493ZM143.493 332.908C144.632 332.908 145.505 332.6 146.111 331.984C146.718 331.368 147.021 330.5 147.021 329.38C147.021 328.251 146.718 327.369 146.111 326.734C145.505 326.099 144.632 325.782 143.493 325.782H141.911V332.908H143.493ZM155.474 332.922H158.764V334.21H153.878V324.48H155.474V332.922ZM164.536 334.308C163.631 334.308 162.796 334.098 162.03 333.678C161.274 333.249 160.672 332.656 160.224 331.9C159.786 331.135 159.566 330.276 159.566 329.324C159.566 328.372 159.786 327.518 160.224 326.762C160.672 326.006 161.274 325.418 162.03 324.998C162.796 324.569 163.631 324.354 164.536 324.354C165.451 324.354 166.286 324.569 167.042 324.998C167.808 325.418 168.41 326.006 168.848 326.762C169.287 327.518 169.506 328.372 169.506 329.324C169.506 330.276 169.287 331.135 168.848 331.9C168.41 332.656 167.808 333.249 167.042 333.678C166.286 334.098 165.451 334.308 164.536 334.308ZM164.536 332.922C165.18 332.922 165.754 332.777 166.258 332.488C166.762 332.189 167.154 331.769 167.434 331.228C167.724 330.677 167.868 330.043 167.868 329.324C167.868 328.605 167.724 327.975 167.434 327.434C167.154 326.893 166.762 326.477 166.258 326.188C165.754 325.899 165.18 325.754 164.536 325.754C163.892 325.754 163.318 325.899 162.814 326.188C162.31 326.477 161.914 326.893 161.624 327.434C161.344 327.975 161.204 328.605 161.204 329.324C161.204 330.043 161.344 330.677 161.624 331.228C161.914 331.769 162.31 332.189 162.814 332.488C163.318 332.777 163.892 332.922 164.536 332.922ZM175.515 334.308C174.61 334.308 173.774 334.098 173.009 333.678C172.253 333.249 171.651 332.656 171.203 331.9C170.764 331.135 170.545 330.276 170.545 329.324C170.545 328.372 170.764 327.518 171.203 326.762C171.651 326.006 172.253 325.418 173.009 324.998C173.774 324.569 174.61 324.354 175.515 324.354C176.43 324.354 177.265 324.569 178.021 324.998C178.786 325.418 179.388 326.006 179.827 326.762C180.266 327.518 180.485 328.372 180.485 329.324C180.485 330.276 180.266 331.135 179.827 331.9C179.388 332.656 178.786 333.249 178.021 333.678C177.265 334.098 176.43 334.308 175.515 334.308ZM175.515 332.922C176.159 332.922 176.733 332.777 177.237 332.488C177.741 332.189 178.133 331.769 178.413 331.228C178.702 330.677 178.847 330.043 178.847 329.324C178.847 328.605 178.702 327.975 178.413 327.434C178.133 326.893 177.741 326.477 177.237 326.188C176.733 325.899 176.159 325.754 175.515 325.754C174.871 325.754 174.297 325.899 173.793 326.188C173.289 326.477 172.892 326.893 172.603 327.434C172.323 327.975 172.183 328.605 172.183 329.324C172.183 330.043 172.323 330.677 172.603 331.228C172.892 331.769 173.289 332.189 173.793 332.488C174.297 332.777 174.871 332.922 175.515 332.922ZM188.86 327.378C188.86 327.873 188.743 328.339 188.51 328.778C188.276 329.217 187.903 329.576 187.39 329.856C186.876 330.127 186.218 330.262 185.416 330.262H183.652V334.21H182.056V324.48H185.416C186.162 324.48 186.792 324.611 187.306 324.872C187.828 325.124 188.216 325.469 188.468 325.908C188.729 326.347 188.86 326.837 188.86 327.378ZM185.416 328.96C186.022 328.96 186.475 328.825 186.774 328.554C187.072 328.274 187.222 327.882 187.222 327.378C187.222 326.314 186.62 325.782 185.416 325.782H183.652V328.96H185.416Z" fill="white"/>
</svg>
