<svg width="247" height="63" viewBox="0 0 247 63" fill="none" xmlns="http://www.w3.org/2000/svg">
<path d="M13.95 22.26C15.13 22.48 16.1 23.07 16.86 24.03C17.62 24.99 18 26.09 18 27.33C18 28.45 17.72 29.44 17.16 30.3C16.62 31.14 15.83 31.8 14.79 32.28C13.75 32.76 12.52 33 11.1 33H2.07V12.06H10.71C12.13 12.06 13.35 12.29 14.37 12.75C15.41 13.21 16.19 13.85 16.71 14.67C17.25 15.49 17.52 16.42 17.52 17.46C17.52 18.68 17.19 19.7 16.53 20.52C15.89 21.34 15.03 21.92 13.95 22.26ZM6.27 20.7H10.11C11.11 20.7 11.88 20.48 12.42 20.04C12.96 19.58 13.23 18.93 13.23 18.09C13.23 17.25 12.96 16.6 12.42 16.14C11.88 15.68 11.11 15.45 10.11 15.45H6.27V20.7ZM10.5 29.58C11.52 29.58 12.31 29.34 12.87 28.86C13.45 28.38 13.74 27.7 13.74 26.82C13.74 25.92 13.44 25.22 12.84 24.72C12.24 24.2 11.43 23.94 10.41 23.94H6.27V29.58H10.5ZM20.2673 24.63C20.2673 22.95 20.5973 21.46 21.2573 20.16C21.9373 18.86 22.8473 17.86 23.9873 17.16C25.1473 16.46 26.4373 16.11 27.8573 16.11C29.0973 16.11 30.1773 16.36 31.0973 16.86C32.0373 17.36 32.7873 17.99 33.3473 18.75V16.38H37.5773V33H33.3473V30.57C32.8073 31.35 32.0573 32 31.0973 32.52C30.1573 33.02 29.0673 33.27 27.8273 33.27C26.4273 33.27 25.1473 32.91 23.9873 32.19C22.8473 31.47 21.9373 30.46 21.2573 29.16C20.5973 27.84 20.2673 26.33 20.2673 24.63ZM33.3473 24.69C33.3473 23.67 33.1473 22.8 32.7473 22.08C32.3473 21.34 31.8073 20.78 31.1273 20.4C30.4473 20 29.7173 19.8 28.9373 19.8C28.1573 19.8 27.4373 19.99 26.7773 20.37C26.1173 20.75 25.5773 21.31 25.1573 22.05C24.7573 22.77 24.5573 23.63 24.5573 24.63C24.5573 25.63 24.7573 26.51 25.1573 27.27C25.5773 28.01 26.1173 28.58 26.7773 28.98C27.4573 29.38 28.1773 29.58 28.9373 29.58C29.7173 29.58 30.4473 29.39 31.1273 29.01C31.8073 28.61 32.3473 28.05 32.7473 27.33C33.1473 26.59 33.3473 25.71 33.3473 24.69ZM45.8794 10.8V33H41.6794V10.8H45.8794ZM48.949 24.63C48.949 22.95 49.279 21.46 49.939 20.16C50.619 18.86 51.529 17.86 52.669 17.16C53.829 16.46 55.119 16.11 56.539 16.11C57.779 16.11 58.859 16.36 59.779 16.86C60.719 17.36 61.469 17.99 62.029 18.75V16.38H66.259V33H62.029V30.57C61.489 31.35 60.739 32 59.779 32.52C58.839 33.02 57.749 33.27 56.509 33.27C55.109 33.27 53.829 32.91 52.669 32.19C51.529 31.47 50.619 30.46 49.939 29.16C49.279 27.84 48.949 26.33 48.949 24.63ZM62.029 24.69C62.029 23.67 61.829 22.8 61.429 22.08C61.029 21.34 60.489 20.78 59.809 20.4C59.129 20 58.399 19.8 57.619 19.8C56.839 19.8 56.119 19.99 55.459 20.37C54.799 20.75 54.259 21.31 53.839 22.05C53.439 22.77 53.239 23.63 53.239 24.63C53.239 25.63 53.439 26.51 53.839 27.27C54.259 28.01 54.799 28.58 55.459 28.98C56.139 29.38 56.859 29.58 57.619 29.58C58.399 29.58 59.129 29.39 59.809 29.01C60.489 28.61 61.029 28.05 61.429 27.33C61.829 26.59 62.029 25.71 62.029 24.69ZM72.491 14.4C71.731 14.4 71.101 14.17 70.601 13.71C70.121 13.23 69.881 12.64 69.881 11.94C69.881 11.24 70.121 10.66 70.601 10.2C71.101 9.72 71.731 9.48 72.491 9.48C73.231 9.48 73.841 9.72 74.321 10.2C74.801 10.66 75.041 11.24 75.041 11.94C75.041 12.64 74.801 13.23 74.321 13.71C73.841 14.17 73.231 14.4 72.491 14.4ZM74.561 35.73C74.561 37.57 74.101 38.89 73.181 39.69C72.281 40.51 70.981 40.92 69.281 40.92H67.421V37.35H68.621C69.261 37.35 69.711 37.22 69.971 36.96C70.231 36.72 70.361 36.32 70.361 35.76V16.38H74.561V35.73ZM80.8406 14.4C80.1006 14.4 79.4806 14.17 78.9806 13.71C78.5006 13.23 78.2606 12.64 78.2606 11.94C78.2606 11.24 78.5006 10.66 78.9806 10.2C79.4806 9.72 80.1006 9.48 80.8406 9.48C81.5806 9.48 82.1906 9.72 82.6706 10.2C83.1706 10.66 83.4206 11.24 83.4206 11.94C83.4206 12.64 83.1706 13.23 82.6706 13.71C82.1906 14.17 81.5806 14.4 80.8406 14.4ZM82.9106 16.38V33H78.7106V16.38H82.9106ZM98.4087 12.06V33H94.2087V12.06H98.4087ZM111.768 16.14C113.748 16.14 115.348 16.77 116.568 18.03C117.788 19.27 118.398 21.01 118.398 23.25V33H114.198V23.82C114.198 22.5 113.868 21.49 113.208 20.79C112.548 20.07 111.648 19.71 110.508 19.71C109.348 19.71 108.428 20.07 107.748 20.79C107.088 21.49 106.758 22.5 106.758 23.82V33H102.558V16.38H106.758V18.45C107.318 17.73 108.028 17.17 108.888 16.77C109.768 16.35 110.728 16.14 111.768 16.14ZM121.312 24.63C121.312 22.95 121.642 21.46 122.302 20.16C122.982 18.86 123.902 17.86 125.062 17.16C126.222 16.46 127.512 16.11 128.932 16.11C130.012 16.11 131.042 16.35 132.022 16.83C133.002 17.29 133.782 17.91 134.362 18.69V10.8H138.622V33H134.362V30.54C133.842 31.36 133.112 32.02 132.172 32.52C131.232 33.02 130.142 33.27 128.902 33.27C127.502 33.27 126.222 32.91 125.062 32.19C123.902 31.47 122.982 30.46 122.302 29.16C121.642 27.84 121.312 26.33 121.312 24.63ZM134.392 24.69C134.392 23.67 134.192 22.8 133.792 22.08C133.392 21.34 132.852 20.78 132.172 20.4C131.492 20 130.762 19.8 129.982 19.8C129.202 19.8 128.482 19.99 127.822 20.37C127.162 20.75 126.622 21.31 126.202 22.05C125.802 22.77 125.602 23.63 125.602 24.63C125.602 25.63 125.802 26.51 126.202 27.27C126.622 28.01 127.162 28.58 127.822 28.98C128.502 29.38 129.222 29.58 129.982 29.58C130.762 29.58 131.492 29.39 132.172 29.01C132.852 28.61 133.392 28.05 133.792 27.33C134.192 26.59 134.392 25.71 134.392 24.69ZM158.414 16.38V33H154.184V30.9C153.644 31.62 152.934 32.19 152.054 32.61C151.194 33.01 150.254 33.21 149.234 33.21C147.934 33.21 146.784 32.94 145.784 32.4C144.784 31.84 143.994 31.03 143.414 29.97C142.854 28.89 142.574 27.61 142.574 26.13V16.38H146.774V25.53C146.774 26.85 147.104 27.87 147.764 28.59C148.424 29.29 149.324 29.64 150.464 29.64C151.624 29.64 152.534 29.29 153.194 28.59C153.854 27.87 154.184 26.85 154.184 25.53V16.38H158.414ZM168.918 33.27C167.558 33.27 166.338 33.03 165.258 32.55C164.178 32.05 163.318 31.38 162.678 30.54C162.058 29.7 161.718 28.77 161.658 27.75H165.888C165.968 28.39 166.278 28.92 166.818 29.34C167.378 29.76 168.068 29.97 168.888 29.97C169.688 29.97 170.308 29.81 170.748 29.49C171.208 29.17 171.438 28.76 171.438 28.26C171.438 27.72 171.158 27.32 170.598 27.06C170.058 26.78 169.188 26.48 167.988 26.16C166.748 25.86 165.728 25.55 164.928 25.23C164.148 24.91 163.468 24.42 162.888 23.76C162.328 23.1 162.048 22.21 162.048 21.09C162.048 20.17 162.308 19.33 162.828 18.57C163.368 17.81 164.128 17.21 165.108 16.77C166.108 16.33 167.278 16.11 168.618 16.11C170.598 16.11 172.178 16.61 173.358 17.61C174.538 18.59 175.188 19.92 175.308 21.6H171.288C171.228 20.94 170.948 20.42 170.448 20.04C169.968 19.64 169.318 19.44 168.498 19.44C167.738 19.44 167.148 19.58 166.728 19.86C166.328 20.14 166.128 20.53 166.128 21.03C166.128 21.59 166.408 22.02 166.968 22.32C167.528 22.6 168.398 22.89 169.578 23.19C170.778 23.49 171.768 23.8 172.548 24.12C173.328 24.44 173.998 24.94 174.558 25.62C175.138 26.28 175.438 27.16 175.458 28.26C175.458 29.22 175.188 30.08 174.648 30.84C174.128 31.6 173.368 32.2 172.368 32.64C171.388 33.06 170.238 33.27 168.918 33.27ZM183.796 19.83V27.87C183.796 28.43 183.926 28.84 184.186 29.1C184.466 29.34 184.926 29.46 185.566 29.46H187.516V33H184.876C181.336 33 179.566 31.28 179.566 27.84V19.83H177.586V16.38H179.566V12.27H183.796V16.38H187.516V19.83H183.796ZM194.737 18.96C195.277 18.08 195.977 17.39 196.837 16.89C197.717 16.39 198.717 16.14 199.837 16.14V20.55H198.727C197.407 20.55 196.407 20.86 195.727 21.48C195.067 22.1 194.737 23.18 194.737 24.72V33H190.537V16.38H194.737V18.96ZM204.796 14.4C204.056 14.4 203.436 14.17 202.936 13.71C202.456 13.23 202.216 12.64 202.216 11.94C202.216 11.24 202.456 10.66 202.936 10.2C203.436 9.72 204.056 9.48 204.796 9.48C205.536 9.48 206.146 9.72 206.626 10.2C207.126 10.66 207.376 11.24 207.376 11.94C207.376 12.64 207.126 13.23 206.626 13.71C206.146 14.17 205.536 14.4 204.796 14.4ZM206.866 16.38V33H202.666V16.38H206.866ZM226.465 24.33C226.465 24.93 226.425 25.47 226.345 25.95H214.195C214.295 27.15 214.715 28.09 215.455 28.77C216.195 29.45 217.105 29.79 218.185 29.79C219.745 29.79 220.855 29.12 221.515 27.78H226.045C225.565 29.38 224.645 30.7 223.285 31.74C221.925 32.76 220.255 33.27 218.275 33.27C216.675 33.27 215.235 32.92 213.955 32.22C212.695 31.5 211.705 30.49 210.985 29.19C210.285 27.89 209.935 26.39 209.935 24.69C209.935 22.97 210.285 21.46 210.985 20.16C211.685 18.86 212.665 17.86 213.925 17.16C215.185 16.46 216.635 16.11 218.275 16.11C219.855 16.11 221.265 16.45 222.505 17.13C223.765 17.81 224.735 18.78 225.415 20.04C226.115 21.28 226.465 22.71 226.465 24.33ZM222.115 23.13C222.095 22.05 221.705 21.19 220.945 20.55C220.185 19.89 219.255 19.56 218.155 19.56C217.115 19.56 216.235 19.88 215.515 20.52C214.815 21.14 214.385 22.01 214.225 23.13H222.115ZM235.891 33.27C234.531 33.27 233.311 33.03 232.231 32.55C231.151 32.05 230.291 31.38 229.651 30.54C229.031 29.7 228.691 28.77 228.631 27.75H232.861C232.941 28.39 233.251 28.92 233.791 29.34C234.351 29.76 235.041 29.97 235.861 29.97C236.661 29.97 237.281 29.81 237.721 29.49C238.181 29.17 238.411 28.76 238.411 28.26C238.411 27.72 238.131 27.32 237.571 27.06C237.031 26.78 236.161 26.48 234.961 26.16C233.721 25.86 232.701 25.55 231.901 25.23C231.121 24.91 230.441 24.42 229.861 23.76C229.301 23.1 229.021 22.21 229.021 21.09C229.021 20.17 229.281 19.33 229.801 18.57C230.341 17.81 231.101 17.21 232.081 16.77C233.081 16.33 234.251 16.11 235.591 16.11C237.571 16.11 239.151 16.61 240.331 17.61C241.511 18.59 242.161 19.92 242.281 21.6H238.261C238.201 20.94 237.921 20.42 237.421 20.04C236.941 19.64 236.291 19.44 235.471 19.44C234.711 19.44 234.121 19.58 233.701 19.86C233.301 20.14 233.101 20.53 233.101 21.03C233.101 21.59 233.381 22.02 233.941 22.32C234.501 22.6 235.371 22.89 236.551 23.19C237.751 23.49 238.741 23.8 239.521 24.12C240.301 24.44 240.971 24.94 241.531 25.62C242.111 26.28 242.411 27.16 242.431 28.26C242.431 29.22 242.161 30.08 241.621 30.84C241.101 31.6 240.341 32.2 239.341 32.64C238.361 33.06 237.211 33.27 235.891 33.27Z" fill="white"/>
<path d="M2.016 49.636V58H0.924V49.636H2.016ZM7.08113 51.304C7.88113 51.304 8.52913 51.548 9.02513 52.036C9.52113 52.516 9.76913 53.212 9.76913 54.124V58H8.68913V54.28C8.68913 53.624 8.52513 53.124 8.19713 52.78C7.86913 52.428 7.42113 52.252 6.85313 52.252C6.27713 52.252 5.81713 52.432 5.47313 52.792C5.13713 53.152 4.96913 53.676 4.96913 54.364V58H3.87713V51.424H4.96913V52.36C5.18513 52.024 5.47713 51.764 5.84513 51.58C6.22113 51.396 6.63313 51.304 7.08113 51.304ZM11.1449 54.688C11.1449 54.016 11.2809 53.428 11.5529 52.924C11.8249 52.412 12.1969 52.016 12.6689 51.736C13.1489 51.456 13.6849 51.316 14.2769 51.316C14.7889 51.316 15.2649 51.436 15.7049 51.676C16.1449 51.908 16.4809 52.216 16.7129 52.6V49.12H17.8169V58H16.7129V56.764C16.4969 57.156 16.1769 57.48 15.7529 57.736C15.3289 57.984 14.8329 58.108 14.2649 58.108C13.6809 58.108 13.1489 57.964 12.6689 57.676C12.1969 57.388 11.8249 56.984 11.5529 56.464C11.2809 55.944 11.1449 55.352 11.1449 54.688ZM16.7129 54.7C16.7129 54.204 16.6129 53.772 16.4129 53.404C16.2129 53.036 15.9409 52.756 15.5969 52.564C15.2609 52.364 14.8889 52.264 14.4809 52.264C14.0729 52.264 13.7009 52.36 13.3649 52.552C13.0289 52.744 12.7609 53.024 12.5609 53.392C12.3609 53.76 12.2609 54.192 12.2609 54.688C12.2609 55.192 12.3609 55.632 12.5609 56.008C12.7609 56.376 13.0289 56.66 13.3649 56.86C13.7009 57.052 14.0729 57.148 14.4809 57.148C14.8889 57.148 15.2609 57.052 15.5969 56.86C15.9409 56.66 16.2129 56.376 16.4129 56.008C16.6129 55.632 16.7129 55.196 16.7129 54.7ZM20.2263 50.356C20.0183 50.356 19.8423 50.284 19.6983 50.14C19.5543 49.996 19.4823 49.82 19.4823 49.612C19.4823 49.404 19.5543 49.228 19.6983 49.084C19.8423 48.94 20.0183 48.868 20.2263 48.868C20.4263 48.868 20.5943 48.94 20.7303 49.084C20.8743 49.228 20.9463 49.404 20.9463 49.612C20.9463 49.82 20.8743 49.996 20.7303 50.14C20.5943 50.284 20.4263 50.356 20.2263 50.356ZM20.7543 51.424V58H19.6623V51.424H20.7543ZM22.2074 54.688C22.2074 54.016 22.3434 53.428 22.6154 52.924C22.8874 52.412 23.2594 52.016 23.7314 51.736C24.2114 51.456 24.7434 51.316 25.3274 51.316C25.9034 51.316 26.4034 51.44 26.8274 51.688C27.2514 51.936 27.5674 52.248 27.7754 52.624V51.424H28.8794V58H27.7754V56.776C27.5594 57.16 27.2354 57.48 26.8034 57.736C26.3794 57.984 25.8834 58.108 25.3154 58.108C24.7314 58.108 24.2034 57.964 23.7314 57.676C23.2594 57.388 22.8874 56.984 22.6154 56.464C22.3434 55.944 22.2074 55.352 22.2074 54.688ZM27.7754 54.7C27.7754 54.204 27.6754 53.772 27.4754 53.404C27.2754 53.036 27.0034 52.756 26.6594 52.564C26.3234 52.364 25.9514 52.264 25.5434 52.264C25.1354 52.264 24.7634 52.36 24.4274 52.552C24.0914 52.744 23.8234 53.024 23.6234 53.392C23.4234 53.76 23.3234 54.192 23.3234 54.688C23.3234 55.192 23.4234 55.632 23.6234 56.008C23.8234 56.376 24.0914 56.66 24.4274 56.86C24.7634 57.052 25.1354 57.148 25.5434 57.148C25.9514 57.148 26.3234 57.052 26.6594 56.86C27.0034 56.66 27.2754 56.376 27.4754 56.008C27.6754 55.632 27.7754 55.196 27.7754 54.7ZM30.8928 49.636H32.1048L30.9528 52.36H30.1848L30.8928 49.636ZM35.6778 58.108C35.1738 58.108 34.7218 58.024 34.3218 57.856C33.9218 57.68 33.6058 57.44 33.3738 57.136C33.1418 56.824 33.0138 56.468 32.9898 56.068H34.1178C34.1498 56.396 34.3018 56.664 34.5738 56.872C34.8538 57.08 35.2178 57.184 35.6658 57.184C36.0818 57.184 36.4098 57.092 36.6498 56.908C36.8898 56.724 37.0098 56.492 37.0098 56.212C37.0098 55.924 36.8818 55.712 36.6258 55.576C36.3698 55.432 35.9738 55.292 35.4378 55.156C34.9498 55.028 34.5498 54.9 34.2378 54.772C33.9338 54.636 33.6698 54.44 33.4458 54.184C33.2298 53.92 33.1218 53.576 33.1218 53.152C33.1218 52.816 33.2218 52.508 33.4218 52.228C33.6218 51.948 33.9058 51.728 34.2738 51.568C34.6418 51.4 35.0618 51.316 35.5338 51.316C36.2618 51.316 36.8498 51.5 37.2978 51.868C37.7458 52.236 37.9858 52.74 38.0178 53.38H36.9258C36.9018 53.036 36.7618 52.76 36.5058 52.552C36.2578 52.344 35.9218 52.24 35.4978 52.24C35.1058 52.24 34.7938 52.324 34.5618 52.492C34.3298 52.66 34.2138 52.88 34.2138 53.152C34.2138 53.368 34.2818 53.548 34.4178 53.692C34.5618 53.828 34.7378 53.94 34.9458 54.028C35.1618 54.108 35.4578 54.2 35.8338 54.304C36.3058 54.432 36.6898 54.56 36.9858 54.688C37.2818 54.808 37.5338 54.992 37.7418 55.24C37.9578 55.488 38.0698 55.812 38.0778 56.212C38.0778 56.572 37.9778 56.896 37.7778 57.184C37.5778 57.472 37.2938 57.7 36.9258 57.868C36.5658 58.028 36.1498 58.108 35.6778 58.108ZM43.9105 57.112H46.8385V58H42.8185V49.636H43.9105V57.112ZM53.9982 54.46C53.9982 54.668 53.9862 54.888 53.9622 55.12H48.7062C48.7462 55.768 48.9662 56.276 49.3662 56.644C49.7742 57.004 50.2662 57.184 50.8422 57.184C51.3142 57.184 51.7062 57.076 52.0182 56.86C52.3382 56.636 52.5622 56.34 52.6902 55.972H53.8662C53.6902 56.604 53.3382 57.12 52.8102 57.52C52.2822 57.912 51.6262 58.108 50.8422 58.108C50.2182 58.108 49.6582 57.968 49.1622 57.688C48.6742 57.408 48.2902 57.012 48.0102 56.5C47.7302 55.98 47.5902 55.38 47.5902 54.7C47.5902 54.02 47.7262 53.424 47.9982 52.912C48.2702 52.4 48.6502 52.008 49.1382 51.736C49.6342 51.456 50.2022 51.316 50.8422 51.316C51.4662 51.316 52.0182 51.452 52.4982 51.724C52.9782 51.996 53.3462 52.372 53.6022 52.852C53.8662 53.324 53.9982 53.86 53.9982 54.46ZM52.8702 54.232C52.8702 53.816 52.7782 53.46 52.5942 53.164C52.4102 52.86 52.1582 52.632 51.8382 52.48C51.5262 52.32 51.1782 52.24 50.7942 52.24C50.2422 52.24 49.7702 52.416 49.3782 52.768C48.9942 53.12 48.7742 53.608 48.7182 54.232H52.8702ZM55.0316 54.688C55.0316 54.016 55.1676 53.428 55.4396 52.924C55.7116 52.412 56.0836 52.016 56.5556 51.736C57.0356 51.456 57.5676 51.316 58.1516 51.316C58.7276 51.316 59.2276 51.44 59.6516 51.688C60.0756 51.936 60.3916 52.248 60.5996 52.624V51.424H61.7036V58H60.5996V56.776C60.3836 57.16 60.0596 57.48 59.6276 57.736C59.2036 57.984 58.7076 58.108 58.1396 58.108C57.5556 58.108 57.0276 57.964 56.5556 57.676C56.0836 57.388 55.7116 56.984 55.4396 56.464C55.1676 55.944 55.0316 55.352 55.0316 54.688ZM60.5996 54.7C60.5996 54.204 60.4996 53.772 60.2996 53.404C60.0996 53.036 59.8276 52.756 59.4836 52.564C59.1476 52.364 58.7756 52.264 58.3676 52.264C57.9596 52.264 57.5876 52.36 57.2516 52.552C56.9156 52.744 56.6476 53.024 56.4476 53.392C56.2476 53.76 56.1476 54.192 56.1476 54.688C56.1476 55.192 56.2476 55.632 56.4476 56.008C56.6476 56.376 56.9156 56.66 57.2516 56.86C57.5876 57.052 57.9596 57.148 58.3676 57.148C58.7756 57.148 59.1476 57.052 59.4836 56.86C59.8276 56.66 60.0996 56.376 60.2996 56.008C60.4996 55.632 60.5996 55.196 60.5996 54.7ZM63.141 54.688C63.141 54.016 63.277 53.428 63.549 52.924C63.821 52.412 64.193 52.016 64.665 51.736C65.145 51.456 65.681 51.316 66.273 51.316C66.785 51.316 67.261 51.436 67.701 51.676C68.141 51.908 68.477 52.216 68.709 52.6V49.12H69.813V58H68.709V56.764C68.493 57.156 68.173 57.48 67.749 57.736C67.325 57.984 66.829 58.108 66.261 58.108C65.677 58.108 65.145 57.964 64.665 57.676C64.193 57.388 63.821 56.984 63.549 56.464C63.277 55.944 63.141 55.352 63.141 54.688ZM68.709 54.7C68.709 54.204 68.609 53.772 68.409 53.404C68.209 53.036 67.937 52.756 67.593 52.564C67.257 52.364 66.885 52.264 66.477 52.264C66.069 52.264 65.697 52.36 65.361 52.552C65.025 52.744 64.757 53.024 64.557 53.392C64.357 53.76 64.257 54.192 64.257 54.688C64.257 55.192 64.357 55.632 64.557 56.008C64.757 56.376 65.025 56.66 65.361 56.86C65.697 57.052 66.069 57.148 66.477 57.148C66.885 57.148 67.257 57.052 67.593 56.86C67.937 56.66 68.209 56.376 68.409 56.008C68.609 55.632 68.709 55.196 68.709 54.7ZM72.2224 50.356C72.0144 50.356 71.8384 50.284 71.6944 50.14C71.5504 49.996 71.4784 49.82 71.4784 49.612C71.4784 49.404 71.5504 49.228 71.6944 49.084C71.8384 48.94 72.0144 48.868 72.2224 48.868C72.4224 48.868 72.5904 48.94 72.7264 49.084C72.8704 49.228 72.9424 49.404 72.9424 49.612C72.9424 49.82 72.8704 49.996 72.7264 50.14C72.5904 50.284 72.4224 50.356 72.2224 50.356ZM72.7504 51.424V58H71.6584V51.424H72.7504ZM77.8155 51.304C78.6155 51.304 79.2635 51.548 79.7595 52.036C80.2555 52.516 80.5035 53.212 80.5035 54.124V58H79.4235V54.28C79.4235 53.624 79.2595 53.124 78.9315 52.78C78.6035 52.428 78.1555 52.252 77.5875 52.252C77.0115 52.252 76.5515 52.432 76.2075 52.792C75.8715 53.152 75.7035 53.676 75.7035 54.364V58H74.6115V51.424H75.7035V52.36C75.9195 52.024 76.2115 51.764 76.5795 51.58C76.9555 51.396 77.3675 51.304 77.8155 51.304ZM84.9993 51.316C85.5673 51.316 86.0633 51.44 86.4873 51.688C86.9193 51.936 87.2393 52.248 87.4473 52.624V51.424H88.5513V58.144C88.5513 58.744 88.4233 59.276 88.1673 59.74C87.9113 60.212 87.5433 60.58 87.0633 60.844C86.5913 61.108 86.0393 61.24 85.4073 61.24C84.5433 61.24 83.8233 61.036 83.2473 60.628C82.6713 60.22 82.3313 59.664 82.2273 58.96H83.3073C83.4273 59.36 83.6753 59.68 84.0513 59.92C84.4273 60.168 84.8793 60.292 85.4073 60.292C86.0073 60.292 86.4953 60.104 86.8713 59.728C87.2553 59.352 87.4473 58.824 87.4473 58.144V56.764C87.2313 57.148 86.9113 57.468 86.4873 57.724C86.0633 57.98 85.5673 58.108 84.9993 58.108C84.4153 58.108 83.8833 57.964 83.4033 57.676C82.9313 57.388 82.5593 56.984 82.2873 56.464C82.0153 55.944 81.8793 55.352 81.8793 54.688C81.8793 54.016 82.0153 53.428 82.2873 52.924C82.5593 52.412 82.9313 52.016 83.4033 51.736C83.8833 51.456 84.4153 51.316 84.9993 51.316ZM87.4473 54.7C87.4473 54.204 87.3473 53.772 87.1473 53.404C86.9473 53.036 86.6753 52.756 86.3313 52.564C85.9953 52.364 85.6233 52.264 85.2153 52.264C84.8073 52.264 84.4353 52.36 84.0993 52.552C83.7633 52.744 83.4953 53.024 83.2953 53.392C83.0953 53.76 82.9953 54.192 82.9953 54.688C82.9953 55.192 83.0953 55.632 83.2953 56.008C83.4953 56.376 83.7633 56.66 84.0993 56.86C84.4353 57.052 84.8073 57.148 85.2153 57.148C85.6233 57.148 85.9953 57.052 86.3313 56.86C86.6753 56.66 86.9473 56.376 87.1473 56.008C87.3473 55.632 87.4473 55.196 87.4473 54.7ZM100.04 49.636V58H98.9479V54.208H94.6879V58H93.5959V49.636H94.6879V53.308H98.9479V49.636H100.04ZM104.772 58.108C104.156 58.108 103.596 57.968 103.092 57.688C102.596 57.408 102.204 57.012 101.916 56.5C101.636 55.98 101.496 55.38 101.496 54.7C101.496 54.028 101.64 53.436 101.928 52.924C102.224 52.404 102.624 52.008 103.128 51.736C103.632 51.456 104.196 51.316 104.82 51.316C105.444 51.316 106.008 51.456 106.512 51.736C107.016 52.008 107.412 52.4 107.7 52.912C107.996 53.424 108.144 54.02 108.144 54.7C108.144 55.38 107.992 55.98 107.688 56.5C107.392 57.012 106.988 57.408 106.476 57.688C105.964 57.968 105.396 58.108 104.772 58.108ZM104.772 57.148C105.164 57.148 105.532 57.056 105.876 56.872C106.22 56.688 106.496 56.412 106.704 56.044C106.92 55.676 107.028 55.228 107.028 54.7C107.028 54.172 106.924 53.724 106.716 53.356C106.508 52.988 106.236 52.716 105.9 52.54C105.564 52.356 105.2 52.264 104.808 52.264C104.408 52.264 104.04 52.356 103.704 52.54C103.376 52.716 103.112 52.988 102.912 53.356C102.712 53.724 102.612 54.172 102.612 54.7C102.612 55.236 102.708 55.688 102.9 56.056C103.1 56.424 103.364 56.7 103.692 56.884C104.02 57.06 104.38 57.148 104.772 57.148ZM112.448 58.108C111.832 58.108 111.272 57.968 110.768 57.688C110.272 57.408 109.88 57.012 109.592 56.5C109.312 55.98 109.172 55.38 109.172 54.7C109.172 54.028 109.316 53.436 109.604 52.924C109.9 52.404 110.3 52.008 110.804 51.736C111.308 51.456 111.872 51.316 112.496 51.316C113.12 51.316 113.684 51.456 114.188 51.736C114.692 52.008 115.088 52.4 115.376 52.912C115.672 53.424 115.82 54.02 115.82 54.7C115.82 55.38 115.668 55.98 115.364 56.5C115.068 57.012 114.664 57.408 114.152 57.688C113.64 57.968 113.072 58.108 112.448 58.108ZM112.448 57.148C112.84 57.148 113.208 57.056 113.552 56.872C113.896 56.688 114.172 56.412 114.38 56.044C114.596 55.676 114.704 55.228 114.704 54.7C114.704 54.172 114.6 53.724 114.392 53.356C114.184 52.988 113.912 52.716 113.576 52.54C113.24 52.356 112.876 52.264 112.484 52.264C112.084 52.264 111.716 52.356 111.38 52.54C111.052 52.716 110.788 52.988 110.588 53.356C110.388 53.724 110.288 54.172 110.288 54.7C110.288 55.236 110.384 55.688 110.576 56.056C110.776 56.424 111.04 56.7 111.368 56.884C111.696 57.06 112.056 57.148 112.448 57.148ZM120.928 58L118.348 55.096V58H117.256V49.12H118.348V54.34L120.88 51.424H122.404L119.308 54.7L122.416 58H120.928ZM133.051 58L131.959 56.896C131.551 57.32 131.115 57.636 130.651 57.844C130.187 58.044 129.663 58.144 129.079 58.144C128.503 58.144 127.991 58.04 127.543 57.832C127.103 57.624 126.759 57.328 126.511 56.944C126.271 56.56 126.151 56.112 126.151 55.6C126.151 55.016 126.315 54.504 126.643 54.064C126.979 53.616 127.471 53.264 128.119 53.008C127.863 52.704 127.679 52.424 127.567 52.168C127.455 51.912 127.399 51.632 127.399 51.328C127.399 50.976 127.487 50.66 127.663 50.38C127.847 50.092 128.107 49.868 128.443 49.708C128.779 49.548 129.167 49.468 129.607 49.468C130.039 49.468 130.415 49.552 130.735 49.72C131.055 49.888 131.295 50.124 131.455 50.428C131.615 50.724 131.687 51.056 131.671 51.424H130.579C130.587 51.096 130.495 50.84 130.303 50.656C130.111 50.464 129.863 50.368 129.559 50.368C129.239 50.368 128.979 50.46 128.779 50.644C128.587 50.82 128.491 51.048 128.491 51.328C128.491 51.568 128.555 51.8 128.683 52.024C128.819 52.248 129.043 52.524 129.355 52.852L131.851 55.36L132.067 55.024L132.883 53.656H134.059L133.075 55.36C132.939 55.6 132.779 55.852 132.595 56.116L134.479 58H133.051ZM129.079 57.208C129.511 57.208 129.899 57.124 130.243 56.956C130.595 56.788 130.927 56.528 131.239 56.176L128.779 53.704C127.755 54.096 127.243 54.716 127.243 55.564C127.243 56.036 127.411 56.428 127.747 56.74C128.091 57.052 128.535 57.208 129.079 57.208ZM139.793 57.112H142.721V58H138.701V49.636H139.793V57.112ZM146.749 58.108C146.133 58.108 145.573 57.968 145.069 57.688C144.573 57.408 144.181 57.012 143.893 56.5C143.613 55.98 143.473 55.38 143.473 54.7C143.473 54.028 143.617 53.436 143.905 52.924C144.201 52.404 144.601 52.008 145.105 51.736C145.609 51.456 146.173 51.316 146.797 51.316C147.421 51.316 147.985 51.456 148.489 51.736C148.993 52.008 149.389 52.4 149.677 52.912C149.973 53.424 150.121 54.02 150.121 54.7C150.121 55.38 149.969 55.98 149.665 56.5C149.369 57.012 148.965 57.408 148.453 57.688C147.941 57.968 147.373 58.108 146.749 58.108ZM146.749 57.148C147.141 57.148 147.509 57.056 147.853 56.872C148.197 56.688 148.473 56.412 148.681 56.044C148.897 55.676 149.005 55.228 149.005 54.7C149.005 54.172 148.901 53.724 148.693 53.356C148.485 52.988 148.213 52.716 147.877 52.54C147.541 52.356 147.177 52.264 146.785 52.264C146.385 52.264 146.017 52.356 145.681 52.54C145.353 52.716 145.089 52.988 144.889 53.356C144.689 53.724 144.589 54.172 144.589 54.7C144.589 55.236 144.685 55.688 144.877 56.056C145.077 56.424 145.341 56.7 145.669 56.884C145.997 57.06 146.357 57.148 146.749 57.148ZM154.425 58.108C153.809 58.108 153.249 57.968 152.745 57.688C152.249 57.408 151.857 57.012 151.569 56.5C151.289 55.98 151.149 55.38 151.149 54.7C151.149 54.028 151.293 53.436 151.581 52.924C151.877 52.404 152.277 52.008 152.781 51.736C153.285 51.456 153.849 51.316 154.473 51.316C155.097 51.316 155.661 51.456 156.165 51.736C156.669 52.008 157.065 52.4 157.353 52.912C157.649 53.424 157.797 54.02 157.797 54.7C157.797 55.38 157.645 55.98 157.341 56.5C157.045 57.012 156.641 57.408 156.129 57.688C155.617 57.968 155.049 58.108 154.425 58.108ZM154.425 57.148C154.817 57.148 155.185 57.056 155.529 56.872C155.873 56.688 156.149 56.412 156.357 56.044C156.573 55.676 156.681 55.228 156.681 54.7C156.681 54.172 156.577 53.724 156.369 53.356C156.161 52.988 155.889 52.716 155.553 52.54C155.217 52.356 154.853 52.264 154.461 52.264C154.061 52.264 153.693 52.356 153.357 52.54C153.029 52.716 152.765 52.988 152.565 53.356C152.365 53.724 152.265 54.172 152.265 54.7C152.265 55.236 152.361 55.688 152.553 56.056C152.753 56.424 153.017 56.7 153.345 56.884C153.673 57.06 154.033 57.148 154.425 57.148ZM160.325 52.636C160.541 52.26 160.861 51.948 161.285 51.7C161.717 51.444 162.217 51.316 162.785 51.316C163.369 51.316 163.897 51.456 164.369 51.736C164.849 52.016 165.225 52.412 165.497 52.924C165.769 53.428 165.905 54.016 165.905 54.688C165.905 55.352 165.769 55.944 165.497 56.464C165.225 56.984 164.849 57.388 164.369 57.676C163.897 57.964 163.369 58.108 162.785 58.108C162.225 58.108 161.729 57.984 161.297 57.736C160.873 57.48 160.549 57.164 160.325 56.788V61.12H159.233V51.424H160.325V52.636ZM164.789 54.688C164.789 54.192 164.689 53.76 164.489 53.392C164.289 53.024 164.017 52.744 163.673 52.552C163.337 52.36 162.965 52.264 162.557 52.264C162.157 52.264 161.785 52.364 161.441 52.564C161.105 52.756 160.833 53.04 160.625 53.416C160.425 53.784 160.325 54.212 160.325 54.7C160.325 55.196 160.425 55.632 160.625 56.008C160.833 56.376 161.105 56.66 161.441 56.86C161.785 57.052 162.157 57.148 162.557 57.148C162.965 57.148 163.337 57.052 163.673 56.86C164.017 56.66 164.289 56.376 164.489 56.008C164.689 55.632 164.789 55.192 164.789 54.688ZM179.025 49.696V58H177.933V51.808L175.173 58H174.405L171.633 51.796V58H170.541V49.696H171.717L174.789 56.56L177.861 49.696H179.025ZM180.469 54.688C180.469 54.016 180.605 53.428 180.877 52.924C181.149 52.412 181.521 52.016 181.993 51.736C182.473 51.456 183.005 51.316 183.589 51.316C184.165 51.316 184.665 51.44 185.089 51.688C185.513 51.936 185.829 52.248 186.037 52.624V51.424H187.141V58H186.037V56.776C185.821 57.16 185.497 57.48 185.065 57.736C184.641 57.984 184.145 58.108 183.577 58.108C182.993 58.108 182.465 57.964 181.993 57.676C181.521 57.388 181.149 56.984 180.877 56.464C180.605 55.944 180.469 55.352 180.469 54.688ZM186.037 54.7C186.037 54.204 185.937 53.772 185.737 53.404C185.537 53.036 185.265 52.756 184.921 52.564C184.585 52.364 184.213 52.264 183.805 52.264C183.397 52.264 183.025 52.36 182.689 52.552C182.353 52.744 182.085 53.024 181.885 53.392C181.685 53.76 181.585 54.192 181.585 54.688C181.585 55.192 181.685 55.632 181.885 56.008C182.085 56.376 182.353 56.66 182.689 56.86C183.025 57.052 183.397 57.148 183.805 57.148C184.213 57.148 184.585 57.052 184.921 56.86C185.265 56.66 185.537 56.376 185.737 56.008C185.937 55.632 186.037 55.196 186.037 54.7ZM192.191 51.304C192.991 51.304 193.639 51.548 194.135 52.036C194.631 52.516 194.879 53.212 194.879 54.124V58H193.799V54.28C193.799 53.624 193.635 53.124 193.307 52.78C192.979 52.428 192.531 52.252 191.963 52.252C191.387 52.252 190.927 52.432 190.583 52.792C190.247 53.152 190.079 53.676 190.079 54.364V58H188.987V51.424H190.079V52.36C190.295 52.024 190.587 51.764 190.955 51.58C191.331 51.396 191.743 51.304 192.191 51.304ZM202.494 51.424V58H201.402V57.028C201.194 57.364 200.902 57.628 200.526 57.82C200.158 58.004 199.75 58.096 199.302 58.096C198.79 58.096 198.33 57.992 197.922 57.784C197.514 57.568 197.19 57.248 196.95 56.824C196.718 56.4 196.602 55.884 196.602 55.276V51.424H197.682V55.132C197.682 55.78 197.846 56.28 198.174 56.632C198.502 56.976 198.95 57.148 199.518 57.148C200.102 57.148 200.562 56.968 200.898 56.608C201.234 56.248 201.402 55.724 201.402 55.036V51.424H202.494ZM207.014 52.324H205.634V58H204.542V52.324H203.69V51.424H204.542V50.956C204.542 50.22 204.73 49.684 205.106 49.348C205.49 49.004 206.102 48.832 206.942 48.832V49.744C206.462 49.744 206.122 49.84 205.922 50.032C205.73 50.216 205.634 50.524 205.634 50.956V51.424H207.014V52.324ZM207.879 54.688C207.879 54.016 208.015 53.428 208.287 52.924C208.559 52.412 208.931 52.016 209.403 51.736C209.883 51.456 210.415 51.316 210.999 51.316C211.575 51.316 212.075 51.44 212.499 51.688C212.923 51.936 213.239 52.248 213.447 52.624V51.424H214.551V58H213.447V56.776C213.231 57.16 212.907 57.48 212.475 57.736C212.051 57.984 211.555 58.108 210.987 58.108C210.403 58.108 209.875 57.964 209.403 57.676C208.931 57.388 208.559 56.984 208.287 56.464C208.015 55.944 207.879 55.352 207.879 54.688ZM213.447 54.7C213.447 54.204 213.347 53.772 213.147 53.404C212.947 53.036 212.675 52.756 212.331 52.564C211.995 52.364 211.623 52.264 211.215 52.264C210.807 52.264 210.435 52.36 210.099 52.552C209.763 52.744 209.495 53.024 209.295 53.392C209.095 53.76 208.995 54.192 208.995 54.688C208.995 55.192 209.095 55.632 209.295 56.008C209.495 56.376 209.763 56.66 210.099 56.86C210.435 57.052 210.807 57.148 211.215 57.148C211.623 57.148 211.995 57.052 212.331 56.86C212.675 56.66 212.947 56.376 213.147 56.008C213.347 55.632 213.447 55.196 213.447 54.7ZM215.989 54.7C215.989 54.02 216.125 53.428 216.397 52.924C216.669 52.412 217.045 52.016 217.525 51.736C218.013 51.456 218.569 51.316 219.193 51.316C220.001 51.316 220.665 51.512 221.185 51.904C221.713 52.296 222.061 52.84 222.229 53.536H221.053C220.941 53.136 220.721 52.82 220.393 52.588C220.073 52.356 219.673 52.24 219.193 52.24C218.569 52.24 218.065 52.456 217.681 52.888C217.297 53.312 217.105 53.916 217.105 54.7C217.105 55.492 217.297 56.104 217.681 56.536C218.065 56.968 218.569 57.184 219.193 57.184C219.673 57.184 220.073 57.072 220.393 56.848C220.713 56.624 220.933 56.304 221.053 55.888H222.229C222.053 56.56 221.701 57.1 221.173 57.508C220.645 57.908 219.985 58.108 219.193 58.108C218.569 58.108 218.013 57.968 217.525 57.688C217.045 57.408 216.669 57.012 216.397 56.5C216.125 55.988 215.989 55.388 215.989 54.7ZM225.018 52.324V56.2C225.018 56.52 225.086 56.748 225.222 56.884C225.358 57.012 225.594 57.076 225.93 57.076H226.734V58H225.75C225.142 58 224.686 57.86 224.382 57.58C224.078 57.3 223.926 56.84 223.926 56.2V52.324H223.074V51.424H223.926V49.768H225.018V51.424H226.734V52.324H225.018ZM233.889 51.424V58H232.797V57.028C232.589 57.364 232.297 57.628 231.921 57.82C231.553 58.004 231.145 58.096 230.697 58.096C230.185 58.096 229.725 57.992 229.317 57.784C228.909 57.568 228.585 57.248 228.345 56.824C228.113 56.4 227.997 55.884 227.997 55.276V51.424H229.077V55.132C229.077 55.78 229.241 56.28 229.569 56.632C229.897 56.976 230.345 57.148 230.913 57.148C231.497 57.148 231.957 56.968 232.293 56.608C232.629 56.248 232.797 55.724 232.797 55.036V51.424H233.889ZM236.825 52.492C237.017 52.116 237.289 51.824 237.641 51.616C238.001 51.408 238.437 51.304 238.949 51.304V52.432H238.661C237.437 52.432 236.825 53.096 236.825 54.424V58H235.733V51.424H236.825V52.492ZM246.209 54.46C246.209 54.668 246.197 54.888 246.173 55.12H240.917C240.957 55.768 241.177 56.276 241.577 56.644C241.985 57.004 242.477 57.184 243.053 57.184C243.525 57.184 243.917 57.076 244.229 56.86C244.549 56.636 244.773 56.34 244.901 55.972H246.077C245.901 56.604 245.549 57.12 245.021 57.52C244.493 57.912 243.837 58.108 243.053 58.108C242.429 58.108 241.869 57.968 241.373 57.688C240.885 57.408 240.501 57.012 240.221 56.5C239.941 55.98 239.801 55.38 239.801 54.7C239.801 54.02 239.937 53.424 240.209 52.912C240.481 52.4 240.861 52.008 241.349 51.736C241.845 51.456 242.413 51.316 243.053 51.316C243.677 51.316 244.229 51.452 244.709 51.724C245.189 51.996 245.557 52.372 245.813 52.852C246.077 53.324 246.209 53.86 246.209 54.46ZM245.081 54.232C245.081 53.816 244.989 53.46 244.805 53.164C244.621 52.86 244.369 52.632 244.049 52.48C243.737 52.32 243.389 52.24 243.005 52.24C242.453 52.24 241.981 52.416 241.589 52.768C241.205 53.12 240.985 53.608 240.929 54.232H245.081Z" fill="white"/>
</svg>
