<svg width="63" height="63" viewBox="0 0 63 63" fill="none" xmlns="http://www.w3.org/2000/svg">
<path d="M81.9539 59.992C80.242 63.4383 78.2058 66.646 75.9132 69.5876C71.0924 75.7818 65.1343 80.7868 58.64 84.3299C46.8828 90.7383 32.9659 92.9643 20.201 90.1819C17.3103 89.5494 14.4521 88.6161 11.6792 87.4029C1.9789 83.1514 -6.70502 75.4503 -12.2653 65.2014C-18.3088 54.0642 -24.6323 36.6571 -18.9483 23.7606C-18.4944 22.7375 -17.97 21.7418 -17.3601 20.7808C-10.3767 9.74408 3.55221 17.1618 12.7665 17.67C15.4743 17.8187 17.3778 17.1655 18.8895 15.9072C20.7103 14.3932 21.9659 11.9978 23.3773 9.05612C23.4157 8.97324 23.4569 8.89372 23.498 8.8142C26.1619 3.39088 30.5966 -0.933164 35.8681 -2.278C42.8695 -4.06496 50.9579 -0.874643 54.9476 6.28048C56.5713 9.19108 57.4906 12.5542 58.7489 15.703C63.5873 27.801 76.3433 26.1694 83.0675 35.6992C88.2035 42.979 85.5928 52.6782 81.9539 59.992Z" fill="#EFF2F4"/>
<path d="M34.1878 -2.63446V-2.1201C38.637 -2.1201 42.7203 -0.340981 45.6849 2.8891C47.1216 4.45458 48.3273 6.35606 49.4932 8.19482C50.0641 9.09558 50.6546 10.0269 51.2692 10.915C55.3793 16.8561 61.0964 17.8632 66.6253 18.8373C70.9468 19.5987 75.4156 20.386 79.0858 23.5668C81.9292 26.0308 83.6019 29.6229 84.0575 34.2429C84.424 37.9594 84.0107 42.2403 82.8297 46.9675C79.9955 58.3103 73.7782 68.9573 65.3227 76.9474C55.2206 86.4935 42.1636 92.4731 29.4995 93.3535C28.5265 93.4209 27.5362 93.4554 26.5556 93.4554C24.6306 93.4554 22.6787 93.3238 20.7543 93.0642C10.1896 91.6393 0.420958 86.4414 -6.75236 78.4281C-12.046 72.5145 -16.3972 65.8519 -19.0052 59.6675C-22.4959 51.3893 -23.0727 43.8399 -20.7196 37.2297C-19.2756 33.1736 -16.5815 30.4526 -12.4831 28.9115C-8.81932 27.5336 -4.5664 27.2429 -0.453762 26.9615C2.43696 26.7639 5.16752 26.5771 7.54164 26.0235C13.6059 24.609 15.0115 20.4541 16.4638 14.277C17.9666 7.88542 21.4529 2.70458 26.0284 0.0630598C28.5027 -1.36522 31.324 -2.12038 34.1873 -2.12038L34.1878 -2.63446ZM34.1873 -2.63446C31.273 -2.63446 28.3543 -1.87342 25.771 -0.38214C20.854 2.45622 17.4041 8.03018 15.9629 14.1594C14.5624 20.1161 13.2912 24.1543 7.4246 25.5229C-1.63032 27.6349 -16.6856 24.3645 -21.2046 37.0575C-26.559 52.1002 -15.9392 68.9372 -7.13596 78.7713C0.372238 87.1587 10.3884 92.1853 20.6851 93.5741C22.637 93.8373 24.5984 93.9697 26.555 93.9697C27.5502 93.9697 28.5442 93.9356 29.5348 93.8667C42.5078 92.9651 55.5706 86.8706 65.6758 77.3215C73.9103 69.54 80.3542 58.9955 83.3284 47.0924C85.3606 38.9595 85.9066 28.7975 79.4224 23.1782C70.9322 15.8206 58.8768 21.0082 51.6917 10.6227C49.8208 7.91846 48.2391 4.91182 46.0635 2.54162C42.8656 -0.94354 38.5315 -2.63474 34.1873 -2.63446Z" fill="#EFF2F4"/>
<path d="M62.7126 6.63745C63.1225 10.311 65.103 13.5014 67.8414 15.3205C72.8268 18.6326 80.7754 17.3155 83.1294 10.4748C85.8277 2.63317 78.7065 -4.89407 72.5515 -5.72175C66.6276 -6.51751 61.9628 -0.0819931 62.7126 6.63745Z" fill="#EFF2F4"/>
<path d="M3.73639 9.21594C4.03851 12.2509 7.10143 13.9801 9.47695 13.1023C13.6727 11.552 13.7301 4.0183 8.91611 3.6921C6.28719 3.51402 3.40291 5.86322 3.73639 9.21594Z" fill="#EFF2F4"/>
<path fill-rule="evenodd" clip-rule="evenodd" d="M60.5339 47.3694C60.5339 40.1173 54.6553 34.2379 47.4058 34.2379C43.9917 34.2379 40.3157 34.2379 36.9016 34.2379C29.6521 34.2379 23.7734 40.1173 23.7734 47.3694V52.622C23.7734 54.0726 24.9498 55.2484 26.3987 55.2484H57.9086C59.3576 55.2484 60.5339 54.0726 60.5339 52.622C60.5339 51.2126 60.5339 49.3584 60.5339 47.3694Z" fill="#64B5F6"/>
<path d="M42 28.875C47.799 28.875 52.5 24.174 52.5 18.375C52.5 12.576 47.799 7.875 42 7.875C36.201 7.875 31.5 12.576 31.5 18.375C31.5 24.174 36.201 28.875 42 28.875Z" fill="#64B5F6"/>
<path fill-rule="evenodd" clip-rule="evenodd" d="M39.5339 47.3694C39.5339 40.1173 33.6553 34.2379 26.4058 34.2379C22.9917 34.2379 19.3157 34.2379 15.9016 34.2379C8.65208 34.2379 2.77344 40.1173 2.77344 47.3694V52.622C2.77344 54.0726 3.94976 55.2484 5.39873 55.2484H36.9086C38.3576 55.2484 39.5339 54.0726 39.5339 52.622C39.5339 51.2126 39.5339 49.3584 39.5339 47.3694Z" fill="#80C783"/>
<path d="M21 28.875C26.799 28.875 31.5 24.174 31.5 18.375C31.5 12.576 26.799 7.875 21 7.875C15.201 7.875 10.5 12.576 10.5 18.375C10.5 24.174 15.201 28.875 21 28.875Z" fill="#80C783"/>
<path fill-rule="evenodd" clip-rule="evenodd" d="M31.5 12.9623C29.5352 9.16257 25.5688 6.5625 21 6.5625C14.4808 6.5625 9.1875 11.8558 9.1875 18.375C9.1875 24.8942 14.4808 30.1875 21 30.1875C25.5688 30.1875 29.5352 27.5874 31.5 23.7877C33.4648 27.5887 37.4312 30.1875 42 30.1875C48.5192 30.1875 53.8125 24.8942 53.8125 18.375C53.8125 11.8558 48.5192 6.5625 42 6.5625C37.4312 6.5625 33.4648 9.16257 31.5 12.9623ZM42 9.1875C47.0702 9.1875 51.1875 13.3048 51.1875 18.375C51.1875 23.4452 47.0702 27.5625 42 27.5625C36.9298 27.5625 32.8125 23.4452 32.8125 18.375C32.8125 13.3048 36.9298 9.1875 42 9.1875ZM21 9.1875C26.0702 9.1875 30.1875 13.3048 30.1875 18.375C30.1875 23.4452 26.0702 27.5625 21 27.5625C15.9298 27.5625 11.8125 23.4452 11.8125 18.375C11.8125 13.3048 15.9298 9.1875 21 9.1875Z" fill="black"/>
<path fill-rule="evenodd" clip-rule="evenodd" d="M31.5 33.7969C33.1275 33.1616 34.8981 32.8125 36.75 32.8125H47.25C55.2234 32.8125 61.6875 39.2766 61.6875 47.25V52.5C61.6875 54.6748 59.9248 56.4375 57.75 56.4375H5.25C3.07519 56.4375 1.3125 54.6748 1.3125 52.5V47.25C1.3125 39.2766 7.77656 32.8125 15.75 32.8125H26.25C28.1019 32.8125 29.8725 33.1616 31.5 33.7969ZM38.0625 47.25V52.5C38.0625 53.2245 37.4745 53.8125 36.75 53.8125H5.25C4.5255 53.8125 3.9375 53.2245 3.9375 52.5V47.25C3.9375 40.7256 9.22556 35.4375 15.75 35.4375H26.25C32.7744 35.4375 38.0625 40.7256 38.0625 47.25ZM40.4631 53.8125H57.75C58.4745 53.8125 59.0625 53.2245 59.0625 52.5V47.25C59.0625 40.7256 53.7744 35.4375 47.25 35.4375H36.75C36.0793 35.4375 35.4204 35.4939 34.7799 35.6016C38.3617 38.2279 40.6875 42.4672 40.6875 47.25V52.5C40.6875 52.9607 40.6088 53.4017 40.4631 53.8125Z" fill="black"/>
</svg>
