<svg width="113" height="112" viewBox="0 0 113 112" fill="none" xmlns="http://www.w3.org/2000/svg">
<path d="M106.954 68.992C105.242 72.4383 103.206 75.646 100.913 78.5876C96.0924 84.7818 90.1343 89.7868 83.64 93.3299C71.8828 99.7383 57.9659 101.964 45.201 99.1819C42.3103 98.5494 39.4521 97.6161 36.6792 96.4029C26.9789 92.1514 18.295 84.4503 12.7347 74.2014C6.69122 63.0642 0.367698 45.6571 6.0517 32.7606C6.50558 31.7375 7.03002 30.7418 7.63986 29.7808C14.6233 18.7441 28.5522 26.1618 37.7665 26.67C40.4743 26.8187 42.3778 26.1655 43.8895 24.9072C45.7103 23.3932 46.9659 20.9978 48.3773 18.0561C48.4157 17.9732 48.4569 17.8937 48.498 17.8142C51.1619 12.3909 55.5966 8.06684 60.8681 6.722C67.8695 4.93504 75.9579 8.12536 79.9476 15.2805C81.5713 18.1911 82.4906 21.5542 83.7489 24.703C88.5873 36.801 101.343 35.1694 108.067 44.6992C113.203 51.979 110.593 61.6782 106.954 68.992Z" fill="#EFF2F4"/>
<path d="M59.1878 6.36554V6.8799C63.637 6.8799 67.7203 8.65902 70.6849 11.8891C72.1216 13.4546 73.3273 15.3561 74.4932 17.1948C75.0641 18.0956 75.6546 19.0269 76.2692 19.915C80.3793 25.8561 86.0964 26.8632 91.6253 27.8373C95.9468 28.5987 100.416 29.386 104.086 32.5668C106.929 35.0308 108.602 38.6229 109.058 43.2429C109.424 46.9594 109.011 51.2403 107.83 55.9675C104.996 67.3103 98.7782 77.9573 90.3227 85.9474C80.2206 95.4935 67.1636 101.473 54.4995 102.353C53.5265 102.421 52.5362 102.455 51.5556 102.455C49.6306 102.455 47.6787 102.324 45.7543 102.064C35.1896 100.639 25.421 95.4414 18.2476 87.4281C12.954 81.5145 8.60276 74.8519 5.99484 68.6675C2.50408 60.3893 1.92728 52.8399 4.2804 46.2297C5.72436 42.1736 8.41852 39.4526 12.5169 37.9115C16.1807 36.5336 20.4336 36.2429 24.5462 35.9615C27.437 35.7639 30.1675 35.5771 32.5416 35.0235C38.6059 33.609 40.0115 29.4541 41.4638 23.277C42.9666 16.8854 46.4529 11.7046 51.0284 9.06306C53.5027 7.63478 56.324 6.87962 59.1873 6.87962L59.1878 6.36554ZM59.1873 6.36554C56.273 6.36554 53.3543 7.12658 50.771 8.61786C45.854 11.4562 42.4041 17.0302 40.9629 23.1594C39.5624 29.1161 38.2912 33.1543 32.4246 34.5229C23.3697 36.6349 8.31436 33.3645 3.79544 46.0575C-1.559 61.1002 9.06084 77.9372 17.864 87.7713C25.3722 96.1587 35.3884 101.185 45.6851 102.574C47.637 102.837 49.5984 102.97 51.555 102.97C52.5502 102.97 53.5442 102.936 54.5348 102.867C67.5078 101.965 80.5706 95.8706 90.6758 86.3215C98.9103 78.54 105.354 67.9955 108.328 56.0924C110.361 47.9595 110.907 37.7975 104.422 32.1782C95.9322 24.8206 83.8768 30.0082 76.6917 19.6227C74.8208 16.9185 73.2391 13.9118 71.0635 11.5416C67.8656 8.05646 63.5315 6.36526 59.1873 6.36554Z" fill="#EFF2F4"/>
<path d="M87.7126 15.6374C88.1225 19.311 90.103 22.5014 92.8414 24.3205C97.8268 27.6326 105.775 26.3155 108.129 19.4748C110.828 11.6332 103.707 4.10593 97.5515 3.27825C91.6276 2.48249 86.9628 8.91801 87.7126 15.6374Z" fill="#EFF2F4"/>
<path d="M65.3908 97.1645C65.8007 100.838 67.7812 104.028 70.5196 105.848C75.505 109.16 83.4536 107.843 85.8076 101.002C88.5059 93.1602 81.3847 85.633 75.2297 84.8053C69.3057 84.0095 64.6412 90.4448 65.3908 97.1645Z" fill="#EFF2F4"/>
<path d="M28.7364 18.2159C29.0385 21.2509 32.1014 22.9801 34.4769 22.1023C38.6727 20.552 38.7301 13.0183 33.9161 12.6921C31.2872 12.514 28.4029 14.8632 28.7364 18.2159Z" fill="#EFF2F4"/>
<path d="M54.9655 10.6128L22.1657 26.4469C21.7546 26.6454 21.4932 27.0619 21.4932 27.5185V66.4811C21.4932 66.9377 21.7546 67.3541 22.1657 67.5527L54.9655 83.3872C55.6192 83.7028 56.381 83.7028 57.0347 83.3872L89.8345 67.5528C90.2457 67.3544 90.5071 66.9378 90.5071 66.4812V27.5186C90.5071 27.062 90.2457 26.6457 89.8345 26.4471L57.0347 10.6128C56.381 10.2972 55.6192 10.2972 54.9655 10.6128Z" fill="#FFE17D"/>
<path d="M21.691 26.8671C21.5659 27.0576 21.4932 27.2817 21.4932 27.5185V66.4811C21.4932 66.9378 21.7546 67.354 22.1657 67.5527L54.9655 83.3872C55.2924 83.545 55.6463 83.624 56.0001 83.624V43.4302L21.691 26.8671Z" fill="#FFC350"/>
<path d="M90.3091 26.8671C90.4342 27.0576 90.507 27.2817 90.507 27.5185V66.4811C90.507 66.9378 90.2456 67.354 89.8344 67.5527L57.0346 83.3872C56.7078 83.545 56.3539 83.624 56 83.624V43.4302L90.3091 26.8671Z" fill="#FFD164"/>
<path d="M78.6822 32.4608L44.2525 15.8281L35.1768 20.2272L69.6836 36.8859L78.6822 32.4608Z" fill="#FF8087"/>
<path d="M69.6836 36.8859V49.7911C69.6836 50.2297 70.1421 50.5175 70.5373 50.3268L78.0096 46.7195C78.4209 46.521 78.6822 46.1045 78.6822 45.6479V32.4608L69.6836 36.8859Z" fill="#E6646E"/>
<path d="M90.9912 25.769L56.4842 9.11072C56.1783 8.96317 55.822 8.96317 55.5162 9.11072L21.0091 25.769C20.6244 25.9547 20.3799 26.3443 20.3799 26.7715V67.228C20.3799 67.6552 20.6244 68.0449 21.0091 68.2306L55.5161 84.8891C55.669 84.9629 55.8346 84.9998 56.0001 84.9998C56.1656 84.9998 56.3311 84.9629 56.4842 84.8891L90.9912 68.2306C91.3759 68.0449 91.6204 67.6552 91.6204 67.228V26.7717C91.6204 26.3443 91.3758 25.9548 90.9912 25.769ZM56.0001 11.3495L87.9464 26.7717L78.6858 31.2423C78.6272 31.1976 78.5653 31.1564 78.4973 31.1236L46.7681 15.8063L56.0001 11.3495ZM44.2538 17.065L76.1536 32.4648L69.6202 35.619L37.7336 20.2253L44.2538 17.065ZM70.7973 37.5231L76.9 34.577V46.2361L70.7973 49.1823V37.5231ZM57.1134 82.113V44.1289L64.8133 40.4117C65.367 40.1444 65.5991 39.479 65.3318 38.9251C65.0645 38.3716 64.399 38.1392 63.8452 38.4066L56.0001 42.194L52.9132 40.7037C52.3594 40.4361 51.694 40.6685 51.4266 41.2222C51.1593 41.7759 51.3914 42.4415 51.9451 42.7088L54.8869 44.1289V82.1129L22.6064 66.5293V28.5452L47.1877 40.412C47.3437 40.4874 47.5086 40.5231 47.6709 40.5231C48.0847 40.5231 48.4822 40.2912 48.6741 39.8935C48.9415 39.3399 48.7093 38.6743 48.1557 38.4069L24.0539 26.7715L35.1132 21.4325L68.5553 37.5772C68.5602 37.584 68.5657 37.5901 68.5707 37.5968V50.956C68.5707 51.3391 68.7677 51.6952 69.0922 51.899C69.2724 52.0121 69.478 52.0693 69.6841 52.0693C69.8492 52.0693 70.0147 52.0326 70.168 51.9585L78.4973 47.9375C78.8821 47.7518 79.1265 47.3623 79.1265 46.935V33.5021L89.3938 28.5455V66.5296L57.1134 82.113Z" fill="black"/>
<path d="M31.7939 62.2119L26.7299 59.7672C26.1759 59.4996 25.5107 59.7321 25.2433 60.2857C24.976 60.8394 25.2081 61.505 25.7618 61.7723L30.8258 64.217C30.9818 64.2924 31.1467 64.328 31.3089 64.328C31.7228 64.328 32.1203 64.0961 32.3122 63.6985C32.5797 63.1446 32.3475 62.4792 31.7939 62.2119Z" fill="black"/>
<path d="M36.4541 59.1781L26.7367 54.4869C26.1828 54.2196 25.5174 54.4517 25.2501 55.0055C24.9829 55.5592 25.215 56.2248 25.7687 56.4921L35.4862 61.1834C35.6422 61.2586 35.8071 61.2944 35.9693 61.2944C36.3832 61.2944 36.7807 61.0625 36.9726 60.6649C37.24 60.1111 37.0078 59.4453 36.4541 59.1781Z" fill="black"/>
</svg>
