<svg width="112" height="112" viewBox="0 0 112 112" fill="none" xmlns="http://www.w3.org/2000/svg">
<path d="M106.454 68.992C104.742 72.4383 102.706 75.646 100.413 78.5876C95.5924 84.7818 89.6343 89.7868 83.14 93.3299C71.3828 99.7383 57.4659 101.964 44.701 99.1819C41.8103 98.5494 38.9521 97.6161 36.1792 96.4029C26.4789 92.1514 17.795 84.4503 12.2347 74.2014C6.19122 63.0642 -0.132302 45.6571 5.5517 32.7606C6.00558 31.7375 6.53002 30.7418 7.13986 29.7808C14.1233 18.7441 28.0522 26.1618 37.2665 26.67C39.9743 26.8187 41.8778 26.1655 43.3895 24.9072C45.2103 23.3932 46.4659 20.9978 47.8773 18.0561C47.9157 17.9732 47.9569 17.8937 47.998 17.8142C50.6619 12.3909 55.0966 8.06684 60.3681 6.722C67.3695 4.93504 75.4579 8.12536 79.4476 15.2805C81.0713 18.1911 81.9906 21.5542 83.2489 24.703C88.0873 36.801 100.843 35.1694 107.567 44.6992C112.703 51.979 110.093 61.6782 106.454 68.992Z" fill="#EFF2F4"/>
<path d="M58.6878 6.36554V6.8799C63.137 6.8799 67.2203 8.65902 70.1849 11.8891C71.6216 13.4546 72.8273 15.3561 73.9932 17.1948C74.5641 18.0956 75.1546 19.0269 75.7692 19.915C79.8793 25.8561 85.5964 26.8632 91.1253 27.8373C95.4468 28.5987 99.9156 29.386 103.586 32.5668C106.429 35.0308 108.102 38.6229 108.558 43.2429C108.924 46.9594 108.511 51.2403 107.33 55.9675C104.496 67.3103 98.2782 77.9573 89.8227 85.9474C79.7206 95.4935 66.6636 101.473 53.9995 102.353C53.0265 102.421 52.0362 102.455 51.0556 102.455C49.1306 102.455 47.1787 102.324 45.2543 102.064C34.6896 100.639 24.921 95.4414 17.7476 87.4281C12.454 81.5145 8.10276 74.8519 5.49484 68.6675C2.00408 60.3893 1.42728 52.8399 3.7804 46.2297C5.22436 42.1736 7.91852 39.4526 12.0169 37.9115C15.6807 36.5336 19.9336 36.2429 24.0462 35.9615C26.937 35.7639 29.6675 35.5771 32.0416 35.0235C38.1059 33.609 39.5115 29.4541 40.9638 23.277C42.4666 16.8854 45.9529 11.7046 50.5284 9.06306C53.0027 7.63478 55.824 6.87962 58.6873 6.87962L58.6878 6.36554ZM58.6873 6.36554C55.773 6.36554 52.8543 7.12658 50.271 8.61786C45.354 11.4562 41.9041 17.0302 40.4629 23.1594C39.0624 29.1161 37.7912 33.1543 31.9246 34.5229C22.8697 36.6349 7.81436 33.3645 3.29544 46.0575C-2.059 61.1002 8.56084 77.9372 17.364 87.7713C24.8722 96.1587 34.8884 101.185 45.1851 102.574C47.137 102.837 49.0984 102.97 51.055 102.97C52.0502 102.97 53.0442 102.936 54.0348 102.867C67.0078 101.965 80.0706 95.8706 90.1758 86.3215C98.4103 78.54 104.854 67.9955 107.828 56.0924C109.861 47.9595 110.407 37.7975 103.922 32.1782C95.4322 24.8206 83.3768 30.0082 76.1917 19.6227C74.3208 16.9185 72.7391 13.9118 70.5635 11.5416C67.3656 8.05646 63.0315 6.36526 58.6873 6.36554Z" fill="#EFF2F4"/>
<path d="M87.2126 15.6374C87.6225 19.311 89.603 22.5014 92.3414 24.3205C97.3268 27.6326 105.275 26.3155 107.629 19.4748C110.328 11.6332 103.207 4.10593 97.0515 3.27825C91.1276 2.48249 86.4628 8.91801 87.2126 15.6374Z" fill="#EFF2F4"/>
<path d="M64.8908 97.1645C65.3007 100.838 67.2812 104.028 70.0196 105.848C75.005 109.16 82.9536 107.843 85.3076 101.002C88.0059 93.1602 80.8847 85.633 74.7297 84.8053C68.8057 84.0095 64.1412 90.4448 64.8908 97.1645Z" fill="#EFF2F4"/>
<path d="M28.2364 18.2159C28.5385 21.2509 31.6014 22.9801 33.9769 22.1023C38.1727 20.552 38.2301 13.0183 33.4161 12.6921C30.7872 12.514 27.9029 14.8632 28.2364 18.2159Z" fill="#EFF2F4"/>
<g clip-path="url(#clip0_152_44)">
<path d="M96.8174 57.8028C96.819 58.4941 96.2606 59.0541 95.5693 59.0556L89.5585 59.065C88.2557 56.8251 85.8266 55.3206 83.0488 55.3253C80.2694 55.33 77.845 56.8456 76.5516 59.0931L71.7951 59.1009L71.7686 45.3369L96.6346 45.2901C96.741 45.6937 96.7957 46.1127 96.7973 46.5413L96.8035 50.2951L94.301 50.2998C93.6129 50.3013 93.0513 50.8645 93.0529 51.5526L93.0545 52.8039C93.056 53.492 93.6207 54.0551 94.3088 54.0536L96.8114 54.0489L96.8174 57.8028Z" fill="#FFC36E"/>
<path d="M96.8034 50.2951L96.8112 54.0489L94.3087 54.0536C93.6206 54.0551 93.0559 53.492 93.0543 52.8039L93.0527 51.5526C93.0512 50.8645 93.6127 50.3014 94.3009 50.2998L96.8034 50.2951Z" fill="#B4E1FA"/>
<path d="M96.6347 45.2899L71.7687 45.3368L71.7593 40.3316L89.2772 40.2988L94.0211 42.0693C95.3366 42.7233 96.2766 43.9088 96.6347 45.2899Z" fill="#FFD782"/>
<path d="M89.5586 59.065C90.1998 60.1692 90.5675 61.4503 90.5706 62.8188C90.5784 66.9652 87.2234 70.3327 83.077 70.3405C78.9305 70.3484 75.563 66.9933 75.5552 62.8469C75.5521 61.4799 75.9149 60.1974 76.5515 59.0931C77.8449 56.8455 80.2693 55.33 83.0487 55.3253C85.8267 55.3206 88.2557 56.8252 89.5586 59.065Z" fill="#464655"/>
<path d="M86.5745 30.1073L89.2773 40.2989L71.7594 40.3318L71.7344 26.5678L81.7743 26.549C83.9843 26.5443 85.9348 27.9911 86.5745 30.1073Z" fill="#B4E1FA"/>
<path d="M19.2244 50.4406L19.1729 22.9124C19.1713 22.2212 19.7313 21.6596 20.4225 21.6596L70.4736 21.5641C71.1633 21.5641 71.7249 22.1226 71.7264 22.8138L71.7343 26.5676L71.7593 40.3316L71.7686 45.3368L71.7952 59.1008L55.5317 59.1289L39.5059 59.1586C38.2031 56.9187 35.7756 55.4158 32.9978 55.4204C30.2184 55.4251 27.794 56.9408 26.499 59.1883L20.4929 59.1977C19.8016 59.1977 19.24 58.6392 19.2385 57.948L19.2244 50.4406Z" fill="#FFD782"/>
<path d="M58.0404 64.1311C58.0419 65.5076 56.919 66.6368 55.5425 66.6383L48.0348 66.6524C46.6584 66.6555 45.5292 65.531 45.5276 64.1546L45.5245 62.9033L45.523 61.6521C45.5198 60.2756 46.6444 59.148 48.0208 59.1449L55.5285 59.1308C55.53 59.1308 55.53 59.1308 55.5316 59.1308C56.9065 59.1308 58.0326 60.2538 58.0357 61.6286L58.0372 62.8799L58.0404 64.1311Z" fill="#AFB9D2"/>
<path d="M39.5062 59.1589C40.149 60.2616 40.5167 61.5442 40.5198 62.9127C40.5276 67.0591 37.1726 70.4282 33.0262 70.4344C28.8797 70.4423 25.5122 67.0872 25.5044 62.9424C25.5013 61.5753 25.8641 60.2944 26.4991 59.1886C27.7941 56.9409 30.2185 55.4254 32.9979 55.4208C35.7759 55.4159 38.2032 56.919 39.5062 59.1589Z" fill="#464655"/>
<path d="M83.0427 65.5669C84.5112 65.5669 85.7016 64.3765 85.7016 62.908C85.7016 61.4395 84.5112 60.2491 83.0427 60.2491C81.5742 60.2491 80.3838 61.4395 80.3838 62.908C80.3838 64.3765 81.5742 65.5669 83.0427 65.5669Z" fill="#C7CFE2"/>
<path d="M32.9916 65.7233C34.5465 65.7233 35.8069 64.4628 35.8069 62.908C35.8069 61.3531 34.5465 60.0927 32.9916 60.0927C31.4367 60.0927 30.1763 61.3531 30.1763 62.908C30.1763 64.4628 31.4367 65.7233 32.9916 65.7233Z" fill="#C7CFE2"/>
<path d="M35.5147 61.7497C35.5139 61.7497 35.5132 61.7497 35.5124 61.7497C34.8646 61.7509 34.3402 62.277 34.3414 62.925C34.3421 63.2802 34.2044 63.6142 33.9536 63.866C33.703 64.1175 33.3694 64.2566 33.0142 64.2572C33.0135 64.2572 33.0125 64.2572 33.0117 64.2572C32.2799 64.2572 31.6836 63.6624 31.6822 62.9303C31.6808 62.197 32.2761 61.5995 33.0092 61.5981C33.6571 61.5969 34.1814 61.0708 34.1802 60.4228C34.1789 59.7756 33.6541 59.2519 33.0071 59.2519C33.0063 59.2519 33.0055 59.2519 33.0047 59.2519C30.978 59.2556 29.3322 60.9077 29.3359 62.9344C29.3397 64.9589 30.9878 66.6033 33.0114 66.6032C33.0136 66.6032 33.0163 66.6032 33.0185 66.6032C34.0002 66.6013 34.9225 66.2171 35.6155 65.5217C36.3085 64.8261 36.689 63.9022 36.6872 62.9206C36.6865 62.2734 36.1616 61.7497 35.5147 61.7497Z" fill="black"/>
<path d="M85.566 61.6556C85.5652 61.6556 85.5644 61.6556 85.5637 61.6556C84.9158 61.6569 84.3915 62.183 84.3927 62.831C84.3933 63.1861 84.2557 63.5202 84.0049 63.7719C83.7543 64.0235 83.4207 64.1625 83.0655 64.1631C83.0647 64.1631 83.0638 64.1631 83.063 64.1631C82.3311 64.1631 81.7349 63.5683 81.7335 62.8363C81.7321 62.103 82.3274 61.5055 83.0605 61.5041C83.7083 61.5028 84.2327 60.9767 84.2315 60.3287C84.2302 59.6816 83.7054 59.1578 83.0583 59.1578C83.0575 59.1578 83.0568 59.1578 83.056 59.1578C81.0293 59.1616 79.3835 60.8136 79.3872 62.8403C79.391 64.8649 81.0391 66.5093 83.0627 66.5091C83.0649 66.5091 83.0675 66.5091 83.0697 66.5091C84.0515 66.5072 84.9738 66.123 85.6668 65.4277C86.3596 64.7321 86.7402 63.8081 86.7385 62.8266C86.7379 62.1794 86.2127 61.6556 85.566 61.6556Z" fill="black"/>
<path d="M96.8273 61.6347C96.8266 61.6347 96.8258 61.6347 96.825 61.6347L91.6601 61.6444C91.5937 61.1621 91.4895 60.6913 91.3467 60.2374L95.5708 60.2294C96.2184 60.2281 96.8267 59.9749 97.2839 59.5159C97.7409 59.0572 97.992 58.448 97.9908 57.8005L97.9838 54.047V54.0465V54.0461L97.9697 46.5388C97.9691 46.2418 97.9475 45.9487 97.9064 45.6609C97.9455 45.5434 97.9675 45.4181 97.9674 45.2877C97.9667 44.9543 97.8264 44.6545 97.6028 44.4412C97.0741 42.9741 95.9987 41.743 94.5442 41.0193C94.5076 41.0012 94.4701 40.9847 94.4317 40.9705L90.2556 39.4118L87.7081 29.8061C87.7046 29.7933 87.701 29.7805 87.6971 29.7677C86.9032 27.1394 84.5277 25.3759 81.7837 25.3759C81.7796 25.3759 81.7752 25.3759 81.7712 25.3759L72.9041 25.3925L72.8992 22.8117C72.898 22.164 72.6447 21.5557 72.1858 21.0987C71.7281 20.6428 71.1208 20.3918 70.4752 20.3918C70.4736 20.3918 70.4719 20.3918 70.4702 20.3918L20.4192 20.4857C19.083 20.4884 17.9975 21.5781 18 22.9148L18.0517 50.4423V50.4428V50.4432L18.0658 57.9505C18.067 58.5981 18.3203 59.2064 18.7792 59.6635C19.2369 60.1194 19.8442 60.3705 20.4899 60.3705C20.4914 60.3705 20.4931 60.3705 20.4949 60.3705L24.7161 60.3625C24.5752 60.82 24.4732 61.2908 24.4096 61.7708L19.2459 61.7803C18.5981 61.7816 18.0738 62.3077 18.075 62.9557C18.0763 63.6028 18.6011 64.1266 19.2481 64.1266C19.2489 64.1266 19.2497 64.1266 19.2505 64.1266L24.4154 64.1169C24.9979 68.3415 28.6326 71.6085 33.012 71.6085C33.0127 71.6085 33.0279 71.6085 33.0285 71.6085C35.3471 71.6041 37.5253 70.6971 39.1618 69.0544C40.519 67.6921 41.3667 65.959 41.615 64.0847L44.3541 64.0796L44.3542 64.1579C44.358 66.1807 46.0069 67.8265 48.0299 67.8265C48.0305 67.8265 48.0361 67.8265 48.0367 67.8265L55.5444 67.8124C56.5234 67.8105 57.4449 67.4257 58.1393 66.7288C58.8337 66.0318 59.2149 65.1088 59.2131 64.1297L59.2129 64.0514L74.4661 64.0227C75.0486 68.2472 78.6832 71.5143 83.0627 71.5143C83.0635 71.5143 83.0787 71.5143 83.0793 71.5143C87.4679 71.506 91.0976 68.2252 91.6645 63.9905L96.8292 63.9808C97.477 63.9796 98.0014 63.4535 98.0002 62.8055C97.9992 62.1583 97.4744 61.6347 96.8273 61.6347ZM95.6222 57.8602C95.5994 57.883 95.575 57.883 95.5669 57.883L90.5617 57.8925C90.4459 57.8927 90.3343 57.9103 90.2287 57.9417C88.6629 55.6561 86.0345 54.1526 83.0635 54.1526C83.0627 54.1526 83.0476 54.1526 83.047 54.1526C80.7282 54.157 78.5501 55.064 76.9135 56.7067C76.5238 57.098 76.1772 57.5203 75.8735 57.9672C75.7702 57.9375 75.6616 57.9206 75.5486 57.9206C75.5478 57.9206 75.5471 57.9206 75.5463 57.9206L72.9655 57.9255L72.9441 46.5076L95.6206 46.4651C95.6212 46.4912 95.6234 46.517 95.6234 46.5432L95.6283 49.124L94.2989 49.1265C93.6526 49.1278 93.0447 49.3814 92.587 49.8407C92.1292 50.3003 91.8778 50.9092 91.879 51.5554L91.8814 52.8065C91.8839 54.142 92.9709 55.2266 94.3059 55.2266C94.3073 55.2266 94.3089 55.2266 94.3103 55.2266L95.6398 55.2241L95.6447 57.8048C95.645 57.8128 95.645 57.8372 95.6222 57.8602ZM95.6358 52.8779L94.3064 52.8804H94.3062C94.2661 52.8804 94.228 52.8426 94.2278 52.8022L94.2255 51.5511C94.2255 51.5309 94.2334 51.5126 94.2492 51.4967C94.2651 51.4807 94.2833 51.4728 94.3034 51.4728L95.633 51.4703L95.6358 52.8779ZM94.7586 44.1205L72.9399 44.1615L72.9349 41.5026L89.0668 41.4722L93.5503 43.1457C94.0255 43.3907 94.4333 43.7243 94.7586 44.1205ZM81.7762 27.7219C81.7788 27.7219 81.7812 27.7219 81.7838 27.7219C83.4796 27.7219 84.9485 28.8076 85.4463 30.428L87.7537 39.1286L72.9308 39.1565L72.9094 27.7386L81.7762 27.7219ZM25.498 58.0147C25.4972 58.0147 25.4965 58.0147 25.4957 58.0147L20.4902 58.0242C20.4856 58.0225 20.458 58.0244 20.435 58.0014C20.4122 57.9786 20.412 57.9541 20.412 57.9461L20.4002 51.6115L59.2685 51.5387C59.9163 51.5375 60.4407 51.0114 60.4395 50.3634C60.4382 49.7162 59.9134 49.1925 59.2663 49.1925C59.2656 49.1925 59.2648 49.1925 59.264 49.1925L20.3956 49.2653L20.3463 22.9104C20.3463 22.8673 20.3813 22.832 20.4244 22.8318L70.4755 22.7378C70.4825 22.7384 70.5078 22.7378 70.5306 22.7606C70.5534 22.7834 70.5536 22.8078 70.5536 22.8157L70.5606 26.569V26.5695V26.57L70.5864 40.3333L70.5958 45.3382V45.3385V45.3388L70.6194 57.9295L55.293 57.9584L48.0182 57.972C48.0171 57.972 48.0161 57.972 48.015 57.972L40.5108 57.9861C40.3948 57.9863 40.2833 58.0039 40.1775 58.0355C38.6117 55.7498 35.9832 54.2462 33.0123 54.2462C33.0115 54.2462 32.9963 54.2462 32.9957 54.2462C30.677 54.2506 28.4988 55.1576 26.8622 56.8003C26.4726 57.1916 26.1261 57.6139 25.8224 58.0608C25.7194 58.0314 25.6107 58.0147 25.498 58.0147ZM37.5 67.3983C36.3057 68.5971 34.7164 69.259 33.0243 69.2621L33.0121 70.4352V69.2621C29.5259 69.2621 26.6844 66.4258 26.6779 62.9394C26.6746 61.2474 27.3305 59.6555 28.5248 58.4567C29.719 57.258 31.3085 56.5961 33.0127 56.593C36.499 56.593 39.3404 59.4292 39.347 62.9157C39.3501 64.6077 38.6943 66.1996 37.5 67.3983ZM41.6092 61.7383C41.5428 61.256 41.4386 60.7852 41.2958 60.3313L44.5964 60.325C44.4341 60.7441 44.3486 61.1931 44.3495 61.6549L44.3497 61.733L41.6092 61.7383ZM55.5402 65.4661L48.0325 65.4802L48.03 66.6533V65.4802C47.2983 65.4802 46.7019 64.8849 46.7005 64.1533L46.6981 62.9057C46.6981 62.9057 46.6983 62.9032 46.6983 62.9019C46.6983 62.9007 46.6981 62.8994 46.6981 62.8994L46.6958 61.6506C46.6952 61.2985 46.8336 60.965 47.0856 60.7121C47.3372 60.4595 47.6694 60.3199 48.021 60.3188L55.5335 60.3047C56.2651 60.305 56.8612 60.9 56.8624 61.6317L56.8671 64.1343C56.8685 64.8672 56.2734 65.4647 55.5402 65.4661ZM59.2085 61.6272C59.2076 61.1586 59.1174 60.7106 58.9557 60.2981L71.7969 60.2741L74.7667 60.2685C74.6258 60.726 74.5238 61.1967 74.4603 61.6766L59.2084 61.7053V61.6272H59.2085ZM83.0752 69.1682L83.063 70.3413V69.1682C79.5768 69.1682 76.7354 66.3319 76.7288 62.8455C76.7255 61.1535 77.3815 59.5616 78.5757 58.3628C79.7699 57.1641 81.3594 56.5022 83.0637 56.4991C86.5499 56.4991 89.3914 59.3353 89.3979 62.8218C89.4045 66.3144 86.5682 69.1616 83.0752 69.1682Z" fill="black"/>
<path d="M49.2784 61.7239C48.9703 61.7239 48.6684 61.8491 48.4495 62.068C48.2306 62.2853 48.1055 62.5888 48.1055 62.8969C48.1055 63.205 48.2306 63.5084 48.4495 63.7258C48.6684 63.9447 48.9703 64.0699 49.2784 64.0699C49.5881 64.0699 49.89 63.9447 50.1089 63.7258C50.3263 63.5084 50.4514 63.205 50.4514 62.8969C50.4514 62.5888 50.3263 62.2853 50.1089 62.068C49.89 61.8491 49.5881 61.7239 49.2784 61.7239Z" fill="black"/>
<path d="M64.2713 51.529C64.2721 51.529 64.2728 51.529 64.2736 51.529L66.7755 51.5243C67.4233 51.5231 67.9477 50.997 67.9465 50.3489C67.9452 49.7018 67.4204 49.1781 66.7733 49.1781C66.7725 49.1781 66.7718 49.1781 66.771 49.1781L64.2691 49.1828C63.6213 49.184 63.0969 49.7101 63.0981 50.3582C63.0994 51.0054 63.6244 51.529 64.2713 51.529Z" fill="black"/>
</g>
<defs>
<clipPath id="clip0_152_44">
<rect width="80" height="80" fill="white" transform="translate(18 6)"/>
</clipPath>
</defs>
</svg>
