<svg width="112" height="112" viewBox="0 0 112 112" fill="none" xmlns="http://www.w3.org/2000/svg">
<path d="M106.454 68.992C104.742 72.4383 102.706 75.646 100.413 78.5876C95.5924 84.7818 89.6343 89.7868 83.14 93.3299C71.3828 99.7383 57.4659 101.964 44.701 99.1819C41.8103 98.5494 38.9521 97.6161 36.1792 96.4029C26.4789 92.1514 17.795 84.4503 12.2347 74.2014C6.19122 63.0642 -0.132302 45.6571 5.5517 32.7606C6.00558 31.7375 6.53002 30.7418 7.13986 29.7808C14.1233 18.7441 28.0522 26.1618 37.2665 26.67C39.9743 26.8187 41.8778 26.1655 43.3895 24.9072C45.2103 23.3932 46.4659 20.9978 47.8773 18.0561C47.9157 17.9732 47.9569 17.8937 47.998 17.8142C50.6619 12.3909 55.0966 8.06684 60.3681 6.722C67.3695 4.93504 75.4579 8.12536 79.4476 15.2805C81.0713 18.1911 81.9906 21.5542 83.2489 24.703C88.0873 36.801 100.843 35.1694 107.567 44.6992C112.703 51.979 110.093 61.6782 106.454 68.992Z" fill="#EFF2F4"/>
<path d="M58.6878 6.36554V6.8799C63.137 6.8799 67.2203 8.65902 70.1849 11.8891C71.6216 13.4546 72.8273 15.3561 73.9932 17.1948C74.5641 18.0956 75.1546 19.0269 75.7692 19.915C79.8793 25.8561 85.5964 26.8632 91.1253 27.8373C95.4468 28.5987 99.9156 29.386 103.586 32.5668C106.429 35.0308 108.102 38.6229 108.558 43.2429C108.924 46.9594 108.511 51.2403 107.33 55.9675C104.496 67.3103 98.2782 77.9573 89.8227 85.9474C79.7206 95.4935 66.6636 101.473 53.9995 102.353C53.0265 102.421 52.0362 102.455 51.0556 102.455C49.1306 102.455 47.1787 102.324 45.2543 102.064C34.6896 100.639 24.921 95.4414 17.7476 87.4281C12.454 81.5145 8.10276 74.8519 5.49484 68.6675C2.00408 60.3893 1.42728 52.8399 3.7804 46.2297C5.22436 42.1736 7.91852 39.4526 12.0169 37.9115C15.6807 36.5336 19.9336 36.2429 24.0462 35.9615C26.937 35.7639 29.6675 35.5771 32.0416 35.0235C38.1059 33.609 39.5115 29.4541 40.9638 23.277C42.4666 16.8854 45.9529 11.7046 50.5284 9.06306C53.0027 7.63478 55.824 6.87962 58.6873 6.87962L58.6878 6.36554ZM58.6873 6.36554C55.773 6.36554 52.8543 7.12658 50.271 8.61786C45.354 11.4562 41.9041 17.0302 40.4629 23.1594C39.0624 29.1161 37.7912 33.1543 31.9246 34.5229C22.8697 36.6349 7.81436 33.3645 3.29544 46.0575C-2.059 61.1002 8.56084 77.9372 17.364 87.7713C24.8722 96.1587 34.8884 101.185 45.1851 102.574C47.137 102.837 49.0984 102.97 51.055 102.97C52.0502 102.97 53.0442 102.936 54.0348 102.867C67.0078 101.965 80.0706 95.8706 90.1758 86.3215C98.4103 78.54 104.854 67.9955 107.828 56.0924C109.861 47.9595 110.407 37.7975 103.922 32.1782C95.4322 24.8206 83.3768 30.0082 76.1917 19.6227C74.3208 16.9185 72.7391 13.9118 70.5635 11.5416C67.3656 8.05646 63.0315 6.36526 58.6873 6.36554Z" fill="#EFF2F4"/>
<path d="M87.2126 15.6374C87.6225 19.311 89.603 22.5014 92.3414 24.3205C97.3268 27.6326 105.275 26.3155 107.629 19.4748C110.328 11.6332 103.207 4.10593 97.0515 3.27825C91.1276 2.48249 86.4628 8.91801 87.2126 15.6374Z" fill="#EFF2F4"/>
<path d="M64.8908 97.1645C65.3007 100.838 67.2812 104.028 70.0196 105.848C75.005 109.16 82.9536 107.843 85.3076 101.002C88.0059 93.1602 80.8847 85.633 74.7297 84.8053C68.8057 84.0095 64.1412 90.4448 64.8908 97.1645Z" fill="#EFF2F4"/>
<path d="M28.2364 18.2159C28.5385 21.2509 31.6014 22.9801 33.9769 22.1023C38.1727 20.552 38.2301 13.0183 33.4161 12.6921C30.7872 12.514 27.9029 14.8632 28.2364 18.2159Z" fill="#EFF2F4"/>
<g clip-path="url(#clip0_152_40)">
<path d="M70.3173 37.4609L52.6848 55.0931C51.4275 56.3508 49.3875 56.3508 48.1299 55.0931L39.6837 46.6473C38.4261 45.3895 38.4261 43.3498 39.6837 42.0918C40.9415 40.8346 42.9819 40.8346 44.2387 42.0918L50.4076 48.2604L65.7621 32.9057C67.0196 31.6483 69.0596 31.6483 70.3173 32.9057C71.5745 34.1631 71.5745 36.2032 70.3173 37.4609ZM54.9996 11.4301C46.3167 16.5572 37.2342 20.4372 27.4351 23.1218V37.7368C27.4351 65.1567 51.1493 76.5693 54.9996 76.5693C58.8503 76.5693 82.5653 65.1567 82.5653 37.7368V23.1218C73.323 20.5894 63.654 16.5399 54.9996 11.4301Z" fill="#85BF4F"/>
<path d="M52.6846 55.0931L70.3171 37.4609C71.5743 36.2032 71.5743 34.1629 70.3171 32.9057C69.0594 31.6483 67.0194 31.6483 65.7619 32.9057L50.4074 48.2604L44.2385 42.0918C42.9816 40.8346 40.9413 40.8346 39.6834 42.0918C38.4258 43.3498 38.4258 45.3896 39.6834 46.6473L48.1296 55.0931C49.3871 56.3508 51.4271 56.3508 52.6846 55.0931Z" fill="#FFCD85"/>
<path d="M82.9429 21.742C73.5869 19.1785 64.176 15.1868 55.7274 10.1987C55.2786 9.9337 54.7217 9.9337 54.2731 10.1987C45.5808 15.3301 36.6784 19.1058 27.0568 21.742C26.4352 21.9122 26.0044 22.4772 26.0044 23.1217V37.7371C26.0044 52.7878 32.9477 62.7503 38.7726 68.4574C45.0434 74.602 52.3481 78 55.0002 78C57.6521 78 64.9568 74.602 71.2276 68.4574C77.0524 62.7505 83.9953 52.7878 83.9953 37.7371V23.1216C83.9953 22.4772 83.5644 21.9122 82.9429 21.742ZM81.1345 37.737C81.1345 51.7943 74.6584 61.0905 69.2253 66.4138C63.0587 72.4561 56.4655 75.1389 55.0002 75.1389C53.5349 75.1389 46.9413 72.4561 40.7746 66.4138C35.3416 61.0903 28.8653 51.7943 28.8653 37.737V24.2074C38.0663 21.595 46.6351 17.9492 55.0005 13.0879C63.157 17.8202 72.1533 21.6473 81.1345 24.2069V37.737Z" fill="#000003"/>
<path d="M42.3215 24.0474C42.0319 23.3122 41.2015 22.9511 40.4662 23.2408C37.9109 24.2476 35.2881 25.1744 32.6708 25.9955C32.0743 26.1827 31.6685 26.7352 31.6685 27.3602V32.884C31.6685 33.674 32.309 34.3144 33.0988 34.3144C33.8887 34.3144 34.5292 33.674 34.5292 32.884V28.4056C36.8772 27.6459 39.2227 26.8056 41.5149 25.9024C42.25 25.613 42.6111 24.7825 42.3215 24.0474Z" fill="#000003"/>
<path d="M45.0386 24.3187C45.2306 24.3187 45.4254 24.2801 45.6123 24.1985L45.6386 24.1871C46.3622 23.87 46.6882 23.0275 46.371 22.3041C46.0536 21.5804 45.2064 21.253 44.4835 21.5699L44.4604 21.5799C43.7363 21.8961 43.4093 22.7379 43.7255 23.4617C43.9602 23.999 44.4868 24.3187 45.0386 24.3187Z" fill="#000003"/>
<path d="M72.0428 56.1234C71.3818 55.6914 70.4954 55.8772 70.0628 56.5384C68.8841 58.3425 67.5013 60.0702 65.9521 61.6728C64.6782 62.9906 63.2977 64.2188 61.8492 65.3232C61.2211 65.8021 61.1002 66.6996 61.579 67.328C61.8607 67.697 62.2866 67.8912 62.7175 67.8912C63.02 67.8912 63.3248 67.7957 63.5838 67.5981C65.1464 66.4066 66.6352 65.0821 68.0087 63.6613C69.6836 61.9289 71.1804 60.0589 72.4578 58.1032C72.8901 57.4418 72.704 56.5554 72.0428 56.1234Z" fill="#000003"/>
<path d="M58.5271 67.5665L58.445 67.6149C57.7614 68.0108 57.5278 68.8858 57.9236 69.5693C58.1888 70.0275 58.6689 70.2833 59.1629 70.2833C59.4059 70.2833 59.6527 70.2213 59.8781 70.0905L59.9728 70.0348C60.6545 69.6356 60.8835 68.7594 60.4842 68.0777C60.0847 67.3963 59.2084 67.1677 58.5271 67.5665Z" fill="#000003"/>
<path d="M45.2499 41.0805C44.3716 40.2021 43.2035 39.7187 41.9612 39.7187C40.7189 39.7187 39.5507 40.2023 38.672 41.0805C36.8587 42.8942 36.8587 45.8453 38.672 47.6589L47.1183 56.1049C47.9967 56.9831 49.1648 57.4667 50.4073 57.4667C51.6497 57.4667 52.8178 56.9831 53.6964 56.1047L71.3286 38.4722C73.1418 36.6582 73.1418 33.7075 71.3284 31.8944C70.45 31.016 69.2819 30.5326 68.0393 30.5326C66.7968 30.5326 65.6287 31.0162 64.7502 31.8944L50.4071 46.2375L45.2499 41.0805ZM66.7732 33.9174C67.1112 33.5794 67.561 33.3934 68.0394 33.3934C68.5181 33.3934 68.9675 33.5794 69.3058 33.9174C70.0037 34.6154 70.0037 35.7515 69.3055 36.4496L51.6735 54.0818C51.3355 54.4198 50.8857 54.6059 50.4073 54.6059C49.9289 54.6059 49.479 54.4198 49.1409 54.0818L40.6948 45.636C39.9966 44.9378 39.9966 43.8017 40.6946 43.1038C41.0327 42.7658 41.4825 42.5795 41.9611 42.5795C42.4396 42.5795 42.8892 42.7655 43.2272 43.1035L49.3956 49.2721C49.6639 49.5403 50.0277 49.6909 50.407 49.6909C50.7863 49.6909 51.1501 49.5403 51.4182 49.2721L66.7732 33.9174Z" fill="#000003"/>
</g>
<defs>
<clipPath id="clip0_152_40">
<rect width="68" height="68" fill="white" transform="translate(21 10)"/>
</clipPath>
</defs>
</svg>
