<svg width="112" height="112" viewBox="0 0 112 112" fill="none" xmlns="http://www.w3.org/2000/svg">
<path d="M106.454 68.992C104.742 72.4383 102.706 75.646 100.413 78.5876C95.5924 84.7818 89.6343 89.7868 83.14 93.3299C71.3828 99.7383 57.4659 101.964 44.701 99.1819C41.8103 98.5494 38.9521 97.6161 36.1792 96.4029C26.4789 92.1514 17.795 84.4503 12.2347 74.2014C6.19122 63.0642 -0.132302 45.6571 5.5517 32.7606C6.00558 31.7375 6.53002 30.7418 7.13986 29.7808C14.1233 18.7441 28.0522 26.1618 37.2665 26.67C39.9743 26.8187 41.8778 26.1655 43.3895 24.9072C45.2103 23.3932 46.4659 20.9978 47.8773 18.0561C47.9157 17.9732 47.9569 17.8937 47.998 17.8142C50.6619 12.3909 55.0966 8.06684 60.3681 6.722C67.3695 4.93504 75.4579 8.12536 79.4476 15.2805C81.0713 18.1911 81.9906 21.5542 83.2489 24.703C88.0873 36.801 100.843 35.1694 107.567 44.6992C112.703 51.979 110.093 61.6782 106.454 68.992Z" fill="#EFF2F4"/>
<path d="M58.6878 6.36554V6.8799C63.137 6.8799 67.2203 8.65902 70.1849 11.8891C71.6216 13.4546 72.8273 15.3561 73.9932 17.1948C74.5641 18.0956 75.1546 19.0269 75.7692 19.915C79.8793 25.8561 85.5964 26.8632 91.1253 27.8373C95.4468 28.5987 99.9156 29.386 103.586 32.5668C106.429 35.0308 108.102 38.6229 108.558 43.2429C108.924 46.9594 108.511 51.2403 107.33 55.9675C104.496 67.3103 98.2782 77.9573 89.8227 85.9474C79.7206 95.4935 66.6636 101.473 53.9995 102.353C53.0265 102.421 52.0362 102.455 51.0556 102.455C49.1306 102.455 47.1787 102.324 45.2543 102.064C34.6896 100.639 24.921 95.4414 17.7476 87.4281C12.454 81.5145 8.10276 74.8519 5.49484 68.6675C2.00408 60.3893 1.42728 52.8399 3.7804 46.2297C5.22436 42.1736 7.91852 39.4526 12.0169 37.9115C15.6807 36.5336 19.9336 36.2429 24.0462 35.9615C26.937 35.7639 29.6675 35.5771 32.0416 35.0235C38.1059 33.609 39.5115 29.4541 40.9638 23.277C42.4666 16.8854 45.9529 11.7046 50.5284 9.06306C53.0027 7.63478 55.824 6.87962 58.6873 6.87962L58.6878 6.36554ZM58.6873 6.36554C55.773 6.36554 52.8543 7.12658 50.271 8.61786C45.354 11.4562 41.9041 17.0302 40.4629 23.1594C39.0624 29.1161 37.7912 33.1543 31.9246 34.5229C22.8697 36.6349 7.81436 33.3645 3.29544 46.0575C-2.059 61.1002 8.56084 77.9372 17.364 87.7713C24.8722 96.1587 34.8884 101.185 45.1851 102.574C47.137 102.837 49.0984 102.97 51.055 102.97C52.0502 102.97 53.0442 102.936 54.0348 102.867C67.0078 101.965 80.0706 95.8706 90.1758 86.3215C98.4103 78.54 104.854 67.9955 107.828 56.0924C109.861 47.9595 110.407 37.7975 103.922 32.1782C95.4322 24.8206 83.3768 30.0082 76.1917 19.6227C74.3208 16.9185 72.7391 13.9118 70.5635 11.5416C67.3656 8.05646 63.0315 6.36526 58.6873 6.36554Z" fill="#EFF2F4"/>
<path d="M87.2126 15.6374C87.6225 19.311 89.603 22.5014 92.3414 24.3205C97.3268 27.6326 105.275 26.3155 107.629 19.4748C110.328 11.6332 103.207 4.10593 97.0515 3.27825C91.1276 2.48249 86.4628 8.91801 87.2126 15.6374Z" fill="#EFF2F4"/>
<path d="M64.8908 97.1645C65.3007 100.838 67.2812 104.028 70.0196 105.848C75.005 109.16 82.9536 107.843 85.3076 101.002C88.0059 93.1602 80.8847 85.633 74.7297 84.8053C68.8057 84.0095 64.1412 90.4448 64.8908 97.1645Z" fill="#EFF2F4"/>
<path d="M28.2364 18.2159C28.5385 21.2509 31.6014 22.9801 33.9769 22.1023C38.1727 20.552 38.2301 13.0183 33.4161 12.6921C30.7872 12.514 27.9029 14.8632 28.2364 18.2159Z" fill="#EFF2F4"/>
<g clip-path="url(#clip0_152_38)">
<path d="M92.7206 47.6744C92.7206 63.157 83.5942 75.7083 72.3362 75.7083H71.1918H50.8074H49.675C38.4169 75.7083 29.2905 63.1572 29.2905 47.6744H92.7206Z" fill="#B9E4EF"/>
<path d="M89.5646 47.6744C89.5646 63.157 80.4382 75.7083 69.1802 75.7083H71.1921H72.3363C83.5943 75.7083 92.7207 63.1572 92.7207 47.6744H89.5646Z" fill="#93D8E4"/>
<path d="M91.5765 23.6148V11.201C91.5765 10.4123 90.7904 9.86517 90.0508 10.139L87.8212 10.9648C86.2985 11.5287 84.6241 11.5287 83.1013 10.9648L81.7059 10.448C80.1831 9.88404 78.5088 9.88404 76.986 10.448L75.5905 10.9648C74.0678 11.5287 72.3934 11.5287 70.8707 10.9648L69.4752 10.448C67.9525 9.88404 66.2781 9.88404 64.7553 10.448L63.3599 10.9648C61.8371 11.5287 60.1628 11.5287 58.64 10.9648L57.2445 10.448C55.7218 9.88404 54.0474 9.88404 52.5247 10.448L51.1292 10.9648C49.6065 11.5287 47.9321 11.5287 46.4093 10.9648L45.0139 10.448C43.4911 9.88404 41.8168 9.88404 40.294 10.448L38.8985 10.9648C37.3758 11.5287 35.7014 11.5287 34.1787 10.9648L31.9491 10.139C31.2095 9.86503 30.4233 10.4122 30.4233 11.201V23.6146L61 32.5604L91.5765 23.6148Z" fill="#B9E4EF"/>
<path d="M90.0508 10.1392L88.3369 10.7739C88.39 10.9045 88.4203 11.048 88.4203 11.2012V24.5381L91.5765 23.6148V11.201C91.5765 10.4123 90.7904 9.86517 90.0508 10.1392Z" fill="#93D8E4"/>
<path d="M87.0465 23.6148V17.9524C87.0465 17.3269 86.5394 16.8199 85.914 16.8199H36.0853C35.4599 16.8199 34.9529 17.327 34.9529 17.9524V23.6148L29.314 39.4692L29.2905 47.6744C29.2905 48.1801 29.6259 48.6247 30.1123 48.7634L34.2075 49.9318C40.9382 51.8519 46.0315 57.3727 47.4041 64.236L48.9583 72.5119C49.4066 74.7533 51.1588 76.5055 53.4002 76.9538L56.0235 77.4785C59.324 78.1386 62.699 78.1383 65.9993 77.4776L68.6121 76.9545C70.8532 76.5058 72.6047 74.7539 73.053 72.5128L74.6073 64.2363C75.9799 57.373 81.0732 51.8522 87.8039 49.932L91.8991 48.7636C92.3855 48.6249 92.7209 48.1804 92.7209 47.6747V39.4695L87.0465 23.6148Z" fill="#F9F6F6"/>
<path d="M87.0468 23.6148V17.9524C87.0468 17.3269 86.5397 16.8199 85.9144 16.8199H82.7582C83.3836 16.8199 83.8907 17.327 83.8907 17.9524V23.6148L89.5649 39.4694V47.6746C89.5649 48.1804 89.2295 48.6249 88.7431 48.7635L84.6478 49.9319C77.9172 51.8521 72.8239 57.3728 71.4513 64.2361L69.8969 72.5127C69.4488 74.7537 67.6972 76.5058 65.4561 76.9543L62.8433 77.4774C61.7127 77.7038 60.5733 77.8507 59.4312 77.922C61.6246 78.059 63.8282 77.9122 65.9997 77.4774L68.6124 76.9543C70.8534 76.5056 72.6049 74.7537 73.0532 72.5127L74.6075 64.2361C75.9802 57.3728 81.0734 51.8521 87.8041 49.9319L91.8993 48.7635C92.3856 48.6247 92.7211 48.1803 92.7211 47.6746V39.4694L87.0468 23.6148Z" fill="#ECDAEC"/>
<path d="M29.2905 43.9992H39.4828C40.1082 43.9992 40.6152 43.4921 40.6152 42.8668V39.4693V28.1447V24.7473C40.6152 24.1218 40.1081 23.6149 39.4828 23.6149H30.423C29.7975 23.6149 29.2905 24.1219 29.2905 24.7473V28.1447V43.9992Z" fill="#8EC6F6"/>
<path d="M39.4829 23.6147H36.3384C36.9639 23.6147 37.4708 24.1218 37.4708 24.7472V28.1446V39.4692V42.8666C37.4708 43.4921 36.9637 43.9991 36.3384 43.9991H39.4829C40.1083 43.9991 40.6153 43.492 40.6153 42.8666V39.4692V28.1446V24.7472C40.6153 24.1217 40.1083 23.6147 39.4829 23.6147Z" fill="#6A91CB"/>
<path d="M40.6154 28.1446C43.7426 28.1446 46.2778 30.6797 46.2778 33.807C46.2778 36.9342 43.7426 39.4694 40.6154 39.4694H29.2672C28.0163 39.4694 27.0259 38.4553 27.0259 37.2044V30.4096C27.0259 29.1586 28.0164 28.1446 29.2672 28.1446H40.6154Z" fill="#214C73"/>
<path d="M40.6152 28.1446H37.4707C40.598 28.1446 43.1331 30.6797 43.1331 33.807C43.1331 36.9342 40.598 39.4694 37.4707 39.4694H40.6152C43.7424 39.4694 46.2776 36.9342 46.2776 33.807C46.2776 30.6797 43.7424 28.1446 40.6152 28.1446Z" fill="#EDBD2D"/>
<path d="M92.7207 43.9992H82.5167C81.8912 43.9992 81.3843 43.4921 81.3843 42.8668V39.4693V28.1447V24.7473C81.3843 24.1218 81.8914 23.6149 82.5167 23.6149H91.5765C92.202 23.6149 92.7089 24.1219 92.7089 24.7473V28.1447L92.7207 43.9992Z" fill="#8EC6F6"/>
<path d="M92.7091 28.1446V24.7472C92.7091 24.1217 92.202 23.6147 91.5766 23.6147H88.4204C89.0459 23.6147 89.5528 24.1218 89.5528 24.7472V28.1446L89.5646 43.9992H92.7208L92.7091 28.1446Z" fill="#6A91CB"/>
<path d="M81.3841 39.4693C78.2568 39.4693 75.7217 36.9341 75.7217 33.8069C75.7217 30.6796 78.2568 28.1445 81.3841 28.1445H92.7087C93.9597 28.1445 94.9737 29.1585 94.9737 30.4095V37.2043C94.9737 38.4552 93.9597 39.4693 92.7087 39.4693H81.3841Z" fill="#214C73"/>
<path d="M92.7089 28.1446H89.5645C90.8154 28.1446 91.8294 29.1586 91.8294 30.4096V37.2044C91.8294 38.4553 90.8154 39.4694 89.5645 39.4694H92.7089C93.9599 39.4694 94.9739 38.4553 94.9739 37.2044V30.4096C94.9739 29.1586 93.9599 28.1446 92.7089 28.1446Z" fill="#EDBD2D"/>
<path d="M93.7346 27.2837V24.7473C93.7346 23.9284 93.276 23.2146 92.6021 22.8491V11.201C92.6021 10.4953 92.2562 9.83315 91.6768 9.42997C91.0976 9.02652 90.356 8.93233 89.6947 9.17746L87.4651 10.0032C86.1732 10.4817 84.7499 10.4817 83.4574 10.0032L82.062 9.48644C80.3105 8.83785 78.3814 8.83785 76.6299 9.48644L75.2345 10.0032C73.9425 10.4817 72.5193 10.4817 71.2266 10.0032L69.8313 9.48644C68.0798 8.83785 66.1506 8.83785 64.3994 9.48644L63.0039 10.0032C61.7118 10.4817 60.2886 10.4817 58.9962 10.0032L57.6008 9.48644C55.8496 8.83785 53.9203 8.83785 52.1689 9.48644L50.7734 10.0032C49.4812 10.4817 48.0579 10.4817 46.7657 10.0032L45.3702 9.48644C43.6187 8.83785 41.6897 8.83785 39.9383 9.48644L38.5429 10.0032C37.2505 10.4817 35.8273 10.4817 34.5352 10.0032L32.3053 9.17746C31.6436 8.93233 30.9025 9.0268 30.3231 9.42997C29.7438 9.83315 29.3978 10.4953 29.3978 11.201V22.849C28.7239 23.2144 28.2653 23.9282 28.2653 24.7472V27.2781C26.9527 27.7052 26.0005 28.9471 26.0005 30.4094V37.2042C26.0005 38.6745 26.963 39.9223 28.2865 40.3428L28.2655 47.6744C28.2655 55.3776 30.4555 62.6315 34.4319 68.1003C38.4801 73.6676 43.8937 76.7337 49.6753 76.7337H50.4706C51.2589 77.3301 52.1854 77.7563 53.1994 77.9592L55.8228 78.4839C57.5435 78.828 59.2761 79 61.009 79C62.7436 79 64.4784 78.8275 66.2009 78.4828L68.8136 77.9597C69.8272 77.7568 70.7533 77.3307 71.5415 76.7337H72.3366C78.1182 76.7337 83.5318 73.6676 87.5798 68.1003C91.5564 62.6315 93.7464 55.3776 93.7464 47.6744V40.326C95.0539 39.8906 95.9995 38.6562 95.9995 37.2042V30.4094C95.9994 28.9531 95.0481 27.7155 93.7346 27.2837ZM82.4098 27.1192V24.7472C82.4098 24.6881 82.4579 24.6401 82.517 24.6401H91.5768C91.6358 24.6401 91.6838 24.6882 91.6838 24.7472V27.1192H82.4098ZM82.4098 40.4946H91.6956V42.9738H82.517C82.4578 42.9738 82.4098 42.9257 82.4098 42.8668V40.4946ZM81.3844 38.4438C78.8277 38.4438 76.7475 36.3637 76.7475 33.807C76.7475 31.2505 78.827 29.1706 81.3833 29.1699H87.1538V38.4438H81.3844ZM85.9144 17.8453C85.9734 17.8453 86.0214 17.8934 86.0214 17.9523V22.5894H83.5423V17.8453H85.9144ZM31.4946 11.1132C31.5404 11.0815 31.5785 11.0955 31.5932 11.1007L33.8227 11.9264C35.5739 12.575 37.5036 12.5751 39.2548 11.9264L40.6502 11.4096C41.9425 10.931 43.3658 10.9313 44.6578 11.4096L46.0533 11.9264C47.8045 12.575 49.7339 12.5751 51.4853 11.9264L52.8808 11.4096C54.173 10.931 55.5964 10.9313 56.8885 11.4096L58.2839 11.9264C60.0354 12.575 61.9646 12.575 63.716 11.9264L65.1114 11.4096C66.4037 10.931 67.827 10.9313 69.1191 11.4096L70.5146 11.9264C72.2661 12.575 74.1953 12.575 75.9466 11.9264L77.3421 11.4096C78.6343 10.931 80.0577 10.9313 81.3498 11.4096L82.7453 11.9264C84.4967 12.575 86.426 12.575 88.1773 11.9264L90.407 11.1007C90.4211 11.0955 90.4596 11.0815 90.5054 11.1132C90.5514 11.1451 90.5514 11.1858 90.5514 11.2011V22.5895H88.0722V17.9523C88.0722 16.7625 87.1042 15.7945 85.9144 15.7945H36.0857C34.8958 15.7945 33.9279 16.7625 33.9279 17.9523V22.5894H31.4486V11.201C31.4486 11.1858 31.4486 11.1451 31.4946 11.1132ZM30.3369 40.4946H39.5903V42.8668C39.5903 42.9258 39.5421 42.9738 39.4831 42.9738H30.3298L30.3369 40.4946ZM40.6156 38.4438H34.8462V29.1699H40.6167C43.1731 29.1705 45.2525 31.2504 45.2525 33.807C45.2525 36.3637 43.1724 38.4438 40.6156 38.4438ZM30.3162 27.1192V24.7472C30.3162 24.6881 30.3643 24.6401 30.4233 24.6401H39.4829C39.5421 24.6401 39.5901 24.6882 39.5901 24.7472V27.1192H30.3162ZM38.4576 22.5894H35.9786V17.9523C35.9786 17.8933 36.0267 17.8453 36.0857 17.8453H38.4577L38.4576 22.5894ZM28.0512 30.4094C28.0512 29.7143 28.5854 29.1699 29.2673 29.1699H32.7954V38.4438H29.2673C28.5855 38.4438 28.0512 37.8994 28.0512 37.2044V30.4094ZM30.3828 49.9068L33.9265 50.9177C40.3166 52.7408 45.0957 57.9212 46.3967 64.4252L47.9531 72.7128C48.0912 73.4031 48.3333 74.0526 48.6615 74.646C38.9883 73.9463 31.1717 63.2941 30.3828 49.9068ZM68.4109 75.9488L65.7981 76.4718C62.6221 77.1077 59.4013 77.1083 56.225 76.4729L53.6017 75.9482C51.7602 75.58 50.3324 74.152 49.9664 72.3225L48.41 64.0349C46.9555 56.7622 41.6213 50.9803 34.4892 48.9457L30.3941 47.7775C30.3485 47.7644 30.3164 47.722 30.3164 47.6775C30.3164 47.6767 30.3164 47.6759 30.3164 47.6752L30.324 45.0246H39.4829C40.6728 45.0246 41.6409 44.0566 41.6409 42.8668V41.3852L46.8414 44.8523C47.0162 44.9689 47.2138 45.0247 47.4092 45.0247C47.7406 45.0247 48.0657 44.8643 48.2633 44.5679C48.5775 44.0968 48.45 43.4601 47.9789 43.1461L43.2139 39.969C45.6147 38.953 47.3033 36.5734 47.3033 33.8068C47.3033 31.5889 46.217 29.6207 44.5497 28.4034L52.1414 26.885C52.6967 26.7738 53.0568 26.2337 52.9458 25.6785C52.8348 25.1231 52.2948 24.763 51.7393 24.874L41.6411 26.8936V24.747C41.6411 23.9281 41.1825 23.2143 40.5086 22.8488V17.8453H81.4919V22.849C80.818 23.2144 80.3593 23.9282 80.3593 24.7472V26.8937L70.2611 24.8742C69.7061 24.7629 69.1655 25.1233 69.0546 25.6786C68.9435 26.2339 69.3037 26.7741 69.859 26.8851L77.4508 28.4035C75.7834 29.6208 74.6972 31.589 74.6972 33.807C74.6972 36.5736 76.3858 38.9531 78.7865 39.9692L74.0214 43.1461C73.5503 43.4602 73.4228 44.0968 73.737 44.5679C73.9346 44.8643 74.2597 45.0247 74.5911 45.0247C74.7866 45.0247 74.9841 44.9689 75.1589 44.8523L80.3594 41.3852V42.8668C80.3594 44.0566 81.3275 45.0246 82.5174 45.0246H91.696V47.6745C91.696 47.7221 91.664 47.7645 91.6183 47.7776L87.5231 48.9459C80.3911 50.9805 75.0569 56.7624 73.6 64.0469L72.048 72.3116C71.6793 74.1526 70.252 75.5803 68.4109 75.9488ZM73.3487 74.6461C73.6785 74.0499 73.9218 73.3967 74.0609 72.7017L75.6129 64.4371C76.9162 57.921 81.6953 52.7407 88.0853 50.9177L91.629 49.9068C90.84 63.2948 83.0225 73.9475 73.3487 74.6461ZM93.9486 37.2042C93.9486 37.8877 93.3926 38.4437 92.7092 38.4437H89.2046V29.1698H92.7092C93.3926 29.1698 93.9486 29.7258 93.9486 30.4093V37.2042Z" fill="black"/>
</g>
<defs>
<clipPath id="clip0_152_38">
<rect width="70" height="70" fill="white" transform="translate(26 9)"/>
</clipPath>
</defs>
</svg>
